0
SECTION
2
HEADER
9
$EXTMAX
10
420.0000000000
20
297.0000000000
9
$EXTMIN
10
0.0000000000
20
-0.0000000000
9
$LIMMIN
10
0.0000000000
20
-0.0000000000
9
$LIMMAX
10
420.0000000000
20
297.0000000000
9
$VIEWCTR
10
210.0000000000
20
148.5000000000
9
$VIEWSIZE
40
297.0000000000
9
$CLAYER
8
0
9
$LTSCALE
40
23.1000000000
9
$CELTYPE
6
BYLAYER
9
$DIMSCALE
40
1
9
$DIMASZ
40
3.5000000000
9
$DIMEXO
40
2.6250000000
9
$DIMDLI
40
15.9600000000
9
$DIMEXE
40
7.5600000000
9
$DIMCEN
40
3.7800000000
9
$DIMLFAC
40
1.0000000000
0
ENDSEC
0
SECTION
2
TABLES
0
TABLE
2
LTYPE
70
6
0
LTYPE
2
BYBLOCK
70
0
3

72
65
73
0
40
0.0
0
LTYPE
2
BYLAYER
70
0
3

72
65
73
0
40
0.0
0
LTYPE
2
CONTINUOUS
70
64
3
Solid line
72
65
73
0
40
0
0
LTYPE
2
CENTER
70
64
3
____ _ ____ _ ____ _ ____ _ ____ _ ____ _ ____
72
65
73
4
40
0.6
49
0.375
49
-0.075
49
0.075
49
-0.075
0
LTYPE
2
HIDDEN
70
64
3
- - - - - - - - - - - - - - - - - - - -
72
65
73
2
40
0.2
49
0.1
49
-0.1
0
LTYPE
2
PHANTOM
70
64
3
_____ _ _ _____ _ _ _____ _ _ _____
72
65
73
6
40
0.8
49
0.45
49
-0.05
49
0.1
49
-0.05
49
0.1
49
-0.05
0
LTYPE
2
DOT
70
64
3
. . . . . . . . . . . . . . . . . . . .
72
65
73
2
40
0.2
49
0.1
49
-0.1
0
LTYPE
2
DASHED
70
64
3
- - - - - - - - - - - - - - - - - - - -
72
65
73
2
40
0.2
49
0.1
49
-0.1
0
ENDTAB
0
TABLE
2
LAYER
70
36
0
LAYER
2
0
70
0
62
7
6
CONTINUOUS
0
LAYER
2
DEFAULT_1
70
0
62
7
6
CENTER
0
LAYER
2
DEFAULT_2
70
0
62
8
6
HIDDEN
0
LAYER
2
DEFAULT_3
70
0
62
7
6
PHANTOM
0
LAYER
2
10000_FRONT
70
0
62
7
6
CONTINUOUS
0
LAYER
2
10100_DIM_FRONT
70
0
62
7
6
CONTINUOUS
0
LAYER
2
10300_FRONT_GERMAN_ENGLISH
70
0
62
7
6
CONTINUOUS
0
LAYER
2
11000_LEFT
70
0
62
7
6
CONTINUOUS
0
LAYER
2
11100_DIM_LEFT
70
0
62
7
6
CONTINUOUS
0
LAYER
2
11300_LEFT_GERMAN_ENGLISH
70
0
62
7
6
CONTINUOUS
0
LAYER
2
12000_RIGHT
70
0
62
7
6
CONTINUOUS
0
LAYER
2
12100_DIM_RIGHT
70
0
62
7
6
CONTINUOUS
0
LAYER
2
12300_RIGHT_GERMAN_ENGLISH
70
0
62
7
6
CONTINUOUS
0
LAYER
2
13000_TOP
70
0
62
7
6
CONTINUOUS
0
LAYER
2
13100_DIM_TOP
70
0
62
7
6
CONTINUOUS
0
LAYER
2
13300_TOP_GERMAN_ENGLISH
70
0
62
7
6
CONTINUOUS
0
LAYER
2
14000_BOTTOM
70
0
62
7
6
CONTINUOUS
0
LAYER
2
14100_DIM_BOTTOM
70
0
62
7
6
CONTINUOUS
0
LAYER
2
14300_BOTTOM_GERMAN_ENGLISH
70
0
62
7
6
CONTINUOUS
0
LAYER
2
15000_BACK
70
0
62
7
6
CONTINUOUS
0
LAYER
2
15100_DIM_BACK
70
0
62
7
6
CONTINUOUS
0
LAYER
2
15300_BACK_GERMAN_ENGLISH
70
0
62
7
6
CONTINUOUS
0
LAYER
2
20000_FRONT_O
70
0
62
7
6
CONTINUOUS
0
LAYER
2
20100_DIM_FRONT_O
70
0
62
7
6
CONTINUOUS
0
LAYER
2
20300_FRONT_O_GERMAN_ENGLISH
70
0
62
7
6
CONTINUOUS
0
LAYER
2
40000_ISO
70
0
62
7
6
CONTINUOUS
0
LAYER
2
40300_ISO_GERMAN_ENGLISH
70
0
62
7
6
CONTINUOUS
0
LAYER
2
50000_WIRING
70
0
62
7
6
CONTINUOUS
0
LAYER
2
50300_WIRING_GERMAN_ENGLISH
70
0
62
7
6
CONTINUOUS
0
LAYER
2
90000_FRAME
70
0
62
7
6
CONTINUOUS
0
LAYER
2
91000_TIP
70
0
62
7
6
CONTINUOUS
0
ENDTAB
0
ENDSEC
0
SECTION
2
BLOCKS
0
BLOCK
8
10100_DIM_FRONT
62
7
6
CONTINUOUS
2
*D0
70
65
10
0.0000000000
20
0.0000000000
0
TEXT
8
10100_DIM_FRONT
62
7
6
CONTINUOUS
10
141.2248479078
20
120.0584090400
40
3.5000000000
1
11.7
72
5
11
149.9748475740
21
120.0584090400
0
LINE
8
10100_DIM_FRONT
62
7
6
CONTINUOUS
10
133.7646371712
20
129.9007504817
11
133.7646371712
21
117.1834090400
0
LINE
8
10100_DIM_FRONT
62
7
6
CONTINUOUS
10
157.1246371712
20
129.9007504817
11
157.1246371712
21
117.1834090400
0
LINE
8
10100_DIM_FRONT
62
7
6
CONTINUOUS
10
133.7646371712
20
119.1834090400
11
145.4446371712
21
119.1834090400
0
LINE
8
10100_DIM_FRONT
62
7
6
CONTINUOUS
10
157.1246371712
20
119.1834090400
11
145.4446371712
21
119.1834090400
0
SOLID
8
10100_DIM_FRONT
62
7
6
CONTINUOUS
10
137.2646371712
20
119.6834090400
11
133.7646371712
21
119.1834090400
12
137.2646371712
22
118.6834090400
13
137.2646371712
23
118.6834090400
0
SOLID
8
10100_DIM_FRONT
62
7
6
CONTINUOUS
10
153.6246371712
20
118.6834090400
11
157.1246371712
21
119.1834090400
12
153.6246371712
22
119.6834090400
13
153.6246371712
23
119.6834090400
0
ENDBLK
8
0
0
BLOCK
8
10100_DIM_FRONT
62
7
6
CONTINUOUS
2
*D1
70
65
10
0.0000000000
20
0.0000000000
0
TEXT
8
10100_DIM_FRONT
62
7
6
CONTINUOUS
10
140.6480210367
20
111.3974969555
40
3.5000000000
1
13.7
72
5
11
149.8980206838
21
111.3974969555
0
LINE
8
10100_DIM_FRONT
62
7
6
CONTINUOUS
10
131.7446371712
20
157.9807504817
11
131.7446371712
21
108.5224969555
0
LINE
8
10100_DIM_FRONT
62
7
6
CONTINUOUS
10
159.1446371712
20
157.9807504817
11
159.1446371712
21
108.5224969555
0
LINE
8
10100_DIM_FRONT
62
7
6
CONTINUOUS
10
131.7446371712
20
110.5224969555
11
145.4446371712
21
110.5224969555
0
LINE
8
10100_DIM_FRONT
62
7
6
CONTINUOUS
10
159.1446371712
20
110.5224969555
11
145.4446371712
21
110.5224969555
0
SOLID
8
10100_DIM_FRONT
62
7
6
CONTINUOUS
10
135.2446371712
20
111.0224969555
11
131.7446371712
21
110.5224969555
12
135.2446371712
22
110.0224969555
13
135.2446371712
23
110.0224969555
0
SOLID
8
10100_DIM_FRONT
62
7
6
CONTINUOUS
10
155.6446371712
20
110.0224969555
11
159.1446371712
21
110.5224969555
12
155.6446371712
22
111.0224969555
13
155.6446371712
23
111.0224969555
0
ENDBLK
8
0
0
BLOCK
8
10100_DIM_FRONT
62
7
6
CONTINUOUS
2
*D2
70
65
10
0.0000000000
20
0.0000000000
0
TEXT
8
10100_DIM_FRONT
62
7
6
CONTINUOUS
10
122.3378260278
20
171.6204289321
40
3.5000000000
1
53.4
50
90.0000000000
72
5
11
122.3378260278
21
181.3704289321
0
LINE
8
10100_DIM_FRONT
62
7
6
CONTINUOUS
10
145.4446371711
20
236.0431860611
11
121.2128260278
21
236.0431860611
0
LINE
8
10100_DIM_FRONT
62
7
6
CONTINUOUS
10
134.3646371712
20
129.3007504817
11
121.2128260278
21
129.3007504817
0
LINE
8
10100_DIM_FRONT
62
7
6
CONTINUOUS
10
123.2128260278
20
236.0431860611
11
123.2128260278
21
182.6719682714
0
LINE
8
10100_DIM_FRONT
62
7
6
CONTINUOUS
10
123.2128260278
20
129.3007504817
11
123.2128260278
21
182.6719682714
0
SOLID
8
10100_DIM_FRONT
62
7
6
CONTINUOUS
10
123.7128260278
20
232.5431860611
11
123.2128260278
21
236.0431860611
12
122.7128260278
22
232.5431860611
13
122.7128260278
23
232.5431860611
0
SOLID
8
10100_DIM_FRONT
62
7
6
CONTINUOUS
10
122.7128260278
20
132.8007504817
11
123.2128260278
21
129.3007504817
12
123.7128260278
22
132.8007504817
13
123.7128260278
23
132.8007504817
0
ENDBLK
8
0
0
BLOCK
8
10100_DIM_FRONT
62
7
6
CONTINUOUS
2
*D3
70
65
10
0.0000000000
20
0.0000000000
0
TEXT
8
10100_DIM_FRONT
62
7
6
CONTINUOUS
10
112.8726718631
20
172.8757639145
40
3.5000000000
1
54.4
50
90.0000000000
72
5
11
112.8726718631
21
182.8757639145
0
LINE
8
10100_DIM_FRONT
62
7
6
CONTINUOUS
10
145.4446371711
20
236.0431860611
11
111.7476718631
21
236.0431860611
0
LINE
8
10100_DIM_FRONT
62
7
6
CONTINUOUS
10
140.3246371712
20
127.3007504817
11
111.7476718631
21
127.3007504817
0
LINE
8
10100_DIM_FRONT
62
7
6
CONTINUOUS
10
113.7476718631
20
236.0431860611
11
113.7476718631
21
181.6719682714
0
LINE
8
10100_DIM_FRONT
62
7
6
CONTINUOUS
10
113.7476718631
20
127.3007504817
11
113.7476718631
21
181.6719682714
0
SOLID
8
10100_DIM_FRONT
62
7
6
CONTINUOUS
10
114.2476718631
20
232.5431860611
11
113.7476718631
21
236.0431860611
12
113.2476718631
22
232.5431860611
13
113.2476718631
23
232.5431860611
0
SOLID
8
10100_DIM_FRONT
62
7
6
CONTINUOUS
10
113.2476718631
20
130.8007504817
11
113.7476718631
21
127.3007504817
12
114.2476718631
22
130.8007504817
13
114.2476718631
23
130.8007504817
0
ENDBLK
8
0
0
BLOCK
8
10100_DIM_FRONT
62
7
6
CONTINUOUS
2
*D4
70
65
10
0.0000000000
20
0.0000000000
0
TEXT
8
10100_DIM_FRONT
62
7
6
CONTINUOUS
10
166.7057361748
20
138.1314357969
40
3.5000000000
1
15.1
50
90.0000000000
72
5
11
166.7057361748
21
146.6314357969
0
LINE
8
10100_DIM_FRONT
62
7
6
CONTINUOUS
10
158.6446371712
20
157.4807504817
11
169.5807361748
21
157.4807504817
0
LINE
8
10100_DIM_FRONT
62
7
6
CONTINUOUS
10
150.5646371712
20
127.3007504817
11
169.5807361748
21
127.3007504817
0
LINE
8
10100_DIM_FRONT
62
7
6
CONTINUOUS
10
167.5807361748
20
157.4807504817
11
167.5807361748
21
142.3907504817
0
LINE
8
10100_DIM_FRONT
62
7
6
CONTINUOUS
10
167.5807361748
20
127.3007504817
11
167.5807361748
21
142.3907504817
0
SOLID
8
10100_DIM_FRONT
62
7
6
CONTINUOUS
10
168.0807361748
20
153.9807504817
11
167.5807361748
21
157.4807504817
12
167.0807361748
22
153.9807504817
13
167.0807361748
23
153.9807504817
0
SOLID
8
10100_DIM_FRONT
62
7
6
CONTINUOUS
10
167.0807361748
20
130.8007504817
11
167.5807361748
21
127.3007504817
12
168.0807361748
22
130.8007504817
13
168.0807361748
23
130.8007504817
0
ENDBLK
8
0
0
BLOCK
8
11100_DIM_LEFT
62
7
6
CONTINUOUS
2
*D5
70
65
10
0.0000000000
20
0.0000000000
0
TEXT
8
11100_DIM_LEFT
62
7
6
CONTINUOUS
10
260.2310056030
20
119.4668982089
40
3.5000000000
1
6.7
72
5
11
267.7310056030
21
119.4668982089
0
LINE
8
11100_DIM_LEFT
62
7
6
CONTINUOUS
10
257.0390723279
20
131.8007504817
11
257.0390723279
21
116.5918982089
0
LINE
8
11100_DIM_LEFT
62
7
6
CONTINUOUS
10
270.3390723279
20
130.5007504805
11
270.3390723279
21
116.5918982089
0
LINE
8
11100_DIM_LEFT
62
7
6
CONTINUOUS
10
257.0390723279
20
118.5918982089
11
263.6890723279
21
118.5918982089
0
LINE
8
11100_DIM_LEFT
62
7
6
CONTINUOUS
10
270.3390723279
20
118.5918982089
11
263.6890723279
21
118.5918982089
0
SOLID
8
11100_DIM_LEFT
62
7
6
CONTINUOUS
10
260.5390723279
20
119.0918982089
11
257.0390723279
21
118.5918982089
12
260.5390723279
22
118.0918982089
13
260.5390723279
23
118.0918982089
0
SOLID
8
11100_DIM_LEFT
62
7
6
CONTINUOUS
10
266.8390723279
20
118.0918982089
11
270.3390723279
21
118.5918982089
12
266.8390723279
22
119.0918982089
13
266.8390723279
23
119.0918982089
0
ENDBLK
8
0
0
BLOCK
8
11100_DIM_LEFT
62
7
6
CONTINUOUS
2
*D6
70
65
10
0.0000000000
20
0.0000000000
0
TEXT
8
11100_DIM_LEFT
62
7
6
CONTINUOUS
10
258.9430728574
20
112.2696269833
40
3.5000000000
1
8.8
72
5
11
266.4430728574
21
112.2696269833
0
LINE
8
11100_DIM_LEFT
62
7
6
CONTINUOUS
10
270.3390723279
20
130.5007504805
11
270.3390723279
21
109.3946269833
0
LINE
8
11100_DIM_LEFT
62
7
6
CONTINUOUS
10
252.7256419191
20
141.4661452954
11
252.7256419191
21
109.3946269833
0
LINE
8
11100_DIM_LEFT
62
7
6
CONTINUOUS
10
270.3390723279
20
111.3946269833
11
261.5323571235
21
111.3946269833
0
LINE
8
11100_DIM_LEFT
62
7
6
CONTINUOUS
10
252.7256419191
20
111.3946269833
11
261.5323571235
21
111.3946269833
0
SOLID
8
11100_DIM_LEFT
62
7
6
CONTINUOUS
10
266.8390723279
20
110.8946269833
11
270.3390723279
21
111.3946269833
12
266.8390723279
22
111.8946269833
13
266.8390723279
23
111.8946269833
0
SOLID
8
11100_DIM_LEFT
62
7
6
CONTINUOUS
10
256.2256419191
20
111.8946269833
11
252.7256419191
21
111.3946269833
12
256.2256419191
22
110.8946269833
13
256.2256419191
23
110.8946269833
0
ENDBLK
8
0
0
BLOCK
8
11100_DIM_LEFT
62
7
6
CONTINUOUS
2
*D7
70
65
10
0.0000000000
20
0.0000000000
0
TEXT
8
11100_DIM_LEFT
62
7
6
CONTINUOUS
10
258.5789524086
20
244.4965021561
40
3.5000000000
1
12.8
72
5
11
268.0789524086
21
244.4965021561
0
LINE
8
11100_DIM_LEFT
62
7
6
CONTINUOUS
10
249.7790723279
20
235.0179198171
11
249.7790723279
21
245.6215021561
0
LINE
8
11100_DIM_LEFT
62
7
6
CONTINUOUS
10
275.4590723279
20
235.0179198162
11
275.4590723279
21
245.6215021561
0
LINE
8
11100_DIM_LEFT
62
7
6
CONTINUOUS
10
249.7790723279
20
243.6215021561
11
262.6190723279
21
243.6215021561
0
LINE
8
11100_DIM_LEFT
62
7
6
CONTINUOUS
10
275.4590723279
20
243.6215021561
11
262.6190723279
21
243.6215021561
0
SOLID
8
11100_DIM_LEFT
62
7
6
CONTINUOUS
10
253.2790723279
20
244.1215021561
11
249.7790723279
21
243.6215021561
12
253.2790723279
22
243.1215021561
13
253.2790723279
23
243.1215021561
0
SOLID
8
11100_DIM_LEFT
62
7
6
CONTINUOUS
10
271.9590723279
20
243.1215021561
11
275.4590723279
21
243.6215021561
12
271.9590723279
22
244.1215021561
13
271.9590723279
23
244.1215021561
0
ENDBLK
8
0
0
BLOCK
8
11100_DIM_LEFT
62
7
6
CONTINUOUS
2
*D8
70
65
10
0.0000000000
20
0.0000000000
0
TEXT
8
11100_DIM_LEFT
62
7
6
CONTINUOUS
10
258.1429306576
20
251.5620433141
40
3.5000000000
1
16
72
5
11
262.8929306576
21
251.5620433141
0
LINE
8
11100_DIM_LEFT
62
7
6
CONTINUOUS
10
243.6190723279
20
207.6311872434
11
243.6190723279
21
252.6870433141
0
LINE
8
11100_DIM_LEFT
62
7
6
CONTINUOUS
10
275.6190723279
20
225.2207504817
11
275.6190723279
21
252.6870433141
0
LINE
8
11100_DIM_LEFT
62
7
6
CONTINUOUS
10
243.6190723279
20
250.6870433141
11
259.6190723279
21
250.6870433141
0
LINE
8
11100_DIM_LEFT
62
7
6
CONTINUOUS
10
275.6190723279
20
250.6870433141
11
259.6190723279
21
250.6870433141
0
SOLID
8
11100_DIM_LEFT
62
7
6
CONTINUOUS
10
247.1190723279
20
251.1870433141
11
243.6190723279
21
250.6870433141
12
247.1190723279
22
250.1870433141
13
247.1190723279
23
250.1870433141
0
SOLID
8
11100_DIM_LEFT
62
7
6
CONTINUOUS
10
272.1190723279
20
250.1870433141
11
275.6190723279
21
250.6870433141
12
272.1190723279
22
251.1870433141
13
272.1190723279
23
251.1870433141
0
ENDBLK
8
0
0
ENDSEC
0
SECTION
2
ENTITIES
0
DIMENSION
8
10100_DIM_FRONT
62
7
6
CONTINUOUS
2
*D0
10
157.1246371712
20
119.1834090400
11
145.5998477409
21
121.8084090400
70
128
13
133.7646371712
23
129.9007504817
14
157.1246371712
24
129.9007504817
0
DIMENSION
8
10100_DIM_FRONT
62
7
6
CONTINUOUS
2
*D1
10
159.1446371712
20
110.5224969555
11
145.2730208602
21
113.1474969555
70
128
13
131.7446371712
23
157.9807504817
14
159.1446371712
24
157.9807504817
0
DIMENSION
8
10100_DIM_FRONT
62
7
6
CONTINUOUS
2
*D2
10
123.2128260278
20
129.3007504817
11
120.5878260278
21
176.4954289321
70
128
13
145.4446371711
23
236.0431860611
14
134.3646371712
24
129.3007504817
50
270.000000
0
DIMENSION
8
10100_DIM_FRONT
62
7
6
CONTINUOUS
2
*D3
10
113.7476718631
20
127.3007504817
11
111.1226718631
21
177.8757639145
70
128
13
145.4446371711
23
236.0431860611
14
140.3246371712
24
127.3007504817
50
270.000000
0
DIMENSION
8
10100_DIM_FRONT
62
7
6
CONTINUOUS
2
*D4
10
167.5807361748
20
127.3007504817
11
164.9557361748
21
142.3814357969
70
128
13
158.6446371712
23
157.4807504817
14
150.5646371712
24
127.3007504817
50
270.000000
0
DIMENSION
8
11100_DIM_LEFT
62
7
6
CONTINUOUS
2
*D5
10
270.3390723279
20
118.5918982089
11
263.9810056030
21
121.2168982089
70
128
13
257.0390723279
23
131.8007504817
14
270.3390723279
24
130.5007504805
0
DIMENSION
8
11100_DIM_LEFT
62
7
6
CONTINUOUS
2
*D6
10
252.7256419191
20
111.3946269833
11
262.6930728574
21
114.0196269833
70
128
13
270.3390723279
23
130.5007504805
14
252.7256419191
24
141.4661452954
50
180.000000
0
DIMENSION
8
11100_DIM_LEFT
62
7
6
CONTINUOUS
2
*D7
10
275.4590723279
20
243.6215021561
11
263.3289524086
21
246.2465021561
70
128
13
249.7790723279
23
235.0179198171
14
275.4590723279
24
235.0179198162
0
DIMENSION
8
11100_DIM_LEFT
62
7
6
CONTINUOUS
2
*D8
10
275.6190723279
20
250.6870433141
11
260.5179306576
21
253.3120433141
70
128
13
243.6190723279
23
207.6311872434
14
275.6190723279
24
225.2207504817
0
TEXT
8
90000_FRAME
62
7
6
CONTINUOUS
10
325.6600000000
20
11.9000000000
40
2.2000000000
1
Format / Size: DIN A3
72
5
11
359.0790476190
21
11.9000000000
0
TEXT
8
90000_FRAME
62
7
6
CONTINUOUS
10
368.1600000000
20
11.9000000000
40
2.2000000000
1
Massstab / Scale: 2:1
72
5
11
399.5361904762
21
11.9000000000
0
TEXT
8
90000_FRAME
62
7
6
CONTINUOUS
10
341.6250000000
20
20.2500000000
40
3.5000000000
1
6GK19011BB102AA0_001
72
5
11
393.3750000000
21
20.2500000000
0
TEXT
8
10300_FRONT_GERMAN_ENGLISH
62
7
6
CONTINUOUS
10
129.9227528090
20
259.7872191011
40
3.5000000000
1
Vorne / Front
51
0.0000187240
72
5
11
162.5060861423
21
259.7872191011
0
TEXT
8
11300_LEFT_GERMAN_ENGLISH
62
7
6
CONTINUOUS
10
241.4115168539
20
261.1144662921
40
3.5000000000
1
Links / Left
51
0.0000187240
72
5
11
269.9115168539
21
261.1144662921
0
TEXT
8
13300_TOP_GERMAN_ENGLISH
62
7
6
CONTINUOUS
10
133.0196629213
20
84.5905898876
40
3.5000000000
1
Oben / Top
51
0.0000187240
72
5
11
159.4363295880
21
84.5905898876
0
TEXT
8
91000_TIP
62
7
6
CONTINUOUS
10
11.2756234532
20
15.1898618139
40
3.5000000000
1
Alle Bemassungswerte sind in Millimeter (mm) angegeben.
72
5
11
145.8589567865
21
15.1898618139
0
TEXT
8
91000_TIP
62
7
6
CONTINUOUS
10
11.2756234532
20
9.9398618139
40
3.5000000000
1
All dimensions are in millimeters (mm).
72
5
11
104.4422901199
21
9.9398618139
0
LINE
8
90000_FRAME
62
7
6
CONTINUOUS
10
0.0000000000
20
297.0000000000
11
0.0000000000
21
0.0000000000
0
LINE
8
90000_FRAME
62
7
6
CONTINUOUS
10
5.0000000000
20
292.0000000000
11
5.0000000000
21
5.0000000000
0
LINE
8
90000_FRAME
62
7
6
CONTINUOUS
10
0.0000000000
20
0.0000000000
11
420.0000000000
21
0.0000000000
0
LINE
8
91000_TIP
62
7
6
CONTINUOUS
10
249.0651746053
20
21.3746346567
11
259.0651746053
21
23.8746346567
0
LINE
8
90000_FRAME
62
7
6
CONTINUOUS
10
5.0000000000
20
5.0000000000
11
415.0000000000
21
5.0000000000
0
LINE
8
90000_FRAME
62
7
6
CONTINUOUS
10
275.0000000000
20
10.0000000000
11
410.0000000000
21
10.0000000000
0
LINE
8
90000_FRAME
62
7
6
CONTINUOUS
10
325.0000000000
20
16.0000000000
11
410.0000000000
21
16.0000000000
0
LINE
8
90000_FRAME
62
7
6
CONTINUOUS
10
298.2973434565
20
16.6961097434
11
299.1529318914
21
16.6961097434
0
LINE
8
90000_FRAME
62
7
6
CONTINUOUS
10
311.4876651625
20
16.7436424342
11
309.9666190559
21
16.7436424342
0
LINE
8
90000_FRAME
62
7
6
CONTINUOUS
10
301.8622952689
20
16.7436424342
11
300.4838472348
21
16.7436424342
0
LINE
8
90000_FRAME
62
7
6
CONTINUOUS
10
289.1235341257
20
16.7436424342
11
290.5495148507
21
16.7436424342
0
LINE
8
90000_FRAME
62
7
6
CONTINUOUS
10
291.6427667399
20
16.7436424342
11
295.2077185523
21
16.7436424342
0
LINE
8
90000_FRAME
62
7
6
CONTINUOUS
10
296.0157742965
20
16.7436424342
11
296.9664281131
21
16.7436424342
0
LINE
8
90000_FRAME
62
7
6
CONTINUOUS
10
302.9555471581
20
16.7436424342
11
306.5204989705
21
16.7436424342
0
LINE
8
90000_FRAME
62
7
6
CONTINUOUS
10
307.3047883693
20
16.7436424342
11
308.2554421859
21
16.7436424342
0
LINE
8
90000_FRAME
62
7
6
CONTINUOUS
10
306.5204989705
20
17.6467635600
11
304.3339951922
21
17.6467635600
0
LINE
8
90000_FRAME
62
7
6
CONTINUOUS
10
295.2077185523
20
17.6467635600
11
293.0212147740
21
17.6467635600
0
LINE
8
10000_FRONT
62
7
6
CONTINUOUS
10
132.7014378543
20
235.0788715183
11
132.5690304685
21
234.9720762026
0
LINE
8
10000_FRONT
62
7
6
CONTINUOUS
10
132.7264791684
20
235.0960696420
11
132.5775215199
21
234.9856225921
0
LINE
8
10000_FRONT
62
7
6
CONTINUOUS
10
132.7330862528
20
235.0992139596
11
132.5808580850
21
234.9891958896
0
LINE
8
90000_FRAME
62
7
6
CONTINUOUS
10
306.1877701347
20
18.7637817946
11
304.3339951922
21
18.7637817946
0
LINE
8
90000_FRAME
62
7
6
CONTINUOUS
10
294.8749897165
20
18.7637817946
11
293.0212147740
21
18.7637817946
0
LINE
8
91000_TIP
62
7
6
CENTER
10
247.7856646053
20
18.8746346567
11
271.3876536053
21
18.8746346567
0
LINE
8
90000_FRAME
62
7
6
CONTINUOUS
10
306.1877701347
20
19.5480711933
11
304.3339951922
21
19.5480711933
0
LINE
8
90000_FRAME
62
7
6
CONTINUOUS
10
294.8749897165
20
19.5480711933
11
293.0212147740
21
19.5480711933
0
LINE
8
90000_FRAME
62
7
6
CONTINUOUS
10
306.4729662797
20
20.6175567371
11
304.3339951922
21
20.6175567371
0
LINE
8
90000_FRAME
62
7
6
CONTINUOUS
10
295.1601858615
20
20.6175567371
11
293.0212147740
21
20.6175567371
0
LINE
8
90000_FRAME
62
7
6
CONTINUOUS
10
311.4876651625
20
21.4969115175
11
310.5370113459
21
21.4969115175
0
LINE
8
90000_FRAME
62
7
6
CONTINUOUS
10
308.8496008213
20
21.4969115175
11
307.3047883693
21
21.4969115175
0
LINE
8
90000_FRAME
62
7
6
CONTINUOUS
10
306.4729662797
20
21.4969115175
11
302.9555471581
21
21.4969115175
0
LINE
8
90000_FRAME
62
7
6
CONTINUOUS
10
301.8622952689
20
21.4969115175
11
300.1511183989
21
21.4969115175
0
LINE
8
90000_FRAME
62
7
6
CONTINUOUS
10
297.7269511665
20
21.4969115175
11
296.0157742965
21
21.4969115175
0
LINE
8
90000_FRAME
62
7
6
CONTINUOUS
10
295.1601858615
20
21.4969115175
11
291.6427667399
21
21.4969115175
0
LINE
8
90000_FRAME
62
7
6
CONTINUOUS
10
289.1235341257
20
21.4969115175
11
290.5495148507
21
21.4969115175
0
LINE
8
90000_FRAME
62
7
6
CONTINUOUS
10
275.0000000000
20
28.0000000000
11
410.0000000000
21
28.0000000000
0
LINE
8
91000_TIP
62
7
6
CONTINUOUS
10
249.0651746053
20
16.3746346567
11
259.0651746053
21
13.8746346567
0
LINE
8
13000_TOP
62
7
6
CONTINUOUS
10
132.4769026525
20
52.0081324456
11
132.4446371701
21
52.0248420633
0
LINE
8
13000_TOP
62
7
6
CONTINUOUS
10
141.9731078297
20
54.1895135682
11
141.6171433147
21
54.4029453431
0
LINE
8
13000_TOP
62
7
6
CONTINUOUS
10
132.9445573029
20
53.1731581309
11
132.9446371712
21
53.1731093993
0
LINE
8
13000_TOP
62
7
6
CONTINUOUS
10
141.6171413952
20
54.4029488641
11
141.6065620477
21
54.4105499738
0
LINE
8
13000_TOP
62
7
6
CONTINUOUS
10
141.6065620477
20
54.4105499738
11
141.5996385312
21
54.4164489853
0
LINE
8
13000_TOP
62
7
6
CONTINUOUS
10
141.5996385312
20
54.4164489853
11
141.5971682156
21
54.4187835380
0
LINE
8
10000_FRONT
62
7
6
CONTINUOUS
10
136.8031511336
20
224.2348341115
11
136.8705001499
21
224.3573475544
0
LINE
8
10000_FRONT
62
7
6
CONTINUOUS
10
132.5677154914
20
234.9710155865
11
132.4777184041
21
234.8212308390
0
LINE
8
10000_FRONT
62
7
6
CONTINUOUS
10
132.5775215199
20
234.9856225921
11
132.4791166911
21
234.8286302381
0
LINE
8
10000_FRONT
62
7
6
CONTINUOUS
10
132.5808580850
20
234.9891958896
11
132.4800232102
21
234.8309264246
0
LINE
8
10000_FRONT
62
7
6
CONTINUOUS
10
134.1784569042
20
223.4409373137
11
134.2748323205
21
223.5767867599
0
LINE
8
10000_FRONT
62
7
6
CONTINUOUS
10
142.7049327530
20
232.5685000213
11
142.4968638164
21
232.2764253597
0
LINE
8
10000_FRONT
62
7
6
CONTINUOUS
10
142.9794440946
20
232.8657615623
11
142.7049327530
21
232.5685000213
0
LINE
8
10000_FRONT
62
7
6
CONTINUOUS
10
136.7000312943
20
224.1424670909
11
136.8031511336
21
224.2348341115
0
LINE
8
10000_FRONT
62
7
6
CONTINUOUS
10
143.3296640059
20
233.1638425118
11
142.9794440946
21
232.8657615623
0
LINE
8
10000_FRONT
62
7
6
CONTINUOUS
10
143.7624737571
20
233.4550561616
11
143.3296640059
21
233.1638425118
0
LINE
8
10000_FRONT
62
7
6
CONTINUOUS
10
136.7000312943
20
224.1424670909
11
136.5174400608
21
224.0291976260
0
LINE
8
10000_FRONT
62
7
6
CONTINUOUS
10
133.6961752078
20
235.2691531727
11
133.6868474078
21
235.2633809264
0
LINE
8
10000_FRONT
62
7
6
CONTINUOUS
10
136.5174400608
20
224.0291976260
11
136.2974922295
21
223.8946894643
0
LINE
8
10000_FRONT
62
7
6
CONTINUOUS
10
136.2974922295
20
223.8946894643
11
136.0394118165
21
223.7385230183
0
LINE
8
10000_FRONT
62
7
6
CONTINUOUS
10
134.2748323205
20
223.5767867599
11
134.4145635788
21
223.6599425156
0
LINE
8
10000_FRONT
62
7
6
CONTINUOUS
10
136.0084294816
20
223.7216880642
11
136.0394118165
21
223.7385230183
0
LINE
8
10000_FRONT
62
7
6
CONTINUOUS
10
144.2859442473
20
233.7317105257
11
143.7624737571
21
233.4550561616
0
LINE
8
10000_FRONT
62
7
6
CONTINUOUS
10
144.9113405257
20
233.9853934561
11
144.2859442473
21
233.7317105257
0
LINE
8
10000_FRONT
62
7
6
CONTINUOUS
10
132.8651131983
20
235.1398083215
11
132.7264791684
21
235.0960696420
0
LINE
8
10000_FRONT
62
7
6
CONTINUOUS
10
132.8651133173
20
235.1398083409
11
132.7330862528
21
235.0992139596
0
LINE
8
13000_TOP
62
7
6
CONTINUOUS
10
132.2446371696
20
46.3829362109
11
158.6446371712
21
46.3829362109
0
LINE
8
13000_TOP
62
7
6
CONTINUOUS
10
157.9446369086
20
46.5429362111
11
132.9446371515
21
46.5429362092
0
LINE
8
13000_TOP
62
7
6
CONTINUOUS
10
141.5038341610
20
51.1100209186
11
143.4387817173
21
50.9730865974
0
LINE
8
13000_TOP
62
7
6
CONTINUOUS
10
132.7014378543
20
51.9835306469
11
132.5677154914
21
51.9937756922
0
LINE
8
13000_TOP
62
7
6
CONTINUOUS
10
139.6131111706
20
51.2974699072
11
141.5038341610
21
51.1100209186
0
LINE
8
13000_TOP
62
7
6
CONTINUOUS
10
133.6868474031
20
51.9763713729
11
135.8186622670
21
51.7359136793
0
LINE
8
13000_TOP
62
7
6
CONTINUOUS
10
137.7704268989
20
51.5065477148
11
139.6131111706
21
51.2974699072
0
LINE
8
13000_TOP
62
7
6
CONTINUOUS
10
135.8186622670
20
51.7359136793
11
137.7704268989
21
51.5065477148
0
LINE
8
13000_TOP
62
7
6
CONTINUOUS
10
144.8593519254
20
53.3071004041
11
144.6322141208
21
53.3372069330
0
LINE
8
13000_TOP
62
7
6
CONTINUOUS
10
132.5677154914
20
51.9937756922
11
132.4769026525
21
52.0081324456
0
LINE
8
13000_TOP
62
7
6
CONTINUOUS
10
145.0692531544
20
53.3344580841
11
145.3754799927
21
53.2832768440
0
LINE
8
13000_TOP
62
7
6
CONTINUOUS
10
144.6322141208
20
53.3372069330
11
144.3995391459
21
53.3874584615
0
LINE
8
13000_TOP
62
7
6
CONTINUOUS
10
144.3995391459
20
53.3874584615
11
144.1492568733
21
53.4564261301
0
LINE
8
13000_TOP
62
7
6
CONTINUOUS
10
143.2912608378
20
53.7237620155
11
142.8605081044
21
53.8508596766
0
LINE
8
13000_TOP
62
7
6
CONTINUOUS
10
147.6326918727
20
53.9728627369
11
147.9320384868
21
53.8834071396
0
LINE
8
13000_TOP
62
7
6
CONTINUOUS
10
142.8605081044
20
53.8508596766
11
142.6453124624
21
53.9162333182
0
LINE
8
13000_TOP
62
7
6
CONTINUOUS
10
143.5063211016
20
53.6579981131
11
143.2912608378
21
53.7237620155
0
LINE
8
13000_TOP
62
7
6
CONTINUOUS
10
141.5971441918
20
54.4187402084
11
141.4374984135
21
54.4676114284
0
LINE
8
13000_TOP
62
7
6
CONTINUOUS
10
144.1492618180
20
53.4564404689
11
143.9343780204
21
53.5225290150
0
LINE
8
13000_TOP
62
7
6
CONTINUOUS
10
143.9343780204
20
53.5225290150
11
143.5063211016
21
53.6579981131
0
LINE
8
13000_TOP
62
7
6
CONTINUOUS
10
142.0155900324
20
64.6757487846
11
141.8852322430
21
64.7185140420
0
LINE
8
13000_TOP
62
7
6
CONTINUOUS
10
142.6453129707
20
53.9162353470
11
142.3962506620
21
54.0000971442
0
LINE
8
13000_TOP
62
7
6
CONTINUOUS
10
141.8723360625
20
54.3152588841
11
141.5971576111
21
54.4187644973
0
LINE
8
13000_TOP
62
7
6
CONTINUOUS
10
142.3962506620
20
54.0000971442
11
142.1754224556
21
54.0887148561
0
LINE
8
13000_TOP
62
7
6
CONTINUOUS
10
148.5600941737
20
53.8201314718
11
148.4121525888
21
53.8881689085
0
LINE
8
13000_TOP
62
7
6
CONTINUOUS
10
142.1754224556
20
54.0887148561
11
141.9731036465
21
54.1895122661
0
LINE
8
13000_TOP
62
7
6
CONTINUOUS
10
144.7982511068
20
53.4736176251
11
145.0692531544
21
53.3344580841
0
LINE
8
13000_TOP
62
7
6
CONTINUOUS
10
145.2284731669
20
65.6836359283
11
145.1012292311
21
65.7494997600
0
LINE
8
13000_TOP
62
7
6
CONTINUOUS
10
132.5910837806
20
65.7376947323
11
132.7532954550
21
65.6293189217
0
LINE
8
13000_TOP
62
7
6
CONTINUOUS
10
147.3806339796
20
54.1455294520
11
147.6326918727
21
53.9728627369
0
LINE
8
13000_TOP
62
7
6
CONTINUOUS
10
142.1248301720
20
64.5903439693
11
142.0155900324
21
64.6757487846
0
LINE
8
13000_TOP
62
7
6
CONTINUOUS
10
144.5862312267
20
53.6818798831
11
144.7982511068
21
53.4736176251
0
LINE
8
13000_TOP
62
7
6
CONTINUOUS
10
145.3221688555
20
65.5806386562
11
145.2284731669
21
65.6836359283
0
LINE
8
13000_TOP
62
7
6
CONTINUOUS
10
143.7569175611
20
62.7777268831
11
142.1248299897
21
64.5903437653
0
LINE
8
13000_TOP
62
7
6
CONTINUOUS
10
146.9991765666
20
55.7390438104
11
148.4853976128
21
53.9678345392
0
LINE
8
13000_TOP
62
7
6
CONTINUOUS
10
150.2626673904
20
60.0973609915
11
148.9684416094
21
61.6397592156
0
LINE
8
13000_TOP
62
7
6
CONTINUOUS
10
148.5600941737
20
53.8201314718
11
148.5997948590
21
53.7706619845
0
LINE
8
13000_TOP
62
7
6
CONTINUOUS
10
147.1905520150
20
54.3896968684
11
147.3806339796
21
54.1455294520
0
LINE
8
13000_TOP
62
7
6
CONTINUOUS
10
132.4826974049
20
65.8998905950
11
132.5910837806
21
65.7376947323
0
LINE
8
13000_TOP
62
7
6
CONTINUOUS
10
144.4469682113
20
53.9372713570
11
144.5862312267
21
53.6818798831
0
LINE
8
10000_FRONT
62
7
6
CONTINUOUS
10
132.4769026525
20
234.8198731600
11
132.4446371701
21
234.6439606751
0
LINE
8
10000_FRONT
62
7
6
CONTINUOUS
10
132.4791166911
20
234.8286302381
11
132.4446371712
21
234.6461728946
0
LINE
8
10000_FRONT
62
7
6
CONTINUOUS
10
134.1451937001
20
223.2802584198
11
134.1784569042
21
223.4409373137
0
LINE
8
10000_FRONT
62
7
6
CONTINUOUS
10
132.9401009485
20
226.3775363711
11
132.9428656485
21
226.3853127165
0
LINE
8
10000_FRONT
62
7
6
CONTINUOUS
10
142.3457273890
20
231.9905529276
11
142.2445936381
21
231.7126217893
0
LINE
8
10000_FRONT
62
7
6
CONTINUOUS
10
144.5751576158
20
213.4083056477
11
145.3704035851
21
215.1204664333
0
LINE
8
10000_FRONT
62
7
6
CONTINUOUS
10
142.4968638164
20
232.2764253597
11
142.3457273890
21
231.9905529276
0
LINE
8
10000_FRONT
62
7
6
CONTINUOUS
10
153.3067852826
20
230.0833668793
11
153.4584252810
21
230.3697064560
0
LINE
8
10000_FRONT
62
7
6
CONTINUOUS
10
146.7484974585
20
214.3775375803
11
145.7212953507
21
212.4827622225
0
LINE
8
10000_FRONT
62
7
6
CONTINUOUS
10
153.8218043509
20
221.0659056649
11
153.7567868454
21
220.9685982456
0
LINE
8
10000_FRONT
62
7
6
CONTINUOUS
10
158.2961584622
20
226.2802834486
11
158.4053900465
21
226.4416787347
0
LINE
8
10000_FRONT
62
7
6
CONTINUOUS
10
158.4043583200
20
226.4400477751
11
158.2941237945
21
226.2790915038
0
LINE
8
10000_FRONT
62
7
6
CONTINUOUS
10
153.0979835288
20
229.7908023822
11
153.3067852826
21
230.0833668793
0
LINE
8
10000_FRONT
62
7
6
CONTINUOUS
10
156.3810584087
20
226.1519029363
11
156.3832119870
21
226.1544972645
0
LINE
8
10000_FRONT
62
7
6
CONTINUOUS
10
152.8221121746
20
229.4927199597
11
153.0979835288
21
229.7908023822
0
LINE
8
10000_FRONT
62
7
6
CONTINUOUS
10
152.4696946177
20
229.1936129256
11
152.8221121746
21
229.4927199597
0
LINE
8
10000_FRONT
62
7
6
CONTINUOUS
10
152.0342104331
20
228.9016551975
11
152.4696946177
21
229.1936129256
0
LINE
8
10000_FRONT
62
7
6
CONTINUOUS
10
153.7567868454
20
220.9685982456
11
153.6594794775
21
220.9035822622
0
LINE
8
10000_FRONT
62
7
6
CONTINUOUS
10
158.1335278783
20
226.1728996950
11
158.2961584622
21
226.2802834486
0
LINE
8
10000_FRONT
62
7
6
CONTINUOUS
10
158.2941237945
20
226.2790915038
11
158.1306830987
21
226.1725708727
0
LINE
8
10000_FRONT
62
7
6
CONTINUOUS
10
151.5076396685
20
228.6246208339
11
152.0342104331
21
228.9016551975
0
LINE
8
10000_FRONT
62
7
6
CONTINUOUS
10
135.9767345432
20
223.7079137744
11
136.0084294816
21
223.7216880642
0
LINE
8
10000_FRONT
62
7
6
CONTINUOUS
10
150.8784900742
20
228.3709103978
11
151.5076396685
21
228.6246208339
0
LINE
8
10000_FRONT
62
7
6
CONTINUOUS
10
135.9446371712
20
223.6971395034
11
135.9767345432
21
223.7079137744
0
LINE
8
10000_FRONT
62
7
6
CONTINUOUS
10
145.6472833908
20
234.2032331490
11
144.9113405257
21
233.9853934561
0
LINE
8
10000_FRONT
62
7
6
CONTINUOUS
10
150.1384826928
20
228.1536453834
11
150.8784900742
21
228.3709103978
0
LINE
8
13000_TOP
62
7
6
CONTINUOUS
10
147.9320384868
20
53.8834071396
11
148.2489677784
21
53.8915394867
0
LINE
8
13000_TOP
62
7
6
CONTINUOUS
10
134.4898443213
20
53.1787471484
11
134.2446371708
21
53.1733170568
0
LINE
8
13000_TOP
62
7
6
CONTINUOUS
10
132.9446371712
20
53.1731093993
11
134.2446371708
21
53.1733170568
0
LINE
8
13000_TOP
62
7
6
CONTINUOUS
10
132.9445573029
20
53.1731581309
11
134.2306529541
21
53.1733635673
0
LINE
8
13000_TOP
62
7
6
CONTINUOUS
10
134.4898443213
20
53.1787471484
11
138.0429229370
21
53.1787471484
0
LINE
8
13000_TOP
62
7
6
CONTINUOUS
10
133.7839165498
20
55.2870667849
11
137.3086099871
21
55.2870667849
0
LINE
8
13000_TOP
62
7
6
CONTINUOUS
10
137.2847381942
20
57.2829362109
11
134.1691656589
21
57.2829362109
0
LINE
8
13000_TOP
62
7
6
CONTINUOUS
10
138.8009100335
20
57.8829362109
11
152.0719659527
21
57.8829362109
0
LINE
8
13000_TOP
62
7
6
CONTINUOUS
10
132.2446371680
20
59.2829362109
11
137.9666695329
21
59.2829362109
0
LINE
8
13000_TOP
62
7
6
CONTINUOUS
10
158.4446371712
20
59.2829362109
11
158.6446371712
21
59.2829362109
0
LINE
8
13000_TOP
62
7
6
CONTINUOUS
10
158.6446371712
20
59.3829362109
11
158.4446371712
21
59.3829362109
0
LINE
8
13000_TOP
62
7
6
CONTINUOUS
10
152.4416260633
20
59.3829362109
11
150.6793298837
21
59.3829362109
0
LINE
8
13000_TOP
62
7
6
CONTINUOUS
10
132.2446371712
20
59.3829362109
11
140.2099444587
21
59.3829362109
0
LINE
8
13000_TOP
62
7
6
CONTINUOUS
10
142.7126308329
20
62.3829362109
11
148.1754899445
21
62.3829362109
0
LINE
8
13000_TOP
62
7
6
CONTINUOUS
10
132.8653320296
20
51.9781591764
11
133.6868474031
21
51.9763713729
0
LINE
8
13000_TOP
62
7
6
CONTINUOUS
10
148.4121525888
20
53.8881689085
11
148.2489692047
21
53.8915320291
0
LINE
8
13000_TOP
62
7
6
CONTINUOUS
10
143.4387817173
20
50.9730865974
11
145.4446371713
21
50.9202708733
0
LINE
8
13000_TOP
62
7
6
CONTINUOUS
10
145.8395595414
20
63.2656428029
11
145.2820304076
21
63.2825137967
0
LINE
8
13000_TOP
62
7
6
CONTINUOUS
10
132.8653320315
20
51.9781592906
11
132.7014378543
21
51.9835306469
0
LINE
8
13000_TOP
62
7
6
CONTINUOUS
10
138.9203523397
20
65.5517656143
11
138.0429229370
21
65.5904481976
0
LINE
8
13000_TOP
62
7
6
CONTINUOUS
10
142.1603682432
20
54.2958204336
11
141.8723360625
21
54.3152588841
0
LINE
8
13000_TOP
62
7
6
CONTINUOUS
10
140.9929351792
20
65.1886578388
11
140.8783012840
21
65.1987756901
0
LINE
8
13000_TOP
62
7
6
CONTINUOUS
10
145.8046837379
20
65.7738010892
11
146.2178205430
21
65.7344069642
0
LINE
8
13000_TOP
62
7
6
CONTINUOUS
10
152.3942348979
20
58.8422770891
11
152.3759117155
21
58.8442941229
0
LINE
8
13000_TOP
62
7
6
CONTINUOUS
10
145.1012292311
20
65.7494997600
11
144.9564454565
21
65.7661325544
0
LINE
8
13000_TOP
62
7
6
CONTINUOUS
10
139.7910014615
20
65.4363119029
11
138.9203523397
21
65.5517656143
0
LINE
8
13000_TOP
62
7
6
CONTINUOUS
10
146.2178205430
20
65.7344069642
11
146.6450669913
21
65.6743611300
0
LINE
8
13000_TOP
62
7
6
CONTINUOUS
10
147.7145690351
20
65.3808710614
11
147.8560164334
21
65.3607548938
0
LINE
8
13000_TOP
62
7
6
CONTINUOUS
10
140.8783012840
20
65.1987756901
11
140.7625429238
21
65.2175952325
0
LINE
8
13000_TOP
62
7
6
CONTINUOUS
10
146.4827291251
20
63.1664449631
11
146.3257332870
21
63.1923730060
0
LINE
8
13000_TOP
62
7
6
CONTINUOUS
10
146.6450669913
20
65.6743611300
11
147.0530447022
21
65.5983554225
0
LINE
8
13000_TOP
62
7
6
CONTINUOUS
10
132.7532954550
20
65.6293189217
11
132.9446371712
21
65.5912623979
0
LINE
8
13000_TOP
62
7
6
CONTINUOUS
10
142.9848532152
20
73.1876871072
11
142.9150368814
21
73.2022784706
0
LINE
8
13000_TOP
62
7
6
CONTINUOUS
10
140.6481666053
20
65.2449789134
11
139.7910014615
21
65.4363119029
0
LINE
8
13000_TOP
62
7
6
CONTINUOUS
10
140.7625429238
20
65.2175952325
11
140.6481666053
21
65.2449789134
0
LINE
8
13000_TOP
62
7
6
CONTINUOUS
10
154.3367513503
20
73.1829362109
11
153.9586852187
21
73.2785521044
0
LINE
8
13000_TOP
62
7
6
CONTINUOUS
10
148.5480526697
20
65.0413968629
11
148.6862163295
21
64.9997523343
0
LINE
8
13000_TOP
62
7
6
CONTINUOUS
10
147.0326793953
20
63.0001251488
11
146.4827291251
21
63.1664449631
0
LINE
8
13000_TOP
62
7
6
CONTINUOUS
10
147.8560163965
20
65.3607545901
11
147.8661446807
21
65.3572375097
0
LINE
8
13000_TOP
62
7
6
CONTINUOUS
10
142.9150368814
20
73.2022784706
11
142.8514034391
21
73.2279103181
0
LINE
8
13000_TOP
62
7
6
CONTINUOUS
10
149.7917066741
20
78.1835330005
11
150.8348057567
21
77.6141491803
0
LINE
8
13000_TOP
62
7
6
CONTINUOUS
10
142.8514034391
20
73.2279103181
11
142.7949743291
21
73.2664912433
0
LINE
8
13000_TOP
62
7
6
CONTINUOUS
10
153.9586852187
20
73.2785521044
11
153.6260657976
21
73.5494744894
0
LINE
8
13000_TOP
62
7
6
CONTINUOUS
10
150.8348057567
20
77.6141491803
11
151.8056339251
21
76.6879271523
0
LINE
8
13000_TOP
62
7
6
CONTINUOUS
10
142.7949743291
20
73.2664912433
11
142.7494556898
21
73.3189932097
0
LINE
8
13000_TOP
62
7
6
CONTINUOUS
10
151.8056339251
20
76.6879271523
11
152.6723982339
21
75.4273995897
0
LINE
8
13000_TOP
62
7
6
CONTINUOUS
10
153.6260657976
20
73.5494744894
11
153.3692766853
21
73.9555076395
0
LINE
8
13000_TOP
62
7
6
CONTINUOUS
10
148.7274436820
20
53.5969485427
11
148.6881182203
21
53.6650622404
0
LINE
8
13000_TOP
62
7
6
CONTINUOUS
10
146.2616529550
20
56.0654733255
11
147.1905512487
21
54.3896964437
0
LINE
8
13000_TOP
62
7
6
CONTINUOUS
10
141.4104543241
20
57.5596024375
11
141.5475136869
21
57.2656776854
0
LINE
8
13000_TOP
62
7
6
CONTINUOUS
10
142.7494556898
20
73.3189932097
11
142.7202280870
21
73.3820428448
0
LINE
8
13000_TOP
62
7
6
CONTINUOUS
10
145.3752085254
20
65.4502438985
11
145.3221688555
21
65.5806386562
0
LINE
8
13000_TOP
62
7
6
CONTINUOUS
10
132.4446371712
20
66.0912136599
11
132.4826974049
21
65.8998905950
0
LINE
8
10000_FRONT
62
7
6
CONTINUOUS
10
133.5316376963
20
158.3095853267
11
133.5328191177
21
158.2965710066
0
LINE
8
10000_FRONT
62
7
6
CONTINUOUS
10
134.0631865057
20
163.7503636027
11
134.0646371712
21
163.7322748964
0
LINE
8
10000_FRONT
62
7
6
CONTINUOUS
10
132.8650609575
20
235.1397999071
11
132.8653320315
21
235.1354191100
0
LINE
8
10000_FRONT
62
7
6
CONTINUOUS
10
133.5304926398
20
158.3302405585
11
133.5316376963
21
158.3095853267
0
LINE
8
10000_FRONT
62
7
6
CONTINUOUS
10
133.5304926398
20
158.3302405585
11
133.5210294480
21
158.6242526587
0
LINE
8
10000_FRONT
62
7
6
CONTINUOUS
10
133.5210294480
20
158.6242526587
11
133.5132792692
21
159.0511299576
0
LINE
8
13000_TOP
62
7
6
CONTINUOUS
10
133.5549274304
20
58.6934076575
11
133.5692570418
21
57.8724647663
0
LINE
8
13000_TOP
62
7
6
CONTINUOUS
10
137.6090579326
20
55.5922732640
11
137.5846923674
21
56.9881722573
0
LINE
8
10000_FRONT
62
7
6
CONTINUOUS
10
136.8940589276
20
224.5029149397
11
136.8839457095
21
225.2271737667
0
LINE
8
10000_FRONT
62
7
6
CONTINUOUS
10
133.5132792692
20
159.0511299576
11
133.5077878611
21
159.5801109820
0
LINE
8
10000_FRONT
62
7
6
CONTINUOUS
10
133.5077878611
20
159.5801109820
11
133.5049423229
21
160.1733057652
0
LINE
8
10000_FRONT
62
7
6
CONTINUOUS
10
134.1451902727
20
223.2802583021
11
134.1458292966
21
221.1784166547
0
LINE
8
13000_TOP
62
7
6
CONTINUOUS
10
131.7446371712
20
46.8829362100
11
131.7446371712
21
58.7829362113
0
LINE
8
13000_TOP
62
7
6
CONTINUOUS
10
131.7446371712
20
59.8829362109
11
131.7446371712
21
77.8829362109
0
LINE
8
10000_FRONT
62
7
6
CONTINUOUS
10
131.7446371712
20
157.9807504817
11
131.7446371712
21
225.7807504817
0
LINE
8
13000_TOP
62
7
6
CONTINUOUS
10
132.4446371712
20
71.7229362109
11
132.4446371712
21
66.0912136599
0
LINE
8
13000_TOP
62
7
6
CONTINUOUS
10
132.4446371712
20
52.6731581373
11
132.4446371713
21
47.0429361959
0
LINE
8
10000_FRONT
62
7
6
CONTINUOUS
10
132.4446371712
20
226.6362534864
11
132.4446371701
21
234.6439606750
0
LINE
8
13000_TOP
62
7
6
CONTINUOUS
10
132.7405065972
20
53.1265084669
11
132.7405065972
21
54.2624323395
0
LINE
8
10000_FRONT
62
7
6
CONTINUOUS
10
133.2446371712
20
225.6807504817
11
133.2446371712
21
226.0853757969
0
LINE
8
10000_FRONT
62
7
6
CONTINUOUS
10
133.5049423229
20
160.1733057652
11
133.5049428315
21
160.7884030124
0
LINE
8
10000_FRONT
62
7
6
CONTINUOUS
10
133.5446371712
20
157.7807401781
11
133.5446371712
21
158.2807961731
0
LINE
8
10000_FRONT
62
7
6
CONTINUOUS
10
133.5446371712
20
162.6807047902
11
133.5446371712
21
165.2807809427
0
LINE
8
10000_FRONT
62
7
6
CONTINUOUS
10
133.7646371712
20
129.9007504817
11
133.7646371712
21
139.7007504817
0
LINE
8
10000_FRONT
62
7
6
CONTINUOUS
10
133.7646371712
20
139.8217826544
11
133.7646371712
21
163.4503692615
0
LINE
8
10000_FRONT
62
7
6
CONTINUOUS
10
134.6867906644
20
155.6908280133
11
134.6867906644
21
150.8706729501
0
LINE
8
10000_FRONT
62
7
6
CONTINUOUS
10
135.5867906646
20
163.0317204003
11
135.5867906646
21
156.8505785032
0
LINE
8
10000_FRONT
62
7
6
CONTINUOUS
10
135.5867906646
20
149.7109224603
11
135.5867906646
21
141.0376228373
0
LINE
8
10000_FRONT
62
7
6
CONTINUOUS
10
135.7246371712
20
165.4528223778
11
135.7246371712
21
165.5404468037
0
LINE
8
10000_FRONT
62
7
6
CONTINUOUS
10
135.7946371712
20
151.8007504817
11
135.7946371712
21
155.0007504817
0
LINE
8
10000_FRONT
62
7
6
CONTINUOUS
10
136.0446371712
20
155.0007504817
11
136.0446371712
21
158.0007504817
0
LINE
8
10000_FRONT
62
7
6
CONTINUOUS
10
136.3446371712
20
151.8007504817
11
136.3446371712
21
139.7007504817
0
LINE
8
10000_FRONT
62
7
6
CONTINUOUS
10
136.9446371712
20
165.5566351441
11
136.9446371712
21
158.6007504816
0
LINE
8
10000_FRONT
62
7
6
CONTINUOUS
10
137.7446371712
20
129.6007504817
11
137.7446371712
21
145.0007504817
0
LINE
8
10000_FRONT
62
7
6
CONTINUOUS
10
133.5049428315
20
160.7884030124
11
133.5077893660
21
161.3815844004
0
LINE
8
10000_FRONT
62
7
6
CONTINUOUS
10
133.5077893660
20
161.3815844004
11
133.5132817062
21
161.9105387902
0
LINE
8
10000_FRONT
62
7
6
CONTINUOUS
10
133.5446371712
20
165.2807809427
11
133.5448026557
21
165.2926533067
0
LINE
8
10000_FRONT
62
7
6
CONTINUOUS
10
133.5132817062
20
161.9105387902
11
133.5210327063
21
162.3373766727
0
LINE
8
10000_FRONT
62
7
6
CONTINUOUS
10
133.5210327063
20
162.3373766727
11
133.5304955360
21
162.6313056286
0
LINE
8
10000_FRONT
62
7
6
CONTINUOUS
10
133.5448026557
20
165.2926533067
11
133.5450813041
21
165.2999955489
0
LINE
8
10000_FRONT
62
7
6
CONTINUOUS
10
135.5867906646
20
163.0317204003
11
135.6071264044
21
163.5617867882
0
LINE
8
10000_FRONT
62
7
6
CONTINUOUS
10
133.5450813041
20
165.2999955489
11
133.5453982992
21
165.3063759245
0
LINE
8
10000_FRONT
62
7
6
CONTINUOUS
10
133.5453982992
20
165.3063759245
11
133.5457612339
21
165.3117987290
0
LINE
8
10000_FRONT
62
7
6
CONTINUOUS
10
142.1873580130
20
231.4431850160
11
142.1690606267
21
231.1807504817
0
LINE
8
10000_FRONT
62
7
6
CONTINUOUS
10
133.5457612339
20
165.3117987290
11
133.5461275354
21
165.3166323685
0
LINE
8
10000_FRONT
62
7
6
CONTINUOUS
10
133.5461275354
20
165.3166323685
11
133.5464446397
21
165.3204477781
0
LINE
8
10000_FRONT
62
7
6
CONTINUOUS
10
133.5464446397
20
165.3204477781
11
133.5467032487
21
165.3233081562
0
LINE
8
10000_FRONT
62
7
6
CONTINUOUS
10
133.5467032487
20
165.3233081562
11
133.5469260175
21
165.3256246667
0
LINE
8
10000_FRONT
62
7
6
CONTINUOUS
10
133.5471159310
20
165.3275153388
11
133.5472765570
21
165.3290653985
0
LINE
8
10000_FRONT
62
7
6
CONTINUOUS
10
133.5474118353
20
165.3303391168
11
133.5475258727
21
165.3313913636
0
LINE
8
10000_FRONT
62
7
6
CONTINUOUS
10
133.5477071048
20
165.3330254038
11
133.5477828946
21
165.3336954595
0
LINE
8
10000_FRONT
62
7
6
CONTINUOUS
10
133.5480033233
20
165.3356025854
11
133.5480891920
21
165.3363295997
0
LINE
8
10000_FRONT
62
7
6
CONTINUOUS
10
133.5483062757
20
165.3381305968
11
133.5484465295
21
165.3392678502
0
LINE
8
10000_FRONT
62
7
6
CONTINUOUS
10
133.5486140232
20
165.3406010292
11
133.5488134002
21
165.3421547845
0
LINE
8
10000_FRONT
62
7
6
CONTINUOUS
10
133.5490493753
20
165.3439497471
11
133.5493267315
21
165.3460027192
0
LINE
8
10000_FRONT
62
7
6
CONTINUOUS
10
134.6867906661
20
155.6908280089
11
134.7024916604
21
155.8020807363
0
LINE
8
10000_FRONT
62
7
6
CONTINUOUS
10
135.5710293287
20
156.7395734501
11
135.5867906649
21
156.8505785026
0
LINE
8
10000_FRONT
62
7
6
CONTINUOUS
10
133.5496503149
20
165.3483269337
11
133.5500250207
21
165.3509328618
0
LINE
8
10000_FRONT
62
7
6
CONTINUOUS
10
140.6209126195
20
226.2835429180
11
140.6253398195
21
226.3133314423
0
LINE
8
10000_FRONT
62
7
6
CONTINUOUS
10
133.5500250207
20
165.3509328618
11
133.5504557922
21
165.3538282819
0
LINE
8
10000_FRONT
62
7
6
CONTINUOUS
10
133.5504557922
20
165.3538282819
11
133.5509476697
21
165.3570154910
0
LINE
8
10000_FRONT
62
7
6
CONTINUOUS
10
133.5509476697
20
165.3570154910
11
133.5515057372
21
165.3604943356
0
LINE
8
10000_FRONT
62
7
6
CONTINUOUS
10
136.8705001499
20
224.3573475544
11
136.8940589276
21
224.5029149397
0
LINE
8
10000_FRONT
62
7
6
CONTINUOUS
10
133.5515057372
20
165.3604943356
11
133.5521350976
21
165.3642636024
0
LINE
8
10000_FRONT
62
7
6
CONTINUOUS
10
133.5521350976
20
165.3642636024
11
133.5528409039
21
165.3683192369
0
LINE
8
10000_FRONT
62
7
6
CONTINUOUS
10
133.5528409039
20
165.3683192369
11
133.5536283047
21
165.3726574612
0
LINE
8
10000_FRONT
62
7
6
CONTINUOUS
10
133.5536283047
20
165.3726574612
11
133.5545025341
21
165.3772696556
0
LINE
8
10000_FRONT
62
7
6
CONTINUOUS
10
133.7646371717
20
163.4503849552
11
133.7860424127
21
163.5616548479
0
LINE
8
10000_FRONT
62
7
6
CONTINUOUS
10
133.5545025341
20
165.3772696556
11
133.5554688432
21
165.3821462643
0
LINE
8
10000_FRONT
62
7
6
CONTINUOUS
10
135.5867906644
20
141.0376228376
11
135.5639399688
21
140.9228425031
0
LINE
8
10000_FRONT
62
7
6
CONTINUOUS
10
133.5216455198
20
157.6655814005
11
133.5446371515
21
157.7806405900
0
LINE
8
10000_FRONT
62
7
6
CONTINUOUS
10
133.5554688432
20
165.3821462643
11
133.5565324090
21
165.3872818878
0
LINE
8
10000_FRONT
62
7
6
CONTINUOUS
10
142.2445936381
20
231.7126217893
11
142.1873580130
21
231.4431850160
0
LINE
8
10000_FRONT
62
7
6
CONTINUOUS
10
153.5598959059
20
230.6481315500
11
153.6173025077
21
230.9180086682
0
LINE
8
10000_FRONT
62
7
6
CONTINUOUS
10
133.5565324090
20
165.3872818878
11
133.5576984494
21
165.3926688442
0
LINE
8
10000_FRONT
62
7
6
CONTINUOUS
10
136.9446371712
20
164.1150433137
11
136.9667857666
21
164.2130174545
0
LINE
8
10000_FRONT
62
7
6
CONTINUOUS
10
133.5576984494
20
165.3926688442
11
133.5589722499
21
165.3982956175
0
LINE
8
10000_FRONT
62
7
6
CONTINUOUS
10
136.9674733114
20
164.9475466097
11
136.9446371712
21
164.8481225375
0
LINE
8
10000_FRONT
62
7
6
CONTINUOUS
10
133.5589722499
20
165.3982956175
11
133.5603590423
21
165.4041537357
0
LINE
8
10000_FRONT
62
7
6
CONTINUOUS
10
133.5603590423
20
165.4041537357
11
133.5618641084
21
165.4102319067
0
LINE
8
10000_FRONT
62
7
6
CONTINUOUS
10
133.5618641084
20
165.4102319067
11
133.5634926948
21
165.4165208191
0
LINE
8
10000_FRONT
62
7
6
CONTINUOUS
10
133.5634926948
20
165.4165208191
11
133.5652500884
21
165.4230088984
0
LINE
8
10000_FRONT
62
7
6
CONTINUOUS
10
133.5652500884
20
165.4230088984
11
133.5671415616
21
165.4296853669
0
LINE
8
10000_FRONT
62
7
6
CONTINUOUS
10
133.5304955360
20
162.6313056286
11
133.5446371712
21
162.6807047902
0
LINE
8
10000_FRONT
62
7
6
CONTINUOUS
10
133.5671415616
20
165.4296853669
11
133.5691723920
21
165.4365391816
0
LINE
8
10000_FRONT
62
7
6
CONTINUOUS
10
133.5691723920
20
165.4365391816
11
133.5713478851
21
165.4435577056
0
LINE
8
10000_FRONT
62
7
6
CONTINUOUS
10
133.5713478851
20
165.4435577056
11
133.5736733912
21
165.4507257950
0
LINE
8
10000_FRONT
62
7
6
CONTINUOUS
10
153.4584252810
20
230.3697064560
11
153.5598959059
21
230.6481315500
0
LINE
8
10000_FRONT
62
7
6
CONTINUOUS
10
134.7024916604
20
155.8020807363
11
134.7484087612
21
155.9045021507
0
LINE
8
10000_FRONT
62
7
6
CONTINUOUS
10
144.4363852460
20
179.9377666878
11
145.4175803192
21
181.7476775435
0
LINE
8
10000_FRONT
62
7
6
CONTINUOUS
10
133.5736733912
20
165.4507257950
11
133.5749026262
21
165.4528223778
0
LINE
8
10000_FRONT
62
7
6
CONTINUOUS
10
133.7860424127
20
163.5616548479
11
133.8465149514
21
163.6563348193
0
LINE
8
10000_FRONT
62
7
6
CONTINUOUS
10
142.8151473858
20
199.4571010933
11
145.5277345788
21
200.7724216476
0
LINE
8
10000_FRONT
62
7
6
CONTINUOUS
10
148.2876704065
20
200.2566552894
11
145.2967832852
21
198.8063884310
0
LINE
8
13000_TOP
62
7
6
CONTINUOUS
10
142.4360068792
20
54.3572080079
11
142.1603682432
21
54.2958204336
0
LINE
8
13000_TOP
62
7
6
CONTINUOUS
10
132.9446371712
20
53.1731093993
11
132.7532954550
21
53.1350528755
0
LINE
8
13000_TOP
62
7
6
CONTINUOUS
10
137.3091036240
20
55.2870667849
11
137.4233517415
21
55.3096710861
0
LINE
8
13000_TOP
62
7
6
CONTINUOUS
10
133.7839165515
20
55.2870667844
11
133.6328223272
21
55.2677245450
0
LINE
8
13000_TOP
62
7
6
CONTINUOUS
10
141.4374984135
20
54.4676114284
11
141.2728092659
21
54.4474023842
0
LINE
8
13000_TOP
62
7
6
CONTINUOUS
10
137.7690984795
20
67.2591693507
11
135.8177748864
21
67.0298552103
0
LINE
8
13000_TOP
62
7
6
CONTINUOUS
10
139.6116638608
20
67.4682456921
11
137.7690984795
21
67.2591693507
0
LINE
8
13000_TOP
62
7
6
CONTINUOUS
10
135.8177748864
20
67.0298552103
11
133.6868457770
21
66.7895008200
0
LINE
8
13000_TOP
62
7
6
CONTINUOUS
10
141.5024727664
20
67.6557321445
11
139.6116638608
21
67.4682456921
0
LINE
8
13000_TOP
62
7
6
CONTINUOUS
10
145.2820304076
20
63.2825137967
11
144.7864464175
21
63.2384467047
0
LINE
8
13000_TOP
62
7
6
CONTINUOUS
10
132.5605796235
20
66.7713051280
11
132.6958455813
21
66.7820429216
0
LINE
8
13000_TOP
62
7
6
CONTINUOUS
10
143.4378895801
20
67.7927401208
11
141.5024727664
21
67.6557321445
0
LINE
8
13000_TOP
62
7
6
CONTINUOUS
10
148.4064565774
20
65.0319021875
11
148.5446442337
21
65.0411683115
0
LINE
8
13000_TOP
62
7
6
CONTINUOUS
10
132.6958455813
20
66.7820429216
11
132.8653320269
21
66.7877131311
0
LINE
8
13000_TOP
62
7
6
CONTINUOUS
10
141.8852322430
20
64.7185140420
11
141.7442559312
21
64.7139185166
0
LINE
8
13000_TOP
62
7
6
CONTINUOUS
10
145.4446371714
20
67.8456015484
11
143.4378895801
21
67.7927401208
0
LINE
8
13000_TOP
62
7
6
CONTINUOUS
10
133.6868457770
20
66.7895008200
11
132.8653320259
21
66.7877131320
0
LINE
8
13000_TOP
62
7
6
CONTINUOUS
10
157.9446371712
20
72.2229362109
11
132.9446371712
21
72.2229362109
0
LINE
8
13000_TOP
62
7
6
CONTINUOUS
10
132.2446371712
20
73.1829362109
11
158.6446371712
21
73.1829362109
0
LINE
8
13000_TOP
62
7
6
CONTINUOUS
10
148.0915198494
20
76.4049641555
11
142.7977452583
21
76.4049641555
0
LINE
8
13000_TOP
62
7
6
CONTINUOUS
10
138.0428430866
20
65.5903994660
11
132.9445573208
21
65.5912136663
0
LINE
8
13000_TOP
62
7
6
CONTINUOUS
10
138.0429229370
20
65.5904481976
11
132.9446371712
21
65.5912623979
0
LINE
8
13000_TOP
62
7
6
CONTINUOUS
10
143.0615851130
20
73.1829362109
11
142.9848532152
21
73.1876871072
0
LINE
8
13000_TOP
62
7
6
CONTINUOUS
10
148.6742815283
20
78.3829362109
11
149.7917066741
21
78.1835330005
0
LINE
8
13000_TOP
62
7
6
CONTINUOUS
10
152.6723982339
20
75.4273995897
11
153.3692766853
21
73.9555076395
0
LINE
8
10000_FRONT
62
7
6
CONTINUOUS
10
133.7246029788
20
157.0958857539
11
133.7593643330
21
156.9630928844
0
LINE
8
10000_FRONT
62
7
6
CONTINUOUS
10
133.5328191177
20
158.2965710066
11
133.5340187573
21
158.2914145871
0
LINE
8
13000_TOP
62
7
6
CONTINUOUS
10
145.8752866054
20
63.0975601821
11
145.3752082627
21
65.4502438101
0
LINE
8
13000_TOP
62
7
6
CONTINUOUS
10
144.3865903372
20
54.2308896012
11
144.4469682113
21
53.9372713570
0
LINE
8
10000_FRONT
62
7
6
CONTINUOUS
10
133.7888743042
20
140.9153146794
11
133.7646371712
21
141.0334337752
0
LINE
8
13000_TOP
62
7
6
CONTINUOUS
10
142.7202280870
20
73.3820428448
11
142.7104035033
21
73.4501395465
0
LINE
8
10000_FRONT
62
7
6
CONTINUOUS
10
135.5867906629
20
149.7109224748
11
135.5710293287
21
149.8219275007
0
LINE
8
10000_FRONT
62
7
6
CONTINUOUS
10
134.7024916567
20
150.7594202425
11
134.6867906673
21
150.8706729575
0
LINE
8
10000_FRONT
62
7
6
CONTINUOUS
10
133.6863826117
20
235.2677305098
11
133.6868407440
21
235.2633800301
0
LINE
8
10000_FRONT
62
7
6
CONTINUOUS
10
142.9404411900
20
164.8914236557
11
142.9427653562
21
164.8675506357
0
LINE
8
10000_FRONT
62
7
6
CONTINUOUS
10
147.9473957407
20
162.8211869402
11
147.9446371712
21
162.8581293915
0
LINE
8
10000_FRONT
62
7
6
CONTINUOUS
10
142.1690606267
20
231.1807504817
11
142.1873658188
21
230.9182600430
0
LINE
8
10000_FRONT
62
7
6
CONTINUOUS
10
143.5476118166
20
163.8496184944
11
143.5397035506
21
163.9782294272
0
LINE
8
10000_FRONT
62
7
6
CONTINUOUS
10
142.9427653562
20
164.8675506357
11
142.9441671823
21
164.8434836621
0
LINE
8
13000_TOP
62
7
6
CONTINUOUS
10
144.2863149371
20
56.1442701283
11
144.3865909597
21
54.2308896338
0
LINE
8
10000_FRONT
62
7
6
CONTINUOUS
10
143.5398821942
20
163.9666298239
11
143.5351652636
21
164.0886526024
0
LINE
8
10000_FRONT
62
7
6
CONTINUOUS
10
143.5397035506
20
163.9782294272
11
143.5349870612
21
164.1002407919
0
LINE
8
13000_TOP
62
7
6
CONTINUOUS
10
146.7127313150
20
63.3157793528
11
146.6929249288
21
63.8829600447
0
LINE
8
10000_FRONT
62
7
6
CONTINUOUS
10
143.5351652664
20
164.0886525283
11
143.5350488535
21
164.0922109310
0
LINE
8
10000_FRONT
62
7
6
CONTINUOUS
10
142.9441671823
20
164.8434836621
11
142.9446371712
21
164.8192549821
0
LINE
8
10000_FRONT
62
7
6
CONTINUOUS
10
143.5350488535
20
164.0922109310
11
143.5349560529
21
164.0972726819
0
LINE
8
10000_FRONT
62
7
6
CONTINUOUS
10
143.5349486818
20
164.1023353487
11
143.5351652664
21
164.0886525283
0
LINE
8
10000_FRONT
62
7
6
CONTINUOUS
10
143.5398811757
20
163.9666562059
11
143.5397039918
21
163.9782180135
0
LINE
8
13000_TOP
62
7
6
CONTINUOUS
10
140.2099444587
20
59.3829362109
11
140.2052050979
21
59.7223458682
0
LINE
8
13000_TOP
62
7
6
CONTINUOUS
10
148.1443739860
20
75.9206340978
11
148.1788708391
21
73.4501395465
0
LINE
8
10000_FRONT
62
7
6
CONTINUOUS
10
147.3465443025
20
165.2092281575
11
147.3542872811
21
164.1002407919
0
LINE
8
10000_FRONT
62
7
6
CONTINUOUS
10
147.3465950258
20
165.2095547686
11
147.3543256606
21
164.1023353487
0
LINE
8
10000_FRONT
62
7
6
CONTINUOUS
10
143.5349560529
20
164.0972726819
11
143.5349486818
21
164.1023353487
0
LINE
8
10000_FRONT
62
7
6
CONTINUOUS
10
138.8646371712
20
129.6007504817
11
138.8646371712
21
145.0007504817
0
LINE
8
10000_FRONT
62
7
6
CONTINUOUS
10
139.3246371712
20
128.3007504817
11
139.3246371712
21
129.3007504817
0
LINE
8
10000_FRONT
62
7
6
CONTINUOUS
10
139.7846371712
20
129.6007504817
11
139.7846371712
21
145.0007504817
0
LINE
8
10000_FRONT
62
7
6
CONTINUOUS
10
140.3555815152
20
217.4207504817
11
140.3555815152
21
176.9807504817
0
LINE
8
10000_FRONT
62
7
6
CONTINUOUS
10
140.9046371712
20
129.6007504817
11
140.9046371712
21
145.0007504817
0
LINE
8
10000_FRONT
62
7
6
CONTINUOUS
10
141.8246371712
20
129.6007504817
11
141.8246371712
21
145.0007504817
0
LINE
8
10000_FRONT
62
7
6
CONTINUOUS
10
142.6446372082
20
162.1185313087
11
142.6446371712
21
165.5620290789
0
LINE
8
10000_FRONT
62
7
6
CONTINUOUS
10
142.7024088961
20
202.0783156913
11
142.7024088961
21
201.3523811675
0
LINE
8
10000_FRONT
62
7
6
CONTINUOUS
10
142.7024088961
20
188.5399704533
11
142.7024088961
21
187.8140359294
0
LINE
8
10000_FRONT
62
7
6
CONTINUOUS
10
142.7024088961
20
183.7715240247
11
142.7024088961
21
185.2497071448
0
LINE
8
10000_FRONT
62
7
6
CONTINUOUS
10
142.7024088961
20
189.8895537866
11
142.7024088961
21
193.7219823580
0
LINE
8
10000_FRONT
62
7
6
CONTINUOUS
10
142.7024088961
20
195.4242680723
11
142.7024088961
21
196.6249942627
0
LINE
8
10000_FRONT
62
7
6
CONTINUOUS
10
142.7024088961
20
198.5030937813
11
142.7024088961
21
199.2771415734
0
LINE
8
10000_FRONT
62
7
6
CONTINUOUS
10
142.7024088961
20
203.4278990247
11
142.7024088961
21
207.2603275961
0
LINE
8
10000_FRONT
62
7
6
CONTINUOUS
10
142.7431053247
20
208.9626133104
11
142.7431053247
21
210.1633395009
0
LINE
8
10000_FRONT
62
7
6
CONTINUOUS
10
142.9446371712
20
164.8192549821
11
142.9446371712
21
162.8581293915
0
LINE
8
10000_FRONT
62
7
6
CONTINUOUS
10
142.9446371712
20
159.5733579314
11
142.9446371712
21
149.8007504817
0
LINE
8
10000_FRONT
62
7
6
CONTINUOUS
10
142.9446371712
20
129.6007504817
11
142.9446371712
21
145.0007504817
0
LINE
8
10000_FRONT
62
7
6
CONTINUOUS
10
143.7469505628
20
205.6596014056
11
143.7469505628
21
203.4278990247
0
LINE
8
10000_FRONT
62
7
6
CONTINUOUS
10
143.7469505628
20
192.1212561675
11
143.7469505628
21
189.8895537866
0
LINE
8
10000_FRONT
62
7
6
CONTINUOUS
10
143.8646371712
20
129.6007504817
11
143.8646371712
21
145.0007504817
0
LINE
8
10000_FRONT
62
7
6
CONTINUOUS
10
143.9446371712
20
158.0945401594
11
143.9446371712
21
156.0945401594
0
LINE
8
10000_FRONT
62
7
6
CONTINUOUS
10
143.9446371712
20
149.8007504817
11
143.9446371712
21
151.8328012893
0
LINE
8
10000_FRONT
62
7
6
CONTINUOUS
10
143.9446371712
20
161.0371141181
11
143.9446371712
21
163.5807504817
0
LINE
8
10000_FRONT
62
7
6
CONTINUOUS
10
144.2446371712
20
161.4468587758
11
144.2446371712
21
163.5807504817
0
LINE
8
10000_FRONT
62
7
6
CONTINUOUS
10
144.9846371712
20
129.6007504817
11
144.9846371712
21
145.0007504817
0
LINE
8
10000_FRONT
62
7
6
CONTINUOUS
10
145.2120219913
20
190.2558216437
11
145.2120219913
21
192.1212561675
0
LINE
8
10000_FRONT
62
7
6
CONTINUOUS
10
145.2120219913
20
203.7941668818
11
145.2120219913
21
205.6596014056
0
LINE
8
10000_FRONT
62
7
6
CONTINUOUS
10
145.9046371712
20
129.6007504817
11
145.9046371712
21
145.0007504817
0
LINE
8
10000_FRONT
62
7
6
CONTINUOUS
10
146.0666469913
20
205.6596014056
11
146.0666469913
21
203.7941668818
0
LINE
8
10000_FRONT
62
7
6
CONTINUOUS
10
146.0666469913
20
192.1212561675
11
146.0666469913
21
190.2558216437
0
LINE
8
10000_FRONT
62
7
6
CONTINUOUS
10
146.6446371712
20
163.5807504817
11
146.6446371712
21
161.4468587758
0
LINE
8
10000_FRONT
62
7
6
CONTINUOUS
10
146.9446371712
20
163.5807504817
11
146.9446371712
21
161.0371141181
0
LINE
8
10000_FRONT
62
7
6
CONTINUOUS
10
146.9446371712
20
158.0945401594
11
146.9446371712
21
156.0945401594
0
LINE
8
10000_FRONT
62
7
6
CONTINUOUS
10
146.9446371712
20
151.8328012893
11
146.9446371712
21
149.8007504817
0
LINE
8
10000_FRONT
62
7
6
CONTINUOUS
10
147.0246371712
20
129.6007504817
11
147.0246371712
21
145.0007504817
0
LINE
8
10000_FRONT
62
7
6
CONTINUOUS
10
147.4503255628
20
189.8895537866
11
147.4503255628
21
192.1212561675
0
LINE
8
10000_FRONT
62
7
6
CONTINUOUS
10
147.4503255628
20
203.4278990247
11
147.4503255628
21
205.6596014056
0
LINE
8
10000_FRONT
62
7
6
CONTINUOUS
10
147.9446371712
20
164.8192550241
11
147.9446371712
21
162.8581294843
0
LINE
8
10000_FRONT
62
7
6
CONTINUOUS
10
147.9446371712
20
129.6007504817
11
147.9446371712
21
145.0007504817
0
LINE
8
10000_FRONT
62
7
6
CONTINUOUS
10
147.9446371712
20
149.8007504817
11
147.9446371712
21
159.5733579314
0
LINE
8
10000_FRONT
62
7
6
CONTINUOUS
10
148.2446371712
20
165.5620290789
11
148.2446371347
21
162.1185313083
0
LINE
8
10000_FRONT
62
7
6
CONTINUOUS
10
148.3727779437
20
210.1633395009
11
148.3727779437
21
208.9626133104
0
LINE
8
10000_FRONT
62
7
6
CONTINUOUS
10
148.4004088961
20
207.2603275961
11
148.4004088961
21
203.4278990247
0
LINE
8
10000_FRONT
62
7
6
CONTINUOUS
10
148.4004088961
20
202.0783156913
11
148.4004088961
21
200.4366148093
0
LINE
8
10000_FRONT
62
7
6
CONTINUOUS
10
148.4004088961
20
196.9782340299
11
148.4004088961
21
195.4242680723
0
LINE
8
10000_FRONT
62
7
6
CONTINUOUS
10
148.4004088961
20
193.7219823580
11
148.4004088961
21
189.8895537866
0
LINE
8
10000_FRONT
62
7
6
CONTINUOUS
10
148.4004088961
20
188.5399704533
11
148.4004088961
21
187.0602736621
0
LINE
8
10000_FRONT
62
7
6
CONTINUOUS
10
148.4004088961
20
184.4974585485
11
148.4004088961
21
183.7715240247
0
LINE
8
10000_FRONT
62
7
6
CONTINUOUS
10
149.0646371712
20
129.6007504817
11
149.0646371712
21
145.0007504817
0
LINE
8
10000_FRONT
62
7
6
CONTINUOUS
10
149.9846371712
20
129.6007504817
11
149.9846371712
21
145.0007504817
0
LINE
8
10000_FRONT
62
7
6
CONTINUOUS
10
151.1046371712
20
129.6007504817
11
151.1046371712
21
145.0007504817
0
LINE
8
10000_FRONT
62
7
6
CONTINUOUS
10
151.2955815152
20
176.9807504817
11
151.2955815152
21
217.4207504817
0
LINE
8
10000_FRONT
62
7
6
CONTINUOUS
10
151.5446371712
20
225.1807507372
11
151.5446371712
21
224.1087395168
0
LINE
8
10000_FRONT
62
7
6
CONTINUOUS
10
151.5646371712
20
128.3007504817
11
151.5646371712
21
129.3007504817
0
LINE
8
10000_FRONT
62
7
6
CONTINUOUS
10
152.0246371712
20
129.6007504817
11
152.0246371712
21
145.0007504817
0
LINE
8
10000_FRONT
62
7
6
CONTINUOUS
10
153.1446371712
20
129.6007504817
11
153.1446371712
21
145.0007504817
0
LINE
8
10000_FRONT
62
7
6
CONTINUOUS
10
147.3543256605
20
164.1023353541
11
147.3543242522
21
164.0979534015
0
LINE
8
10000_FRONT
62
7
6
CONTINUOUS
10
143.5349486818
20
164.1023353487
11
143.5426789945
21
165.2095086367
0
LINE
8
10000_FRONT
62
7
6
CONTINUOUS
10
143.5349870612
20
164.1002407919
11
143.5427297230
21
165.2091827801
0
LINE
8
13000_TOP
62
7
6
CONTINUOUS
10
142.7104035033
20
73.4501395465
11
142.7449003564
21
75.9206340978
0
LINE
8
13000_TOP
62
7
6
CONTINUOUS
10
150.6793298837
20
59.3829362109
11
150.6840691982
21
59.7223425516
0
LINE
8
10000_FRONT
62
7
6
CONTINUOUS
10
147.3495703506
20
163.9782180146
11
147.3493928121
21
163.9666470134
0
LINE
8
10000_FRONT
62
7
6
CONTINUOUS
10
147.3541090788
20
164.0886526024
11
147.3542872811
21
164.1002407919
0
LINE
8
10000_FRONT
62
7
6
CONTINUOUS
10
147.3543242522
20
164.0979534015
11
147.3542527228
21
164.0933022450
0
LINE
8
10000_FRONT
62
7
6
CONTINUOUS
10
147.9446371712
20
164.8192550241
11
147.9451071639
21
164.8434836670
0
LINE
8
10000_FRONT
62
7
6
CONTINUOUS
10
147.3542527228
20
164.0933022450
11
147.3541090788
21
164.0886526024
0
LINE
8
13000_TOP
62
7
6
CONTINUOUS
10
144.1054246916
20
62.9045731051
11
144.1905486335
21
65.3422038640
0
LINE
8
10000_FRONT
62
7
6
CONTINUOUS
10
147.3542872811
20
164.1002407919
11
147.3495710510
21
163.9782361345
0
LINE
8
10000_FRONT
62
7
6
CONTINUOUS
10
147.3541090788
20
164.0886526024
11
147.3493921483
21
163.9666298250
0
LINE
8
10000_FRONT
62
7
6
CONTINUOUS
10
147.3475425628
20
163.9247678330
11
147.3493909194
21
163.9666521280
0
LINE
8
10000_FRONT
62
7
6
CONTINUOUS
10
147.9451071639
20
164.8434836670
11
147.9465089930
21
164.8675506259
0
LINE
8
10000_FRONT
62
7
6
CONTINUOUS
10
147.3456103151
20
163.8922481596
11
147.3475425628
21
163.9247678330
0
LINE
8
10000_FRONT
62
7
6
CONTINUOUS
10
153.6173025077
20
230.9180086682
11
153.6356428342
21
231.1807504817
0
LINE
8
10000_FRONT
62
7
6
CONTINUOUS
10
142.9446371712
20
162.8581293915
11
142.9418821566
21
162.8212138736
0
LINE
8
10000_FRONT
62
7
6
CONTINUOUS
10
147.3432515759
20
163.8645923275
11
147.3456103151
21
163.8922481596
0
LINE
8
10000_FRONT
62
7
6
CONTINUOUS
10
147.9465089930
20
164.8675506259
11
147.9488331820
21
164.8914238077
0
LINE
8
13000_TOP
62
7
6
CONTINUOUS
10
132.7620877111
20
54.4218802111
11
132.7405065973
21
54.2624323393
0
LINE
8
10000_FRONT
62
7
6
CONTINUOUS
10
147.3389392034
20
163.8333937336
11
147.3432515759
21
163.8645923275
0
LINE
8
10000_FRONT
62
7
6
CONTINUOUS
10
147.3465950258
20
165.2095547686
11
147.3627418341
21
165.3135253455
0
LINE
8
10000_FRONT
62
7
6
CONTINUOUS
10
143.9693611906
20
151.9705216096
11
143.9446371712
21
151.8328012893
0
LINE
8
10000_FRONT
62
7
6
CONTINUOUS
10
142.9418821566
20
162.8212138736
11
142.9336255342
21
162.7764426719
0
LINE
8
10000_FRONT
62
7
6
CONTINUOUS
10
142.9446371712
20
159.5733579314
11
142.9679009076
21
159.6905155379
0
LINE
8
10000_FRONT
62
7
6
CONTINUOUS
10
153.8446371710
20
221.1807047904
11
153.8218043509
21
221.0659056649
0
LINE
8
13000_TOP
62
7
6
CONTINUOUS
10
132.4826974049
20
52.8644812022
11
132.4446371712
21
52.6731581373
0
LINE
8
10000_FRONT
62
7
6
CONTINUOUS
10
158.4053900465
20
226.4416787347
11
158.4446371712
21
226.6358530285
0
LINE
8
10000_FRONT
62
7
6
CONTINUOUS
10
158.4446371712
20
226.6366539443
11
158.4043896197
21
226.4402005526
0
LINE
8
10000_FRONT
62
7
6
CONTINUOUS
10
147.9446371712
20
164.1150433137
11
147.9667857666
21
164.2130174545
0
LINE
8
10000_FRONT
62
7
6
CONTINUOUS
10
146.6446371712
20
162.4298772191
11
146.6667857931
21
162.5225485040
0
LINE
8
10000_FRONT
62
7
6
CONTINUOUS
10
147.9446371712
20
163.4949445991
11
147.9224885487
21
163.4022732694
0
LINE
8
10000_FRONT
62
7
6
CONTINUOUS
10
146.6674733114
20
163.0974962667
11
146.6446371712
21
163.0034534919
0
LINE
8
10000_FRONT
62
7
6
CONTINUOUS
10
147.9218010309
20
162.8273255074
11
147.9301361148
21
162.8616506444
0
LINE
8
10000_FRONT
62
7
6
CONTINUOUS
10
144.2446371712
20
161.4468587758
11
144.2248915076
21
161.3694907162
0
LINE
8
10000_FRONT
62
7
6
CONTINUOUS
10
147.3263777578
20
163.7845976071
11
147.3389392034
21
163.8333937336
0
LINE
8
10000_FRONT
62
7
6
CONTINUOUS
10
142.9336255342
20
162.7764426719
11
142.9200997514
21
162.7247299884
0
LINE
8
10000_FRONT
62
7
6
CONTINUOUS
10
142.9200997514
20
162.7247299884
11
142.9016329447
21
162.6668645634
0
LINE
8
10000_FRONT
62
7
6
CONTINUOUS
10
144.2446371712
20
162.2906040930
11
144.2224885493
21
162.2257149608
0
LINE
8
10000_FRONT
62
7
6
CONTINUOUS
10
153.9446371712
20
163.6831626832
11
153.9224885758
21
163.6182734738
0
LINE
8
10000_FRONT
62
7
6
CONTINUOUS
10
142.9674733114
20
164.0786930445
11
142.9446371712
21
164.0128435846
0
LINE
8
10000_FRONT
62
7
6
CONTINUOUS
10
142.9446371712
20
163.6831626025
11
142.9218010309
21
163.6173132230
0
LINE
8
10000_FRONT
62
7
6
CONTINUOUS
10
153.9218010309
20
161.1658351019
11
153.9446371712
21
161.2316845608
0
LINE
8
10000_FRONT
62
7
6
CONTINUOUS
10
142.9016329447
20
162.6668645634
11
142.8785699762
21
162.6035859199
0
LINE
8
10000_FRONT
62
7
6
CONTINUOUS
10
142.8785699762
20
162.6035859199
11
142.8510755438
21
162.5351858116
0
LINE
8
10000_FRONT
62
7
6
CONTINUOUS
10
142.8510755438
20
162.5351858116
11
142.8191605024
21
162.4617372065
0
LINE
8
10000_FRONT
62
7
6
CONTINUOUS
10
135.5250661037
20
156.6372991217
11
135.5710293287
21
156.7395734501
0
LINE
8
10000_FRONT
62
7
6
CONTINUOUS
10
142.8191605024
20
162.4617372065
11
142.7827742120
21
162.3833341758
0
LINE
8
10000_FRONT
62
7
6
CONTINUOUS
10
147.2939271471
20
163.7179076554
11
147.3263777578
21
163.7845976071
0
LINE
8
10000_FRONT
62
7
6
CONTINUOUS
10
148.0031567454
20
165.0022828533
11
147.9488331820
21
164.8914238077
0
LINE
8
10000_FRONT
62
7
6
CONTINUOUS
10
142.7827742120
20
162.3833341758
11
142.7417220775
21
162.2999239004
0
LINE
8
10000_FRONT
62
7
6
CONTINUOUS
10
147.3627418341
20
165.3135253455
11
147.4199260846
21
165.4270080702
0
LINE
8
10000_FRONT
62
7
6
CONTINUOUS
10
142.7417220775
20
162.2999239004
11
142.6957565608
21
162.2115513939
0
LINE
8
10000_FRONT
62
7
6
CONTINUOUS
10
146.7484974585
20
180.9109004090
11
145.7212953507
21
179.0161250512
0
LINE
8
10000_FRONT
62
7
6
CONTINUOUS
10
142.6957565608
20
162.2115513939
11
142.6446372082
21
162.1185312756
0
LINE
8
10000_FRONT
62
7
6
CONTINUOUS
10
144.2248915076
20
161.3694907162
11
144.1719232023
21
161.2754201990
0
LINE
8
10000_FRONT
62
7
6
CONTINUOUS
10
144.0335532337
20
152.0789491517
11
143.9693611906
21
151.9705216096
0
LINE
8
10000_FRONT
62
7
6
CONTINUOUS
10
142.9679009076
20
159.6905155379
11
143.0332550562
21
159.7886736075
0
LINE
8
10000_FRONT
62
7
6
CONTINUOUS
10
135.5639399688
20
140.9228425031
11
135.4989105920
21
140.8255321528
0
LINE
8
10000_FRONT
62
7
6
CONTINUOUS
10
133.4567219498
20
157.5685858397
11
133.5216455198
21
157.6655814005
0
LINE
8
10000_FRONT
62
7
6
CONTINUOUS
10
136.9667857666
20
164.2130174545
11
137.0291812839
21
164.2958305973
0
LINE
8
10000_FRONT
62
7
6
CONTINUOUS
10
147.9667857666
20
164.2130174545
11
148.0291812839
21
164.2958305973
0
LINE
8
10000_FRONT
62
7
6
CONTINUOUS
10
137.0325051368
20
165.0318342682
11
136.9674733114
21
164.9475466097
0
LINE
8
10000_FRONT
62
7
6
CONTINUOUS
10
144.1719232023
20
161.2754201990
11
144.0811569794
21
161.1607230338
0
LINE
8
10000_FRONT
62
7
6
CONTINUOUS
10
146.6667857931
20
162.5225485040
11
146.7291813179
21
162.6008793864
0
LINE
8
10000_FRONT
62
7
6
CONTINUOUS
10
147.9224885487
20
163.4022732694
11
147.8600930235
21
163.3239423874
0
LINE
8
10000_FRONT
62
7
6
CONTINUOUS
10
146.7325051368
20
163.1772218815
11
146.6674733114
21
163.0974962667
0
LINE
8
10000_FRONT
62
7
6
CONTINUOUS
10
147.8567692055
20
162.7475998926
11
147.9218010309
21
162.8273255074
0
LINE
8
10000_FRONT
62
7
6
CONTINUOUS
10
134.7484087612
20
155.9045021507
11
134.8208872336
21
155.9900602274
0
LINE
8
10000_FRONT
62
7
6
CONTINUOUS
10
135.4525148863
20
156.5517944651
11
135.5250661037
21
156.6372991217
0
LINE
8
10000_FRONT
62
7
6
CONTINUOUS
10
147.2383761763
20
163.6540813594
11
147.2939271471
21
163.7179076554
0
LINE
8
10000_FRONT
62
7
6
CONTINUOUS
10
148.3062834294
20
186.8905957814
11
145.3839497111
21
185.0671364292
0
LINE
8
10000_FRONT
62
7
6
CONTINUOUS
10
142.7984990530
20
185.4205952500
11
145.7958335382
21
187.2431478242
0
LINE
8
11000_LEFT
62
7
6
CONTINUOUS
10
256.0229953602
20
226.2648957924
11
256.0748449748
21
226.2807504817
0
LINE
8
13000_TOP
62
7
6
CONTINUOUS
10
147.5772821293
20
65.3509132902
11
147.7145690351
21
65.3808710614
0
LINE
8
13000_TOP
62
7
6
CONTINUOUS
10
144.7864464175
20
63.2384467047
11
144.3077689508
21
63.1420467638
0
LINE
8
13000_TOP
62
7
6
CONTINUOUS
10
136.8397953414
20
73.2374410870
11
136.5525220949
21
73.1829362109
0
LINE
8
13000_TOP
62
7
6
CONTINUOUS
10
141.0993450388
20
78.1841742250
11
142.2149928141
21
78.3829362109
0
LINE
8
13000_TOP
62
7
6
CONTINUOUS
10
132.4749120036
20
66.7572329512
11
132.5605796235
21
66.7713051280
0
LINE
8
13000_TOP
62
7
6
CONTINUOUS
10
132.2446371712
20
78.3829362109
11
158.6446371712
21
78.3829362109
0
LINE
8
10000_FRONT
62
7
6
CONTINUOUS
10
133.8558819511
20
140.8179988463
11
133.7888743042
21
140.9153146794
0
LINE
8
10000_FRONT
62
7
6
CONTINUOUS
10
131.7446371712
20
168.1487055240
11
131.7826974049
21
168.0737115276
0
LINE
8
10000_FRONT
62
7
6
CONTINUOUS
10
135.5710293287
20
149.8219275007
11
135.5250660974
21
149.9242018432
0
LINE
8
10000_FRONT
62
7
6
CONTINUOUS
10
134.7484087504
20
150.6569988283
11
134.7024916567
21
150.7594202425
0
LINE
8
10000_FRONT
62
7
6
CONTINUOUS
10
136.9688742739
20
163.6154057887
11
136.9446371712
21
163.6831626828
0
LINE
8
10000_FRONT
62
7
6
CONTINUOUS
10
136.9446371712
20
161.2316845608
11
136.9674733110
21
161.1658351025
0
LINE
8
10000_FRONT
62
7
6
CONTINUOUS
10
143.5551995235
20
163.8105879876
11
143.5725533350
21
163.7600082777
0
LINE
8
10000_FRONT
62
7
6
CONTINUOUS
10
146.6446371712
20
161.4468587758
11
146.6643702593
21
161.3695039743
0
LINE
8
10000_FRONT
62
7
6
CONTINUOUS
10
142.9688742744
20
163.3981778443
11
142.9446371712
21
163.4949445981
0
LINE
8
10000_FRONT
62
7
6
CONTINUOUS
10
144.2204000685
20
162.5266439297
11
144.2446371712
21
162.4298772208
0
LINE
8
10000_FRONT
62
7
6
CONTINUOUS
10
142.9446371712
20
162.9213681900
11
142.9674733114
21
162.8273255074
0
LINE
8
10000_FRONT
62
7
6
CONTINUOUS
10
144.2446371712
20
163.0034534920
11
144.2218010309
21
163.0974962667
0
LINE
8
10000_FRONT
62
7
6
CONTINUOUS
10
142.9218010309
20
164.2144673069
11
142.9446371712
21
164.1150433559
0
LINE
8
10000_FRONT
62
7
6
CONTINUOUS
10
134.1458383727
20
221.1784167252
11
134.1682696943
21
221.0674802942
0
LINE
8
10000_FRONT
62
7
6
CONTINUOUS
10
132.4838842959
20
226.4416787347
11
132.4446371712
21
226.6358530285
0
LINE
8
10000_FRONT
62
7
6
CONTINUOUS
10
147.9212451467
20
159.6908250612
11
147.9446371712
21
159.5733579314
0
LINE
8
10000_FRONT
62
7
6
CONTINUOUS
10
132.4446371712
20
226.8775171935
11
132.4826973732
21
226.6861816906
0
LINE
8
10000_FRONT
62
7
6
CONTINUOUS
10
143.5483005971
20
163.8460754674
11
143.5551995235
21
163.8105879876
0
LINE
8
10000_FRONT
62
7
6
CONTINUOUS
10
133.2446371712
20
226.0853758059
11
133.2227859505
21
226.1977699616
0
LINE
8
10000_FRONT
62
7
6
CONTINUOUS
10
135.6071264044
20
163.5617867882
11
135.5916240311
21
163.6440124559
0
LINE
8
10000_FRONT
62
7
6
CONTINUOUS
10
146.9181677393
20
151.9750734193
11
146.9446371712
21
151.8328012893
0
LINE
8
10000_FRONT
62
7
6
CONTINUOUS
10
147.9556599737
20
162.7763932290
11
147.9473957407
21
162.8211869402
0
LINE
8
10000_FRONT
62
7
6
CONTINUOUS
10
143.5426789945
20
165.2095086367
11
143.5264415122
21
165.3138107347
0
LINE
8
10000_FRONT
62
7
6
CONTINUOUS
10
157.3417537413
20
165.3313431397
11
157.3418665311
21
165.3303016303
0
LINE
8
10000_FRONT
62
7
6
CONTINUOUS
10
157.3420006790
20
165.3290378414
11
157.3421603007
21
165.3274968553
0
LINE
8
10000_FRONT
62
7
6
CONTINUOUS
10
157.3423493444
20
165.3256143251
11
157.3425713874
21
165.3233050177
0
LINE
8
10000_FRONT
62
7
6
CONTINUOUS
10
157.3425713874
20
165.3233050177
11
157.3428294256
21
165.3204509574
0
LINE
8
10000_FRONT
62
7
6
CONTINUOUS
10
157.3428294256
20
165.3204509574
11
157.3431460339
21
165.3166420949
0
LINE
8
10000_FRONT
62
7
6
CONTINUOUS
10
157.3431460339
20
165.3166420949
11
157.3435121108
21
165.3118124762
0
LINE
8
10000_FRONT
62
7
6
CONTINUOUS
10
153.6356428342
20
231.1807504817
11
153.6173052258
21
231.4434728707
0
LINE
8
10000_FRONT
62
7
6
CONTINUOUS
10
157.3435121108
20
165.3118124762
11
157.3438750677
21
165.3063923143
0
LINE
8
10000_FRONT
62
7
6
CONTINUOUS
10
157.3438750677
20
165.3063923143
11
157.3441923218
21
165.3000130939
0
LINE
8
10000_FRONT
62
7
6
CONTINUOUS
10
155.2821479379
20
163.5617867882
11
155.3024836780
21
163.0317203930
0
LINE
8
10000_FRONT
62
7
6
CONTINUOUS
10
157.3441923218
20
165.3000130939
11
157.3444712361
21
165.2926647779
0
LINE
8
10000_FRONT
62
7
6
CONTINUOUS
10
157.3587816903
20
162.6312606271
11
157.3682448936
21
162.3372481852
0
LINE
8
10000_FRONT
62
7
6
CONTINUOUS
10
157.3682448936
20
162.3372481852
11
157.3759950725
21
161.9103708980
0
LINE
8
10000_FRONT
62
7
6
CONTINUOUS
10
157.3444712361
20
165.2926647779
11
157.3446371712
21
165.2807809427
0
LINE
8
10000_FRONT
62
7
6
CONTINUOUS
10
157.3759950725
20
161.9103708980
11
157.3814864809
21
161.3813898825
0
LINE
8
10000_FRONT
62
7
6
CONTINUOUS
10
157.3814864809
20
161.3813898825
11
157.3843320193
21
160.7881951042
0
LINE
8
10000_FRONT
62
7
6
CONTINUOUS
10
153.8446371712
20
221.1807047902
11
153.8446371712
21
223.2808114036
0
LINE
8
10000_FRONT
62
7
6
CONTINUOUS
10
153.9446371712
20
158.6007504817
11
153.9446371712
21
165.5566351441
0
LINE
8
10000_FRONT
62
7
6
CONTINUOUS
10
154.5446371712
20
139.7007504817
11
154.5446371712
21
151.8007504817
0
LINE
8
10000_FRONT
62
7
6
CONTINUOUS
10
154.8446371712
20
158.0007504817
11
154.8446371712
21
155.0007504817
0
LINE
8
10000_FRONT
62
7
6
CONTINUOUS
10
155.0946371712
20
151.8007504817
11
155.0946371712
21
155.0007504817
0
LINE
8
10000_FRONT
62
7
6
CONTINUOUS
10
155.3024836780
20
141.0376228376
11
155.3024836780
21
149.7109224593
0
LINE
8
10000_FRONT
62
7
6
CONTINUOUS
10
155.3024836780
20
156.8505785041
11
155.3024836780
21
163.0317203930
0
LINE
8
10000_FRONT
62
7
6
CONTINUOUS
10
156.2024836780
20
150.8706729501
11
156.2024836780
21
155.6908280133
0
LINE
8
10000_FRONT
62
7
6
CONTINUOUS
10
156.3986074703
20
225.7807504817
11
156.3986074703
21
225.6807504817
0
LINE
8
10000_FRONT
62
7
6
CONTINUOUS
10
157.1246371712
20
163.4503692615
11
157.1246371712
21
141.0334337752
0
LINE
8
10000_FRONT
62
7
6
CONTINUOUS
10
157.1246371712
20
129.9007504817
11
157.1246371712
21
141.0039933696
0
LINE
8
10000_FRONT
62
7
6
CONTINUOUS
10
157.3446371712
20
157.7807114091
11
157.3446371712
21
158.2807961731
0
LINE
8
10000_FRONT
62
7
6
CONTINUOUS
10
157.3446371712
20
162.6807047902
11
157.3446371712
21
165.2807809427
0
LINE
8
10000_FRONT
62
7
6
CONTINUOUS
10
157.3843320193
20
160.7881951042
11
157.3843315110
21
160.1730978574
0
LINE
8
13000_TOP
62
7
6
CONTINUOUS
10
158.4446371712
20
47.0429362109
11
158.4446371712
21
71.7229362109
0
LINE
8
10000_FRONT
62
7
6
CONTINUOUS
10
158.4446371712
20
226.6366539444
11
158.4446371712
21
234.9923982382
0
LINE
8
13000_TOP
62
7
6
CONTINUOUS
10
159.1446371712
20
58.7829362109
11
159.1446371712
21
46.8829362109
0
LINE
8
13000_TOP
62
7
6
CONTINUOUS
10
159.1446371712
20
59.8829362109
11
159.1446371712
21
77.8829362109
0
LINE
8
10000_FRONT
62
7
6
CONTINUOUS
10
159.1446371712
20
157.9807504817
11
159.1446371712
21
225.7807504817
0
LINE
8
10000_FRONT
62
7
6
CONTINUOUS
10
156.3446371595
20
226.0807504817
11
156.3448232847
21
226.1540248578
0
LINE
8
10000_FRONT
62
7
6
CONTINUOUS
10
157.3843315110
20
160.1730978574
11
157.3814849768
21
159.5799164652
0
LINE
8
10000_FRONT
62
7
6
CONTINUOUS
10
157.3814849768
20
159.5799164652
11
157.3759926368
21
159.0509620672
0
LINE
8
10000_FRONT
62
7
6
CONTINUOUS
10
157.3759926368
20
159.0509620672
11
157.3682416369
21
158.6241241730
0
LINE
8
10000_FRONT
62
7
6
CONTINUOUS
10
157.3682416369
20
158.6241241730
11
157.3587788185
21
158.3301955542
0
LINE
8
10000_FRONT
62
7
6
CONTINUOUS
10
157.3576339337
20
158.3095506875
11
157.3587788185
21
158.3301955542
0
LINE
8
10000_FRONT
62
7
6
CONTINUOUS
10
157.3564538511
20
158.2965581697
11
157.3576339337
21
158.3095506875
0
LINE
8
13000_TOP
62
7
6
CONTINUOUS
10
146.7526972792
20
55.6636875299
11
146.7099278866
21
55.2567639413
0
LINE
8
10000_FRONT
62
7
6
CONTINUOUS
10
156.2024836762
20
150.8706729545
11
156.1867826820
21
150.7594202271
0
LINE
8
10000_FRONT
62
7
6
CONTINUOUS
10
155.3182450139
20
149.8219275130
11
155.3024836780
21
149.7109224785
0
LINE
8
13000_TOP
62
7
6
CONTINUOUS
10
148.1788708391
20
73.4501395465
11
148.1690238870
21
73.3819682438
0
LINE
8
10000_FRONT
62
7
6
CONTINUOUS
10
155.2821479379
20
163.5617867882
11
155.2974082839
21
163.6434186051
0
LINE
8
13000_TOP
62
7
6
CONTINUOUS
10
137.5863386655
20
55.4724166484
11
137.6090579326
21
55.5922732640
0
LINE
8
13000_TOP
62
7
6
CONTINUOUS
10
146.0017783903
20
56.0243132380
11
145.6361871503
21
54.1435093559
0
LINE
8
10000_FRONT
62
7
6
CONTINUOUS
10
157.1246371712
20
141.0334337752
11
157.1024885011
21
140.9203137351
0
LINE
8
13000_TOP
62
7
6
CONTINUOUS
10
144.1905483626
20
65.3422039031
11
144.2193340074
21
65.4778459955
0
LINE
8
10000_FRONT
62
7
6
CONTINUOUS
10
157.3552555851
20
158.2914145871
11
157.3564538511
21
158.2965581697
0
LINE
8
10000_FRONT
62
7
6
CONTINUOUS
10
157.1302652349
20
156.9652077321
11
157.1657630862
21
157.0991338125
0
LINE
8
10000_FRONT
62
7
6
CONTINUOUS
10
156.1867826820
20
150.7594202271
11
156.1408655811
21
150.6569988126
0
LINE
8
10000_FRONT
62
7
6
CONTINUOUS
10
155.3642082388
20
149.9242018417
11
155.3182450139
21
149.8219275130
0
LINE
8
10000_FRONT
62
7
6
CONTINUOUS
10
159.1065769374
20
168.0737115276
11
159.1446371712
21
168.1487054753
0
LINE
8
10000_FRONT
62
7
6
CONTINUOUS
10
155.2974082839
20
163.6434186051
11
155.3383235431
21
163.7044782315
0
LINE
8
10000_FRONT
62
7
6
CONTINUOUS
10
156.1408655811
20
150.6569988126
11
156.0683871088
21
150.5714407360
0
LINE
8
10000_FRONT
62
7
6
CONTINUOUS
10
155.4367594563
20
150.0097064976
11
155.3642082388
21
149.9242018417
0
LINE
8
10000_FRONT
62
7
6
CONTINUOUS
10
147.4199260846
20
165.4270080702
11
147.5066245306
21
165.5141107987
0
LINE
8
10000_FRONT
62
7
6
CONTINUOUS
10
157.3552555851
20
158.2914145871
11
157.3446371712
21
158.2807961731
0
LINE
8
10000_FRONT
62
7
6
CONTINUOUS
10
144.0811569794
20
161.1607230338
11
143.9765022023
21
161.0605850477
0
LINE
8
10000_FRONT
62
7
6
CONTINUOUS
10
134.8208872407
20
155.9900602095
11
135.4525148845
21
156.5517944696
0
LINE
8
10000_FRONT
62
7
6
CONTINUOUS
10
144.2224885493
20
162.2257149608
11
144.1600930245
21
162.1708670865
0
LINE
8
10000_FRONT
62
7
6
CONTINUOUS
10
153.9224885758
20
163.6182734738
11
153.8600930585
21
163.5634255823
0
LINE
8
10000_FRONT
62
7
6
CONTINUOUS
10
143.0325051368
20
164.1345175210
11
142.9674733114
21
164.0786930445
0
LINE
8
10000_FRONT
62
7
6
CONTINUOUS
10
142.9218010309
20
163.6173132230
11
142.8567692055
21
163.5614887465
0
LINE
8
10000_FRONT
62
7
6
CONTINUOUS
10
153.8567692055
20
161.1100106254
11
153.9218010309
21
161.1658351019
0
LINE
8
10000_FRONT
62
7
6
CONTINUOUS
10
144.1261196882
20
152.1512430459
11
144.0335532337
21
152.0789491517
0
LINE
8
10000_FRONT
62
7
6
CONTINUOUS
10
143.9659158683
20
161.0526305273
11
143.9765020618
21
161.0605849222
0
LINE
8
10000_FRONT
62
7
6
CONTINUOUS
10
143.9552927499
20
161.0448058001
11
143.9659158683
21
161.0526305273
0
LINE
8
10000_FRONT
62
7
6
CONTINUOUS
10
148.1093646682
20
165.0800190930
11
148.0031567454
21
165.0022828533
0
LINE
8
10000_FRONT
62
7
6
CONTINUOUS
10
143.9446365291
20
161.0371141181
11
143.9552927499
21
161.0448058001
0
LINE
8
10000_FRONT
62
7
6
CONTINUOUS
10
133.8465149514
20
163.6563348193
11
133.9414041806
21
163.7238879138
0
LINE
8
10000_FRONT
62
7
6
CONTINUOUS
10
143.0332550562
20
159.7886736075
11
143.1299693039
21
159.8537512983
0
LINE
8
10000_FRONT
62
7
6
CONTINUOUS
10
133.3596893927
20
157.5037012234
11
133.4567219498
21
157.5685858397
0
LINE
8
11000_LEFT
62
7
6
CONTINUOUS
10
256.1556367498
20
226.3184318593
11
256.1791780108
21
226.3328490331
0
LINE
8
10000_FRONT
62
7
6
CONTINUOUS
10
147.1525250240
20
163.6019450948
11
147.2383761763
21
163.6540813594
0
LINE
8
10000_FRONT
62
7
6
CONTINUOUS
10
137.0291812839
20
164.2958305973
11
137.1265066112
21
164.3538609018
0
LINE
8
10000_FRONT
62
7
6
CONTINUOUS
10
148.0291812839
20
164.2958305973
11
148.1265066112
21
164.3538609018
0
LINE
8
10000_FRONT
62
7
6
CONTINUOUS
10
158.9981905618
20
168.0101344803
11
159.1065769374
21
168.0737115276
0
LINE
8
10000_FRONT
62
7
6
CONTINUOUS
10
137.1298321415
20
165.0881534811
11
137.0325051368
21
165.0318342682
0
LINE
8
10000_FRONT
62
7
6
CONTINUOUS
10
147.8600930235
20
163.3239423874
11
147.7627677067
21
163.2690529763
0
LINE
8
10000_FRONT
62
7
6
CONTINUOUS
10
146.7291813179
20
162.6008793864
11
146.8265066345
21
162.6557687978
0
LINE
8
10000_FRONT
62
7
6
CONTINUOUS
10
146.8298321415
20
163.2304928342
11
146.7325051368
21
163.1772218815
0
LINE
8
10000_FRONT
62
7
6
CONTINUOUS
10
147.7594422009
20
162.6943289399
11
147.8567692055
21
162.7475998926
0
LINE
8
11000_LEFT
62
7
6
CONTINUOUS
10
256.1305782946
20
226.3048922969
11
256.1556367498
21
226.3184318593
0
LINE
8
10000_FRONT
62
7
6
CONTINUOUS
10
147.5066245306
20
165.5141107987
11
147.5991319740
21
165.5613928908
0
LINE
8
11000_LEFT
62
7
6
CONTINUOUS
10
256.1037453373
20
226.2922906957
11
256.1305782946
21
226.3048922969
0
LINE
8
11000_LEFT
62
7
6
CONTINUOUS
10
256.0748449748
20
226.2807504817
11
256.1037453373
21
226.2922906957
0
LINE
8
10000_FRONT
62
7
6
CONTINUOUS
10
133.9515062958
20
140.7556094508
11
133.8558819511
21
140.8179988463
0
LINE
8
10000_FRONT
62
7
6
CONTINUOUS
10
135.4525148843
20
150.0097064936
11
134.8208872408
21
150.5714407540
0
LINE
8
10000_FRONT
62
7
6
CONTINUOUS
10
133.5446371712
20
158.2807961731
11
133.5340187573
21
158.2914145871
0
LINE
8
10000_FRONT
62
7
6
CONTINUOUS
10
135.5250660974
20
149.9242018432
11
135.4525148844
21
150.0097064935
0
LINE
8
10000_FRONT
62
7
6
CONTINUOUS
10
134.8208872326
20
150.5714407335
11
134.7484087504
21
150.6569988283
0
LINE
8
10000_FRONT
62
7
6
CONTINUOUS
10
142.9674733114
20
162.8273255074
11
143.0325051368
21
162.7475998926
0
LINE
8
10000_FRONT
62
7
6
CONTINUOUS
10
142.8567692055
20
164.2987549654
11
142.9218010309
21
164.2144673069
0
LINE
8
10000_FRONT
62
7
6
CONTINUOUS
10
135.5916240311
20
163.6440124559
11
135.5505592765
21
163.7048538787
0
LINE
8
10000_FRONT
62
7
6
CONTINUOUS
10
155.3903844282
20
140.8255114770
11
155.3253399705
21
140.9228289965
0
LINE
8
10000_FRONT
62
7
6
CONTINUOUS
10
147.8559620152
20
159.7887311114
11
147.9212451467
21
159.6908250612
0
LINE
8
10000_FRONT
62
7
6
CONTINUOUS
10
146.8488455491
20
152.0865660272
11
146.9181677393
21
151.9750734193
0
LINE
8
10000_FRONT
62
7
6
CONTINUOUS
10
143.5725533350
20
163.7600082777
11
143.6071121687
21
163.7010550121
0
LINE
8
10000_FRONT
62
7
6
CONTINUOUS
10
146.6643702593
20
161.3695039743
11
146.7173421456
21
161.2754599947
0
LINE
8
10000_FRONT
62
7
6
CONTINUOUS
10
148.2446371712
20
162.1185312113
11
148.1935257323
21
162.2115365597
0
LINE
8
10000_FRONT
62
7
6
CONTINUOUS
10
148.1935257323
20
162.2115365597
11
148.1475670518
21
162.2998947493
0
LINE
8
10000_FRONT
62
7
6
CONTINUOUS
10
143.4689932623
20
165.4274963146
11
143.5264415122
21
165.3138107347
0
LINE
8
10000_FRONT
62
7
6
CONTINUOUS
10
148.1475670518
20
162.2998947493
11
148.1065201308
21
162.3832921751
0
LINE
8
10000_FRONT
62
7
6
CONTINUOUS
10
142.9404411900
20
164.8914236557
11
142.8861175970
21
165.0022828533
0
LINE
8
10000_FRONT
62
7
6
CONTINUOUS
10
148.1065201308
20
162.3832921751
11
148.0701363721
21
162.4616866971
0
LINE
8
10000_FRONT
62
7
6
CONTINUOUS
10
155.3642111236
20
156.6372945608
11
155.3182465118
21
156.7395682533
0
LINE
8
10000_FRONT
62
7
6
CONTINUOUS
10
156.1408655796
20
155.9045021488
11
156.1867826803
21
155.8020807354
0
LINE
8
10000_FRONT
62
7
6
CONTINUOUS
10
148.0701363721
20
162.4616866971
11
148.0382226821
21
162.5351282562
0
LINE
8
10000_FRONT
62
7
6
CONTINUOUS
10
157.3018232540
20
165.4876547594
11
157.3049595003
21
165.4799644450
0
LINE
8
10000_FRONT
62
7
6
CONTINUOUS
10
148.0382226821
20
162.5351282562
11
148.0107277247
21
162.6035249100
0
LINE
8
10000_FRONT
62
7
6
CONTINUOUS
10
157.3049595003
20
165.4799644450
11
157.3078729512
21
165.4724725605
0
LINE
8
10000_FRONT
62
7
6
CONTINUOUS
10
157.3078729512
20
165.4724725605
11
157.3105896794
21
165.4651582064
0
LINE
8
10000_FRONT
62
7
6
CONTINUOUS
10
148.0107277247
20
162.6035249100
11
147.9876617551
21
162.6668058957
0
LINE
8
10000_FRONT
62
7
6
CONTINUOUS
10
146.6688742739
20
162.2228473105
11
146.6446371712
21
162.2906040895
0
LINE
8
10000_FRONT
62
7
6
CONTINUOUS
10
147.9688742478
20
163.6154058235
11
147.9446371712
21
163.6831626302
0
LINE
8
10000_FRONT
62
7
6
CONTINUOUS
10
157.3105896794
20
165.4651582064
11
157.3131798193
21
165.4578606410
0
LINE
8
10000_FRONT
62
7
6
CONTINUOUS
10
147.9446371712
20
164.0128435847
11
147.9218010309
21
164.0786930445
0
LINE
8
10000_FRONT
62
7
6
CONTINUOUS
10
157.3131798193
20
165.4578606410
11
157.3156608213
21
165.4505452816
0
LINE
8
10000_FRONT
62
7
6
CONTINUOUS
10
157.3156608213
20
165.4505452816
11
157.3179863174
21
165.4433687857
0
LINE
8
10000_FRONT
62
7
6
CONTINUOUS
10
147.9876617551
20
162.6668058957
11
147.9691918840
21
162.7246719506
0
LINE
8
10000_FRONT
62
7
6
CONTINUOUS
10
157.3179863174
20
165.4433687857
11
157.3201615947
21
165.4363421886
0
LINE
8
10000_FRONT
62
7
6
CONTINUOUS
10
157.3201615947
20
165.4363421886
11
157.3221920154
21
165.4294807530
0
LINE
8
10000_FRONT
62
7
6
CONTINUOUS
10
157.3587816903
20
162.6312606271
11
157.3446371712
21
162.6807047902
0
LINE
8
10000_FRONT
62
7
6
CONTINUOUS
10
157.3221920154
20
165.4294807530
11
157.3240828931
21
165.4227970231
0
LINE
8
10000_FRONT
62
7
6
CONTINUOUS
10
157.3240828931
20
165.4227970231
11
157.3258395162
21
165.4163021011
0
LINE
8
10000_FRONT
62
7
6
CONTINUOUS
10
147.9691918840
20
162.7246719506
11
147.9556599737
21
162.7763932290
0
LINE
8
10000_FRONT
62
7
6
CONTINUOUS
10
157.3258395162
20
165.4163021011
11
157.3274671686
21
165.4100068511
0
LINE
8
10000_FRONT
62
7
6
CONTINUOUS
10
157.0885361103
20
163.5930462955
11
157.1246371706
21
163.4503850892
0
LINE
8
10000_FRONT
62
7
6
CONTINUOUS
10
157.3274671686
20
165.4100068511
11
157.3289711463
21
165.4039228139
0
LINE
8
10000_FRONT
62
7
6
CONTINUOUS
10
153.9204000685
20
164.2173472834
11
153.9446371712
21
164.1150432349
0
LINE
8
10000_FRONT
62
7
6
CONTINUOUS
10
157.3289711463
20
165.4039228139
11
157.3303567080
21
165.3980594269
0
LINE
8
10000_FRONT
62
7
6
CONTINUOUS
10
153.9446371712
20
164.8481225375
11
153.9218010309
21
164.9475466097
0
LINE
8
10000_FRONT
62
7
6
CONTINUOUS
10
157.3303567080
20
165.3980594269
11
157.3316291452
21
165.3924279786
0
LINE
8
10000_FRONT
62
7
6
CONTINUOUS
10
157.3316291452
20
165.3924279786
11
157.3327937010
21
165.3870370273
0
LINE
8
10000_FRONT
62
7
6
CONTINUOUS
10
142.1873658188
20
230.9182600430
11
142.2448388881
21
230.6480221296
0
LINE
8
10000_FRONT
62
7
6
CONTINUOUS
10
157.3327937010
20
165.3870370273
11
157.3338556742
21
165.3818982764
0
LINE
8
10000_FRONT
62
7
6
CONTINUOUS
10
157.3446371615
20
157.7807114091
11
157.3676201633
21
157.6656021901
0
LINE
8
10000_FRONT
62
7
6
CONTINUOUS
10
155.3253399705
20
140.9228289965
11
155.3024836780
21
141.0376228376
0
LINE
8
10000_FRONT
62
7
6
CONTINUOUS
10
151.5750853582
20
223.9556894577
11
151.5446371712
21
224.1087395168
0
LINE
8
10000_FRONT
62
7
6
CONTINUOUS
10
157.3338556742
20
165.3818982764
11
157.3348202873
21
165.3770191215
0
LINE
8
10000_FRONT
62
7
6
CONTINUOUS
10
157.3348202873
20
165.3770191215
11
157.3356927324
21
165.3724052617
0
LINE
8
10000_FRONT
62
7
6
CONTINUOUS
10
157.3356927324
20
165.3724052617
11
157.3364782754
21
165.3680665349
0
LINE
8
10000_FRONT
62
7
6
CONTINUOUS
10
157.3364782754
20
165.3680665349
11
157.3371821576
21
165.3640114042
0
LINE
8
10000_FRONT
62
7
6
CONTINUOUS
10
157.3371821576
20
165.3640114042
11
157.3378095387
21
165.3602437383
0
LINE
8
10000_FRONT
62
7
6
CONTINUOUS
10
157.3378095387
20
165.3602437383
11
157.3383655835
21
165.3567676841
0
LINE
8
10000_FRONT
62
7
6
CONTINUOUS
10
157.3383655835
20
165.3567676841
11
157.3388554055
21
165.3535845142
0
LINE
8
10000_FRONT
62
7
6
CONTINUOUS
10
157.3388554055
20
165.3535845142
11
157.3392841015
21
165.3506945421
0
LINE
8
10000_FRONT
62
7
6
CONTINUOUS
10
157.3392841015
20
165.3506945421
11
157.3396567197
21
165.3480953603
0
LINE
8
10000_FRONT
62
7
6
CONTINUOUS
10
155.3182465118
20
156.7395682533
11
155.3024836780
21
156.8505785041
0
LINE
8
10000_FRONT
62
7
6
CONTINUOUS
10
156.1867826803
20
155.8020807354
11
156.2024836752
21
155.6908280062
0
LINE
8
10000_FRONT
62
7
6
CONTINUOUS
10
157.3396567197
20
165.3480953603
11
157.3399782111
21
165.3457790851
0
LINE
8
10000_FRONT
62
7
6
CONTINUOUS
10
157.3402534814
20
165.3437352785
11
157.3404873867
21
165.3419507131
0
LINE
8
10000_FRONT
62
7
6
CONTINUOUS
10
157.3406847174
20
165.3404084563
11
157.3408501947
21
165.3390876851
0
LINE
8
10000_FRONT
62
7
6
CONTINUOUS
10
157.3411041281
20
165.3370078326
11
157.3412017224
21
165.3361899697
0
LINE
8
10000_FRONT
62
7
6
CONTINUOUS
10
157.3414310019
20
165.3342244995
11
157.3415010764
21
165.3336107441
0
LINE
8
13000_TOP
62
7
6
CONTINUOUS
10
145.6361862866
20
54.1435095239
11
145.5355309993
21
53.8611504990
0
LINE
8
13000_TOP
62
7
6
CONTINUOUS
10
132.8252656163
20
54.5698593595
11
132.7620877111
21
54.4218802111
0
LINE
8
13000_TOP
62
7
6
CONTINUOUS
10
137.5199976571
20
73.9555076394
11
138.2182300542
21
75.4297850961
0
LINE
8
10000_FRONT
62
7
6
CONTINUOUS
10
157.1024885011
20
140.9203137351
11
157.0400928859
21
140.8246986808
0
LINE
8
10000_FRONT
62
7
6
CONTINUOUS
10
156.0683871017
20
150.5714407539
11
155.4367594579
21
150.0097064934
0
LINE
8
11000_LEFT
62
7
6
CONTINUOUS
10
256.2224986779
20
226.3642639275
11
256.2427038952
21
226.3814187932
0
LINE
8
11000_LEFT
62
7
6
CONTINUOUS
10
256.2013901414
20
226.3481089068
11
256.2224986779
21
226.3642639275
0
LINE
8
11000_LEFT
62
7
6
CONTINUOUS
10
256.1791780108
20
226.3328490331
11
256.2013901414
21
226.3481089068
0
LINE
8
11000_LEFT
62
7
6
CONTINUOUS
10
275.1541072963
20
226.1762914426
11
275.3154457699
21
226.2859662206
0
LINE
8
11000_LEFT
62
7
6
CONTINUOUS
10
275.3140385563
20
226.5704986816
11
275.1531850538
21
226.4618584575
0
LINE
8
10000_FRONT
62
7
6
CONTINUOUS
10
135.4989105920
20
140.8255321528
11
135.4016002417
21
140.7605027760
0
LINE
8
10000_FRONT
62
7
6
CONTINUOUS
10
155.3383235431
20
163.7044782315
11
155.4059832375
21
163.7451063473
0
LINE
8
10000_FRONT
62
7
6
CONTINUOUS
10
144.1600930245
20
162.1708670865
11
144.0627677079
21
162.1324331068
0
LINE
8
10000_FRONT
62
7
6
CONTINUOUS
10
153.8600930585
20
163.5634255823
11
153.7627677312
21
163.5249915882
0
LINE
8
10000_FRONT
62
7
6
CONTINUOUS
10
143.1298321415
20
164.1718182436
11
143.0325051368
21
164.1345175210
0
LINE
8
10000_FRONT
62
7
6
CONTINUOUS
10
142.8567692055
20
163.5614887465
11
142.7594422009
21
163.5241880239
0
LINE
8
10000_FRONT
62
7
6
CONTINUOUS
10
153.7594422009
20
161.0727099027
11
153.8567692055
21
161.1100106254
0
LINE
8
10000_FRONT
62
7
6
CONTINUOUS
10
155.4877146220
20
140.7604859894
11
155.3903844282
21
140.8255114770
0
LINE
8
10000_FRONT
62
7
6
CONTINUOUS
10
146.7544213333
20
152.1552636740
11
146.8488455491
21
152.0865660272
0
LINE
8
10000_FRONT
62
7
6
CONTINUOUS
10
146.9233495763
20
161.0526370908
11
146.9127722805
21
161.0605849223
0
LINE
8
10000_FRONT
62
7
6
CONTINUOUS
10
137.0358818739
20
163.5595822808
11
136.9688742739
21
163.6154057887
0
LINE
8
10000_FRONT
62
7
6
CONTINUOUS
10
146.7358818738
20
162.1670238026
11
146.6688742739
21
162.2228473105
0
LINE
8
10000_FRONT
62
7
6
CONTINUOUS
10
148.0358818433
20
163.5595822978
11
147.9688742478
21
163.6154058235
0
LINE
8
10000_FRONT
62
7
6
CONTINUOUS
10
136.9674733110
20
161.1658351025
11
137.0325051363
21
161.1100106257
0
LINE
8
10000_FRONT
62
7
6
CONTINUOUS
10
147.9218010309
20
164.0786930445
11
147.8567692055
21
164.1345175210
0
LINE
8
10000_FRONT
62
7
6
CONTINUOUS
10
155.4367594579
20
156.5517944700
11
156.0683871016
21
155.9900602095
0
LINE
8
10000_FRONT
62
7
6
CONTINUOUS
10
146.8080940709
20
161.1607513147
11
146.9127722805
21
161.0605849223
0
LINE
8
10000_FRONT
62
7
6
CONTINUOUS
10
143.3820014293
20
165.5145823662
11
143.4689932623
21
165.4274963146
0
LINE
8
10000_FRONT
62
7
6
CONTINUOUS
10
143.6071121687
20
163.7010550121
11
143.6619628315
21
163.6449543054
0
LINE
8
10000_FRONT
62
7
6
CONTINUOUS
10
156.9899196515
20
163.7007302498
11
157.0885361103
21
163.5930462955
0
LINE
8
10000_FRONT
62
7
6
CONTINUOUS
10
155.4367594563
20
156.5517944657
11
155.3642111236
21
156.6372945608
0
LINE
8
10000_FRONT
62
7
6
CONTINUOUS
10
156.0683871078
20
155.9900602249
11
156.1408655796
21
155.9045021488
0
LINE
8
10000_FRONT
62
7
6
CONTINUOUS
10
143.0358818748
20
163.3184536130
11
142.9688742744
21
163.3981778443
0
LINE
8
10000_FRONT
62
7
6
CONTINUOUS
10
144.1533924686
20
162.6063681612
11
144.2204000685
21
162.5266439297
0
LINE
8
10000_FRONT
62
7
6
CONTINUOUS
10
157.2522681469
20
165.5725391173
11
157.2592499603
21
165.5639956997
0
LINE
8
10000_FRONT
62
7
6
CONTINUOUS
10
144.2218010309
20
163.0974962667
11
144.1567692055
21
163.1772218816
0
LINE
8
10000_FRONT
62
7
6
CONTINUOUS
10
153.8533924685
20
164.3016334795
11
153.9204000685
21
164.2173472834
0
LINE
8
10000_FRONT
62
7
6
CONTINUOUS
10
146.7173421456
20
161.2754599947
11
146.8080940709
21
161.1607513147
0
LINE
8
10000_FRONT
62
7
6
CONTINUOUS
10
153.9218010309
20
164.9475466097
11
153.8567692055
21
165.0318342682
0
LINE
8
10000_FRONT
62
7
6
CONTINUOUS
10
157.2592499603
20
165.5639956997
11
157.2656417957
21
165.5552915794
0
LINE
8
10000_FRONT
62
7
6
CONTINUOUS
10
157.2656417957
20
165.5552915794
11
157.2715008319
21
165.5465442268
0
LINE
8
10000_FRONT
62
7
6
CONTINUOUS
10
157.3676201633
20
157.6656021901
11
157.4325405645
21
157.5685976456
0
LINE
8
10000_FRONT
62
7
6
CONTINUOUS
10
157.2715008319
20
165.5465442268
11
157.2768835508
21
165.5378318659
0
LINE
8
10000_FRONT
62
7
6
CONTINUOUS
10
157.2768835508
20
165.5378318659
11
157.2818755867
21
165.5291404856
0
LINE
8
10000_FRONT
62
7
6
CONTINUOUS
10
157.2818755867
20
165.5291404856
11
157.2865230497
21
165.5204909087
0
LINE
8
10000_FRONT
62
7
6
CONTINUOUS
10
157.2865230497
20
165.5204909087
11
157.2908146300
21
165.5119908476
0
LINE
8
10000_FRONT
62
7
6
CONTINUOUS
10
134.1458292966
20
221.1784166547
11
134.1446828650
21
221.1807352512
0
LINE
8
10000_FRONT
62
7
6
CONTINUOUS
10
157.2908146300
20
165.5119908476
11
157.2947773230
21
165.5036713623
0
LINE
8
10000_FRONT
62
7
6
CONTINUOUS
10
157.2947773230
20
165.5036713623
11
157.2984379975
21
165.4955563909
0
LINE
8
10000_FRONT
62
7
6
CONTINUOUS
10
157.2984379975
20
165.4955563909
11
157.3018232540
21
165.4876547594
0
LINE
8
10000_FRONT
62
7
6
CONTINUOUS
10
142.2448388881
20
230.6480221296
11
142.3463760347
21
230.3694860765
0
LINE
8
10000_FRONT
62
7
6
CONTINUOUS
10
151.5446371712
20
224.0982664778
11
151.5826528333
21
223.9232762991
0
LINE
8
10000_FRONT
62
7
6
CONTINUOUS
10
153.6173052258
20
231.4434728707
11
153.5597129242
21
231.7140080708
0
LINE
8
10000_FRONT
62
7
6
CONTINUOUS
10
153.8446371710
20
223.2808114034
11
153.8141934105
21
223.4338769048
0
LINE
8
13000_TOP
62
7
6
CONTINUOUS
10
140.7421776172
20
53.5361454901
11
141.0332807511
21
54.2222728872
0
LINE
8
13000_TOP
62
7
6
CONTINUOUS
10
148.1690238870
20
73.3819682438
11
148.1398226464
21
73.3189993591
0
LINE
8
13000_TOP
62
7
6
CONTINUOUS
10
149.3417606554
20
57.2656776854
11
149.4788200183
21
57.5596024375
0
LINE
8
13000_TOP
62
7
6
CONTINUOUS
10
146.2475056441
20
63.0452482077
11
147.3766992942
21
65.1689525899
0
LINE
8
13000_TOP
62
7
6
CONTINUOUS
10
137.5199976571
20
73.9555076395
11
137.3363503521
21
73.6415424767
0
LINE
8
13000_TOP
62
7
6
CONTINUOUS
10
138.2182300542
20
75.4297850961
11
139.0860552549
21
76.6907949404
0
LINE
8
11000_LEFT
62
7
6
CONTINUOUS
10
256.2922042919
20
226.4319945373
11
256.3041015763
21
226.4463721614
0
LINE
8
11000_LEFT
62
7
6
CONTINUOUS
10
256.3288315560
20
226.4792943882
11
256.3301067389
21
226.4807504817
0
LINE
8
11000_LEFT
62
7
6
CONTINUOUS
10
256.2780163198
20
226.4160800167
11
256.2922042919
21
226.4319945373
0
LINE
8
11000_LEFT
62
7
6
CONTINUOUS
10
256.2612986559
20
226.3988597018
11
256.2780163198
21
226.4160800167
0
LINE
8
11000_LEFT
62
7
6
CONTINUOUS
10
260.3190723279
20
220.5849102985
11
260.6190723279
21
220.8807504817
0
LINE
8
11000_LEFT
62
7
6
CONTINUOUS
10
256.2427038952
20
226.3814187932
11
256.2612986559
21
226.3988597018
0
LINE
8
10000_FRONT
62
7
6
CONTINUOUS
10
157.0400928859
20
140.8246986808
11
156.9427675657
21
140.7576976959
0
LINE
8
11000_LEFT
62
7
6
CONTINUOUS
10
260.9390723279
20
127.3007504817
11
256.5390723279
21
127.3007504817
0
LINE
8
10000_FRONT
62
7
6
CONTINUOUS
10
150.5646371712
20
127.3007504817
11
140.3246371712
21
127.3007504817
0
LINE
8
11000_LEFT
62
7
6
CONTINUOUS
10
256.5390723279
20
128.3007504817
11
260.9390723279
21
128.3007504817
0
LINE
8
10000_FRONT
62
7
6
CONTINUOUS
10
156.5246371712
20
129.3007504817
11
134.3646371712
21
129.3007504817
0
LINE
8
11000_LEFT
62
7
6
CONTINUOUS
10
260.9390723279
20
129.3007504817
11
269.1390723279
21
129.3007504817
0
LINE
8
11000_LEFT
62
7
6
CONTINUOUS
10
255.3156704837
20
131.1007504817
11
254.9390723279
21
131.1007504817
0
LINE
8
11000_LEFT
62
7
6
CONTINUOUS
10
259.9390723279
20
131.6007504817
11
258.2390723279
21
131.6007504817
0
LINE
8
11000_LEFT
62
7
6
CONTINUOUS
10
257.0390723279
20
131.8007504817
11
256.4633363966
21
131.8007504817
0
LINE
8
11000_LEFT
62
7
6
CONTINUOUS
10
256.4633363966
20
132.1007504817
11
257.0390723279
21
132.1007504817
0
LINE
8
11000_LEFT
62
7
6
CONTINUOUS
10
255.0633363966
20
132.7007504817
11
256.5518847228
21
132.7007504817
0
LINE
8
10000_FRONT
62
7
6
CONTINUOUS
10
134.0646371712
20
140.7334630180
11
133.9515062958
21
140.7556094508
0
LINE
8
10000_FRONT
62
7
6
CONTINUOUS
10
155.6024544352
20
140.7376520804
11
155.4877146220
21
140.7604859894
0
LINE
8
10000_FRONT
62
7
6
CONTINUOUS
10
137.0325051363
20
161.1100106257
11
137.1298321411
21
161.0727099028
0
LINE
8
10000_FRONT
62
7
6
CONTINUOUS
10
143.3820014293
20
165.5145823662
11
143.2899702110
21
165.5613928908
0
LINE
8
10000_FRONT
62
7
6
CONTINUOUS
10
144.0577681166
20
162.6574795821
11
144.1533924686
21
162.6063681612
0
LINE
8
10000_FRONT
62
7
6
CONTINUOUS
10
143.1315062272
20
163.2673421924
11
143.0358818748
21
163.3184536130
0
LINE
8
10000_FRONT
62
7
6
CONTINUOUS
10
143.0325051368
20
162.7475998926
11
143.1298321415
21
162.6943289399
0
LINE
8
10000_FRONT
62
7
6
CONTINUOUS
10
144.1567692055
20
163.1772218816
11
144.0594422009
21
163.2304928343
0
LINE
8
10000_FRONT
62
7
6
CONTINUOUS
10
143.6619628315
20
163.6449543054
11
143.7441240088
21
163.5991299190
0
LINE
8
10000_FRONT
62
7
6
CONTINUOUS
10
153.7577681165
20
164.3556695882
11
153.8533924685
21
164.3016334795
0
LINE
8
10000_FRONT
62
7
6
CONTINUOUS
10
142.7594422009
20
164.3550741782
11
142.8567692055
21
164.2987549654
0
LINE
8
10000_FRONT
62
7
6
CONTINUOUS
10
153.8567692055
20
165.0318342682
11
153.7594422009
21
165.0881534811
0
LINE
8
10000_FRONT
62
7
6
CONTINUOUS
10
131.7826974049
20
168.0737115276
11
131.8910837806
21
168.0101344803
0
LINE
8
10000_FRONT
62
7
6
CONTINUOUS
10
135.5505592765
20
163.7048538787
11
135.4828992682
21
163.7452390267
0
LINE
8
10000_FRONT
62
7
6
CONTINUOUS
10
157.4325405645
20
157.5685976456
11
157.5295752534
21
157.5037052446
0
LINE
8
10000_FRONT
62
7
6
CONTINUOUS
10
147.7595005705
20
159.8536694119
11
147.8559620152
21
159.7887311114
0
LINE
8
10000_FRONT
62
7
6
CONTINUOUS
10
146.9446378133
20
161.0371141181
11
146.9339727139
21
161.0448122673
0
LINE
8
10000_FRONT
62
7
6
CONTINUOUS
10
142.8861175970
20
165.0022828533
11
142.7799096742
21
165.0800190930
0
LINE
8
10000_FRONT
62
7
6
CONTINUOUS
10
146.9339727139
20
161.0448122673
11
146.9233495763
21
161.0526370908
0
LINE
8
10000_FRONT
62
7
6
CONTINUOUS
10
157.2446524017
20
165.5807352512
11
157.2522681469
21
165.5725391173
0
LINE
8
10000_FRONT
62
7
6
CONTINUOUS
10
132.5931158802
20
226.2802834486
11
132.4838842959
21
226.4416787347
0
LINE
8
10000_FRONT
62
7
6
CONTINUOUS
10
132.4826973732
20
226.6861816906
11
132.5910839068
21
226.5239750158
0
LINE
8
10000_FRONT
62
7
6
CONTINUOUS
10
134.1682696943
20
221.0674802942
11
134.2331961910
21
220.9700831030
0
LINE
8
10000_FRONT
62
7
6
CONTINUOUS
10
133.2227859505
20
226.1977699616
11
133.1612005310
21
226.2929752920
0
LINE
8
10000_FRONT
62
7
6
CONTINUOUS
10
142.3463760347
20
230.3694860765
11
142.4975600919
21
230.0839468610
0
LINE
8
10000_FRONT
62
7
6
CONTINUOUS
10
153.5597129242
20
231.7140080708
11
153.4579427170
21
231.9928806388
0
LINE
8
13000_TOP
62
7
6
CONTINUOUS
10
144.2193340074
20
65.4778459955
11
144.2917048900
21
65.5943984552
0
LINE
8
13000_TOP
62
7
6
CONTINUOUS
10
132.5910837806
20
53.0266770649
11
132.4826974049
21
52.8644812022
0
LINE
8
13000_TOP
62
7
6
CONTINUOUS
10
137.5196010701
20
55.3733049772
11
137.5863386655
21
55.4724166484
0
LINE
8
11000_LEFT
62
7
6
CONTINUOUS
10
268.5202045646
20
233.4233427024
11
268.5219333119
21
233.4258714767
0
LINE
8
13000_TOP
62
7
6
CONTINUOUS
10
141.1304831263
20
54.3620963891
11
141.0345896405
21
54.2253579270
0
LINE
8
11000_LEFT
62
7
6
CONTINUOUS
10
256.3207034740
20
226.4681452241
11
256.3257196050
21
226.4750604779
0
LINE
8
13000_TOP
62
7
6
CONTINUOUS
10
146.9839924882
20
63.2328464895
11
148.1799853120
21
64.8789893891
0
LINE
8
11000_LEFT
62
7
6
CONTINUOUS
10
256.3257196050
20
226.4750604779
11
256.3288315560
21
226.4792943882
0
LINE
8
11000_LEFT
62
7
6
CONTINUOUS
10
256.3135515125
20
226.4585210151
11
256.3207034740
21
226.4681452241
0
LINE
8
11000_LEFT
62
7
6
CONTINUOUS
10
256.3041015763
20
226.4463721614
11
256.3135515125
21
226.4585210151
0
LINE
8
13000_TOP
62
7
6
CONTINUOUS
10
147.3766990660
20
65.1689527473
11
147.4616938530
21
65.2779421243
0
LINE
8
13000_TOP
62
7
6
CONTINUOUS
10
132.9254969860
20
54.6957282923
11
132.8252656163
21
54.5698593595
0
LINE
8
13000_TOP
62
7
6
CONTINUOUS
10
137.3363503521
20
73.6415424767
11
137.0978728025
21
73.3885807776
0
LINE
8
11000_LEFT
62
7
6
CONTINUOUS
10
273.9012044558
20
226.1502439765
11
273.9309367224
21
226.1811404047
0
LINE
8
10000_FRONT
62
7
6
CONTINUOUS
10
134.0646371712
20
140.7334628779
11
134.0878435517
21
140.7350784298
0
LINE
8
10000_FRONT
62
7
6
CONTINUOUS
10
134.0878435517
20
140.7350784298
11
134.1525042865
21
140.7364249915
0
LINE
8
11000_LEFT
62
7
6
CONTINUOUS
10
267.7148836738
20
140.7040226041
11
270.1232609820
21
140.7376520804
0
LINE
8
11000_LEFT
62
7
6
CONTINUOUS
10
257.5148836738
20
150.4485758479
11
259.5232609820
21
150.4766199077
0
LINE
8
10000_FRONT
62
7
6
CONTINUOUS
10
134.1525042865
20
140.7364249915
11
134.2489406346
21
140.7373279455
0
LINE
8
10000_FRONT
62
7
6
CONTINUOUS
10
134.2489406346
20
140.7373279455
11
134.3646273487
21
140.7376520804
0
LINE
8
11000_LEFT
62
7
6
CONTINUOUS
10
257.6390723279
20
138.4007504817
11
267.9390723279
21
138.4007504817
0
LINE
8
11000_LEFT
62
7
6
CONTINUOUS
10
267.1190723279
20
138.8217826544
11
258.8190723279
21
138.8217826544
0
LINE
8
10000_FRONT
62
7
6
CONTINUOUS
10
157.1246371712
20
139.7007504817
11
154.5446371712
21
139.7007504817
0
LINE
8
10000_FRONT
62
7
6
CONTINUOUS
10
136.3446371712
20
139.7007504817
11
133.7646371712
21
139.7007504817
0
LINE
8
10000_FRONT
62
7
6
CONTINUOUS
10
133.7646371712
20
139.8217826544
11
133.7887119672
21
139.8217826544
0
LINE
8
11000_LEFT
62
7
6
CONTINUOUS
10
268.5390723279
20
140.3007504817
11
269.7390723279
21
140.3007504817
0
LINE
8
10000_FRONT
62
7
6
CONTINUOUS
10
156.5246470063
20
140.7376520804
11
155.6024544352
21
140.7376520804
0
LINE
8
10000_FRONT
62
7
6
CONTINUOUS
10
135.2868199072
20
140.7376520804
11
134.3646273487
21
140.7376520804
0
LINE
8
10000_FRONT
62
7
6
CONTINUOUS
10
152.8446371712
20
145.3007504817
11
152.3246371712
21
145.3007504817
0
LINE
8
10000_FRONT
62
7
6
CONTINUOUS
10
150.8046371712
20
145.3007504817
11
150.2846371712
21
145.3007504817
0
LINE
8
10000_FRONT
62
7
6
CONTINUOUS
10
148.7646371712
20
145.3007504817
11
148.2446371712
21
145.3007504817
0
LINE
8
10000_FRONT
62
7
6
CONTINUOUS
10
146.7246371712
20
145.3007504817
11
146.2046371712
21
145.3007504817
0
LINE
8
10000_FRONT
62
7
6
CONTINUOUS
10
144.6846371712
20
145.3007504817
11
144.1646371712
21
145.3007504817
0
LINE
8
10000_FRONT
62
7
6
CONTINUOUS
10
142.6446371712
20
145.3007504817
11
142.1246371712
21
145.3007504817
0
LINE
8
10000_FRONT
62
7
6
CONTINUOUS
10
140.6046371712
20
145.3007504817
11
140.0846371712
21
145.3007504817
0
LINE
8
10000_FRONT
62
7
6
CONTINUOUS
10
138.5646371712
20
145.3007504817
11
138.0446371712
21
145.3007504817
0
LINE
8
10000_FRONT
62
7
6
CONTINUOUS
10
143.2446371712
20
149.5007504817
11
143.6446371712
21
149.5007504817
0
LINE
8
10000_FRONT
62
7
6
CONTINUOUS
10
147.2446371712
20
149.5007504817
11
147.6446371712
21
149.5007504817
0
LINE
8
10000_FRONT
62
7
6
CONTINUOUS
10
156.5246470063
20
140.7376520804
11
156.6403337042
21
140.7373279454
0
LINE
8
10000_FRONT
62
7
6
CONTINUOUS
10
156.6403337042
20
140.7373279454
11
156.7367700488
21
140.7364249914
0
LINE
8
10000_FRONT
62
7
6
CONTINUOUS
10
156.7367700488
20
140.7364249914
11
156.8014307819
21
140.7350784298
0
LINE
8
11000_LEFT
62
7
6
CONTINUOUS
10
253.9516826395
20
141.9398636326
11
255.2752286751
21
141.8678217343
0
LINE
8
11000_LEFT
62
7
6
CONTINUOUS
10
253.9842929512
20
142.5389767835
11
255.3078389867
21
142.4669348852
0
LINE
8
10000_FRONT
62
7
6
CONTINUOUS
10
156.8014307819
20
140.7350784298
11
156.8246371712
21
140.7334628774
0
LINE
8
11000_LEFT
62
7
6
CONTINUOUS
10
253.5722631371
20
143.7818990152
11
252.9755479327
21
143.8445964220
0
LINE
8
10000_FRONT
62
7
6
CONTINUOUS
10
157.5295752534
20
157.5037052446
11
157.6446828696
21
157.4807504817
0
LINE
8
10000_FRONT
62
7
6
CONTINUOUS
10
147.6446371712
20
159.8767914245
11
147.7595005705
21
159.8536694119
0
LINE
8
10000_FRONT
62
7
6
CONTINUOUS
10
146.6446371712
20
152.1792114508
11
146.7544213333
21
152.1552636740
0
LINE
8
10000_FRONT
62
7
6
CONTINUOUS
10
131.8910837806
20
168.0101344803
11
132.0532954550
21
167.9676536554
0
LINE
8
10000_FRONT
62
7
6
CONTINUOUS
10
156.8603688694
20
163.7482315857
11
156.9899196515
21
163.7007302498
0
LINE
8
10000_FRONT
62
7
6
CONTINUOUS
10
137.1315062258
20
163.5237936786
11
137.0358818739
21
163.5595822808
0
LINE
8
10000_FRONT
62
7
6
CONTINUOUS
10
146.8315062258
20
162.1312352004
11
146.7358818738
21
162.1670238026
0
LINE
8
10000_FRONT
62
7
6
CONTINUOUS
10
148.1315062060
20
163.5237936832
11
148.0358818433
21
163.5595822978
0
LINE
8
10000_FRONT
62
7
6
CONTINUOUS
10
147.8567692055
20
164.1345175210
11
147.7594422009
21
164.1718182436
0
LINE
8
10000_FRONT
62
7
6
CONTINUOUS
10
142.4975600919
20
230.0839468610
11
142.7059380519
21
229.7917637180
0
LINE
8
10000_FRONT
62
7
6
CONTINUOUS
10
151.5826528333
20
223.9232762991
11
151.6699859377
21
223.7989515488
0
LINE
8
10000_FRONT
62
7
6
CONTINUOUS
10
153.8141934105
20
223.4338769048
11
153.7275034019
21
223.5636201315
0
LINE
8
10000_FRONT
62
7
6
CONTINUOUS
10
153.4579427170
20
231.9928806388
11
153.3063900163
21
232.2787738956
0
LINE
8
11000_LEFT
62
7
6
CONTINUOUS
10
256.3550457630
20
226.4807504817
11
256.3868797287
21
226.5564527921
0
LINE
8
11000_LEFT
62
7
6
CONTINUOUS
10
273.8678048902
20
226.0971002603
11
273.9012044558
21
226.1502439765
0
LINE
8
11000_LEFT
62
7
6
CONTINUOUS
10
275.3154457699
20
226.2859662206
11
275.4225296176
21
226.4490300255
0
LINE
8
11000_LEFT
62
7
6
CONTINUOUS
10
275.4213942644
20
226.7322065308
11
275.3140385563
21
226.5704986816
0
LINE
8
13000_TOP
62
7
6
CONTINUOUS
10
148.2489677784
20
53.8915394867
11
148.2409482687
21
53.8805200776
0
LINE
8
13000_TOP
62
7
6
CONTINUOUS
10
145.5355309993
20
53.8611504990
11
145.3620788280
21
53.6276247913
0
LINE
8
13000_TOP
62
7
6
CONTINUOUS
10
144.0346978308
20
56.2211971976
11
142.8816164462
21
54.6910065172
0
LINE
8
13000_TOP
62
7
6
CONTINUOUS
10
141.9208327325
20
61.6397592150
11
140.6266069520
21
60.0973609915
0
LINE
8
13000_TOP
62
7
6
CONTINUOUS
10
148.1398226464
20
73.3189993591
11
148.0943170777
21
73.2665062643
0
LINE
8
13000_TOP
62
7
6
CONTINUOUS
10
148.2409482687
20
53.8805200776
11
148.2195524274
21
53.8561184126
0
LINE
8
13000_TOP
62
7
6
CONTINUOUS
10
132.9254969842
20
54.6957282917
11
133.3689654254
21
55.1204212244
0
LINE
8
13000_TOP
62
7
6
CONTINUOUS
10
139.0860552549
20
76.6907949404
11
140.0569492856
21
77.6159876890
0
LINE
8
10000_FRONT
62
7
6
CONTINUOUS
10
156.9427675657
20
140.7576976959
11
156.8246371712
21
140.7334630180
0
LINE
8
10000_FRONT
62
7
6
CONTINUOUS
10
135.4016002417
20
140.7605027760
11
135.2868199072
21
140.7376520804
0
LINE
8
10000_FRONT
62
7
6
CONTINUOUS
10
143.9659028245
20
161.0600444874
11
143.9765022023
21
161.0605850477
0
LINE
8
10000_FRONT
62
7
6
CONTINUOUS
10
143.9552766910
20
161.0597198790
11
143.9659028245
21
161.0600444874
0
LINE
8
10000_FRONT
62
7
6
CONTINUOUS
10
143.9446371712
20
161.0596116308
11
143.9552766910
21
161.0597198790
0
LINE
8
10000_FRONT
62
7
6
CONTINUOUS
10
135.4069918286
20
163.7568612578
11
134.0631866086
21
163.7503636033
0
LINE
8
11000_LEFT
62
7
6
CONTINUOUS
10
258.3190723279
20
151.2007504817
11
259.3329536939
21
151.2007504817
0
LINE
8
11000_LEFT
62
7
6
CONTINUOUS
10
259.3882792732
20
151.2007504817
11
259.8190723279
21
151.2007504817
0
LINE
8
10000_FRONT
62
7
6
CONTINUOUS
10
155.0946371712
20
151.8007504817
11
154.5446371712
21
151.8007504817
0
LINE
8
10000_FRONT
62
7
6
CONTINUOUS
10
136.3446371712
20
151.8007504817
11
135.7946371712
21
151.8007504817
0
LINE
8
10000_FRONT
62
7
6
CONTINUOUS
10
146.6446371712
20
152.1792114508
11
144.2446371712
21
152.1792114508
0
LINE
8
10000_FRONT
62
7
6
CONTINUOUS
10
155.0946371712
20
155.0007504817
11
154.8446371712
21
155.0007504817
0
LINE
8
10000_FRONT
62
7
6
CONTINUOUS
10
136.0446371712
20
155.0007504817
11
135.7946371712
21
155.0007504817
0
LINE
8
11000_LEFT
62
7
6
CONTINUOUS
10
258.3190723279
20
155.6007504817
11
259.8190723279
21
155.6007504817
0
LINE
8
10000_FRONT
62
7
6
CONTINUOUS
10
146.6446371712
20
155.7945401594
11
144.2446371712
21
155.7945401594
0
LINE
8
11000_LEFT
62
7
6
CONTINUOUS
10
270.4190723279
20
156.0945401594
11
270.4436300020
21
156.0945401594
0
LINE
8
11000_LEFT
62
7
6
CONTINUOUS
10
259.5190723279
20
156.4807504817
11
259.4406198423
21
156.4807504817
0
LINE
8
11000_LEFT
62
7
6
CONTINUOUS
10
265.9190723279
20
157.4807504817
11
265.7190723279
21
157.4807504817
0
LINE
8
10000_FRONT
62
7
6
CONTINUOUS
10
158.6446371712
20
157.4807504817
11
157.6481738826
21
157.4807504817
0
LINE
8
10000_FRONT
62
7
6
CONTINUOUS
10
133.2411004598
20
157.4807504817
11
132.2446371712
21
157.4807504817
0
LINE
8
10000_FRONT
62
7
6
CONTINUOUS
10
136.3446371712
20
158.3007504817
11
136.6446371712
21
158.3007504817
0
LINE
8
10000_FRONT
62
7
6
CONTINUOUS
10
154.2446371712
20
158.3007504817
11
154.5446371712
21
158.3007504817
0
LINE
8
10000_FRONT
62
7
6
CONTINUOUS
10
144.2446371712
20
158.3945401594
11
146.6446371712
21
158.3945401594
0
LINE
8
10000_FRONT
62
7
6
CONTINUOUS
10
147.6446371712
20
159.8767914245
11
143.2446371712
21
159.8767914245
0
LINE
8
10000_FRONT
62
7
6
CONTINUOUS
10
143.9446371712
20
161.0371141181
11
146.9446371712
21
161.0371141181
0
LINE
8
10000_FRONT
62
7
6
CONTINUOUS
10
137.2446371712
20
161.0596116308
11
143.9446371712
21
161.0596116308
0
LINE
8
10000_FRONT
62
7
6
CONTINUOUS
10
146.9446371712
20
161.0596116308
11
153.6446371712
21
161.0596116308
0
LINE
8
10000_FRONT
62
7
6
CONTINUOUS
10
146.6446371712
20
161.5007504817
11
144.2446371712
21
161.5007504817
0
LINE
8
10000_FRONT
62
7
6
CONTINUOUS
10
148.2446371347
20
162.1185313083
11
146.9446371712
21
162.1185313083
0
LINE
8
10000_FRONT
62
7
6
CONTINUOUS
10
143.9446371712
20
162.1185313087
11
142.6446372082
21
162.1185313087
0
LINE
8
11000_LEFT
62
7
6
CONTINUOUS
10
245.3034086967
20
162.1807504817
11
249.0190756236
21
162.1807504817
0
LINE
8
10000_FRONT
62
7
6
CONTINUOUS
10
143.2446371712
20
162.6756226689
11
143.9446371712
21
162.6756226689
0
LINE
8
10000_FRONT
62
7
6
CONTINUOUS
10
146.9446371712
20
162.6756226689
11
147.6446371712
21
162.6756226689
0
LINE
8
10000_FRONT
62
7
6
CONTINUOUS
10
147.6446371712
20
163.2491991052
11
146.9446371712
21
163.2491991052
0
LINE
8
10000_FRONT
62
7
6
CONTINUOUS
10
143.9446371712
20
163.2491991052
11
143.2446371712
21
163.2491991052
0
LINE
8
10000_FRONT
62
7
6
CONTINUOUS
10
153.6446371712
20
163.5110897519
11
148.2446371347
21
163.5110897519
0
LINE
8
10000_FRONT
62
7
6
CONTINUOUS
10
142.6446372082
20
163.5110897519
11
137.2446371712
21
163.5110897519
0
LINE
8
10000_FRONT
62
7
6
CONTINUOUS
10
143.8475599893
20
163.5807504817
11
147.0417143104
21
163.5807504817
0
LINE
8
10000_FRONT
62
7
6
CONTINUOUS
10
147.6446371712
20
164.1849165156
11
147.3543256605
21
164.1849165156
0
LINE
8
10000_FRONT
62
7
6
CONTINUOUS
10
143.5351652664
20
164.1849165156
11
143.2446371712
21
164.1849165156
0
LINE
8
10000_FRONT
62
7
6
CONTINUOUS
10
137.2446371712
20
164.3748508560
11
142.6446371712
21
164.3748508560
0
LINE
8
10000_FRONT
62
7
6
CONTINUOUS
10
148.2446371712
20
164.3748508560
11
153.6446371712
21
164.3748508560
0
LINE
8
10000_FRONT
62
7
6
CONTINUOUS
10
153.6446371712
20
165.1079301587
11
148.2446371712
21
165.1079301587
0
LINE
8
10000_FRONT
62
7
6
CONTINUOUS
10
142.6446371712
20
165.1079301587
11
137.2446371712
21
165.1079301587
0
LINE
8
10000_FRONT
62
7
6
CONTINUOUS
10
156.8260877338
20
163.7503636033
11
155.4822746197
21
163.7568612960
0
LINE
8
10000_FRONT
62
7
6
CONTINUOUS
10
146.9339976514
20
161.0597198790
11
146.9446371712
21
161.0596116308
0
LINE
8
10000_FRONT
62
7
6
CONTINUOUS
10
153.7576755853
20
165.5616273764
11
153.8550393027
21
165.5604685671
0
LINE
8
10000_FRONT
62
7
6
CONTINUOUS
10
153.8550393027
20
165.5604685671
11
153.9209664030
21
165.5587232074
0
LINE
8
10000_FRONT
62
7
6
CONTINUOUS
10
146.9233715178
20
161.0600444874
11
146.9339976514
21
161.0597198790
0
LINE
8
10000_FRONT
62
7
6
CONTINUOUS
10
146.9127721400
20
161.0605850477
11
146.9233715178
21
161.0600444874
0
LINE
8
10000_FRONT
62
7
6
CONTINUOUS
10
156.8260763303
20
163.7503624314
11
156.8603688694
21
163.7482315857
0
LINE
8
11000_LEFT
62
7
6
CONTINUOUS
10
262.8160454295
20
159.7442748355
11
262.6122192751
21
159.7595136291
0
LINE
8
10000_FRONT
62
7
6
CONTINUOUS
10
132.0532954550
20
167.9676536554
11
132.2446371712
21
167.9527363735
0
LINE
8
10000_FRONT
62
7
6
CONTINUOUS
10
153.9209664030
20
165.5587232074
11
153.9446371712
21
165.5566351441
0
LINE
8
10000_FRONT
62
7
6
CONTINUOUS
10
146.9446371712
20
162.1185312737
11
146.8315062258
21
162.1312352004
0
LINE
8
10000_FRONT
62
7
6
CONTINUOUS
10
137.2446371712
20
163.5110897519
11
137.1315062258
21
163.5237936786
0
LINE
8
10000_FRONT
62
7
6
CONTINUOUS
10
148.2446371712
20
163.5110897519
11
148.1315062060
21
163.5237936832
0
LINE
8
10000_FRONT
62
7
6
CONTINUOUS
10
137.1298321411
20
161.0727099028
11
137.2446371712
21
161.0596116308
0
LINE
8
10000_FRONT
62
7
6
CONTINUOUS
10
147.7594422009
20
164.1718182436
11
147.6446371712
21
164.1849165156
0
LINE
8
10000_FRONT
62
7
6
CONTINUOUS
10
135.4828992682
20
163.7452390267
11
135.4072294510
21
163.7568623688
0
LINE
8
10000_FRONT
62
7
6
CONTINUOUS
10
143.9446371712
20
162.6756226697
11
144.0577681166
21
162.6574795821
0
LINE
8
10000_FRONT
62
7
6
CONTINUOUS
10
143.2446371712
20
163.2491991052
11
143.1315062272
21
163.2673421924
0
LINE
8
10000_FRONT
62
7
6
CONTINUOUS
10
143.1298321415
20
162.6943289399
11
143.2446371712
21
162.6756226689
0
LINE
8
10000_FRONT
62
7
6
CONTINUOUS
10
144.0594422009
20
163.2304928343
11
143.9446371712
21
163.2491991052
0
LINE
8
11000_LEFT
62
7
6
CONTINUOUS
10
258.1520244379
20
156.6124444518
11
258.5202556225
21
156.5517598675
0
LINE
8
10000_FRONT
62
7
6
CONTINUOUS
10
153.6446371712
20
164.3748508560
11
153.7577681165
21
164.3556695882
0
LINE
8
10000_FRONT
62
7
6
CONTINUOUS
10
142.6446371712
20
164.3748508558
11
142.7594422009
21
164.3550741782
0
LINE
8
10000_FRONT
62
7
6
CONTINUOUS
10
153.7594422009
20
165.0881534811
11
153.6446371712
21
165.1079301586
0
LINE
8
10000_FRONT
62
7
6
CONTINUOUS
10
143.7441240088
20
163.5991299190
11
143.8475583202
21
163.5807574633
0
LINE
8
10000_FRONT
62
7
6
CONTINUOUS
10
142.7799096742
20
165.0800190930
11
142.6446371712
21
165.1079301587
0
LINE
8
10000_FRONT
62
7
6
CONTINUOUS
10
153.0972551159
20
232.5715934501
11
152.8192871688
21
232.8714851067
0
LINE
8
10000_FRONT
62
7
6
CONTINUOUS
10
142.7059380519
20
229.7917637180
11
142.9822330152
21
229.4930633164
0
LINE
8
10000_FRONT
62
7
6
CONTINUOUS
10
153.3063900163
20
232.2787738956
11
153.0972551159
21
232.5715934501
0
LINE
8
11000_LEFT
62
7
6
CONTINUOUS
10
256.3868797287
20
226.5564527921
11
256.4059047429
21
226.6364353840
0
LINE
8
13000_TOP
62
7
6
CONTINUOUS
10
142.8816164494
20
54.6910065150
11
142.6792572303
21
54.4900422547
0
LINE
8
13000_TOP
62
7
6
CONTINUOUS
10
148.1799850567
20
64.8789895972
11
148.2803868009
21
64.9758084347
0
LINE
8
13000_TOP
62
7
6
CONTINUOUS
10
144.2917048900
20
65.5943984552
11
144.4026529572
21
65.6814959050
0
LINE
8
13000_TOP
62
7
6
CONTINUOUS
10
133.4914685212
20
55.2109564761
11
133.3689654251
21
55.1204212241
0
LINE
8
13000_TOP
62
7
6
CONTINUOUS
10
148.0943170777
20
73.2665062643
11
148.0377762048
21
73.2278605247
0
LINE
8
13000_TOP
62
7
6
CONTINUOUS
10
137.0978728025
20
73.3885807776
11
136.8397953414
21
73.2374410870
0
LINE
8
13000_TOP
62
7
6
CONTINUOUS
10
140.0569492856
20
77.6159876890
11
141.0993450388
21
78.1841742250
0
LINE
8
11000_LEFT
62
7
6
CONTINUOUS
10
254.3891035170
20
139.2054108927
11
253.8610218480
21
138.9205780455
0
LINE
8
11000_LEFT
62
7
6
CONTINUOUS
10
255.7191724781
20
134.9760631088
11
256.2826237494
21
135.1822733532
0
LINE
8
10000_FRONT
62
7
6
CONTINUOUS
10
144.2446371712
20
152.1792114508
11
144.1261196882
21
152.1512430459
0
LINE
8
10000_FRONT
62
7
6
CONTINUOUS
10
133.9414041806
20
163.7238879138
11
134.0631863241
21
163.7503636011
0
LINE
8
10000_FRONT
62
7
6
CONTINUOUS
10
148.2446371712
20
165.1079301587
11
148.1093646682
21
165.0800190930
0
LINE
8
10000_FRONT
62
7
6
CONTINUOUS
10
143.1299693039
20
159.8537512983
11
143.2446371712
21
159.8767914245
0
LINE
8
10000_FRONT
62
7
6
CONTINUOUS
10
133.2445914657
20
157.4807504817
11
133.3596893927
21
157.5037012234
0
LINE
8
10000_FRONT
62
7
6
CONTINUOUS
10
147.0417165336
20
163.5807572699
11
147.1525250240
21
163.6019450948
0
LINE
8
10000_FRONT
62
7
6
CONTINUOUS
10
148.1265066112
20
164.3538609018
11
148.2446371712
21
164.3748508559
0
LINE
8
10000_FRONT
62
7
6
CONTINUOUS
10
137.1265066112
20
164.3538609018
11
137.2446371712
21
164.3748508559
0
LINE
8
10000_FRONT
62
7
6
CONTINUOUS
10
137.2446371712
20
165.1079301587
11
137.1298321415
21
165.0881534811
0
LINE
8
10000_FRONT
62
7
6
CONTINUOUS
10
146.8265066345
20
162.6557687978
11
146.9446371712
21
162.6756226689
0
LINE
8
10000_FRONT
62
7
6
CONTINUOUS
10
147.7627677067
20
163.2690529763
11
147.6446371712
21
163.2491991056
0
LINE
8
10000_FRONT
62
7
6
CONTINUOUS
10
147.6446371712
20
162.6756226689
11
147.7594422009
21
162.6943289399
0
LINE
8
10000_FRONT
62
7
6
CONTINUOUS
10
146.9446371712
20
163.2491991052
11
146.8298321415
21
163.2304928342
0
LINE
8
10000_FRONT
62
7
6
CONTINUOUS
10
155.4059832375
20
163.7451063473
11
155.4820426664
21
163.7568590127
0
LINE
8
10000_FRONT
62
7
6
CONTINUOUS
10
144.0627677079
20
162.1324331068
11
143.9446371712
21
162.1185312766
0
LINE
8
10000_FRONT
62
7
6
CONTINUOUS
10
153.7627677312
20
163.5249915882
11
153.6446371712
21
163.5110897523
0
LINE
8
10000_FRONT
62
7
6
CONTINUOUS
10
153.6446371712
20
161.0596116308
11
153.7594422009
21
161.0727099027
0
LINE
8
10000_FRONT
62
7
6
CONTINUOUS
10
142.7594422009
20
163.5241880239
11
142.6446372082
21
163.5110897519
0
LINE
8
10000_FRONT
62
7
6
CONTINUOUS
10
143.2446371712
20
164.1849165156
11
143.1298321415
21
164.1718182436
0
LINE
8
10000_FRONT
62
7
6
CONTINUOUS
10
136.9446371712
20
165.5566351441
11
136.9676948290
21
165.5586970096
0
LINE
8
10000_FRONT
62
7
6
CONTINUOUS
10
158.6446371712
20
167.9527363735
11
158.8359788874
21
167.9676536554
0
LINE
8
10000_FRONT
62
7
6
CONTINUOUS
10
136.9676948290
20
165.5586970096
11
137.0336671164
21
165.5604584559
0
LINE
8
10000_FRONT
62
7
6
CONTINUOUS
10
155.1646371712
20
165.5404468037
11
157.2446524017
21
165.5807352512
0
LINE
8
10000_FRONT
62
7
6
CONTINUOUS
10
137.0336671164
20
165.5604584559
11
137.1314135824
21
165.5616259994
0
LINE
8
10000_FRONT
62
7
6
CONTINUOUS
10
133.5749026262
20
165.4528223778
11
135.7246371712
21
165.4528223778
0
LINE
8
10000_FRONT
62
7
6
CONTINUOUS
10
155.1646371712
20
165.5404468037
11
153.9446371712
21
165.5404468037
0
LINE
8
10000_FRONT
62
7
6
CONTINUOUS
10
136.9446371712
20
165.5404468037
11
135.7246371712
21
165.5404468037
0
LINE
8
10000_FRONT
62
7
6
CONTINUOUS
10
137.1314135824
20
165.5616259994
11
142.6446371712
21
165.5620290789
0
LINE
8
10000_FRONT
62
7
6
CONTINUOUS
10
147.5991319740
20
165.5613928908
11
153.6446371712
21
165.5620290789
0
LINE
8
10000_FRONT
62
7
6
CONTINUOUS
10
132.2446371712
20
167.9527363736
11
158.6446371712
21
167.9527363736
0
LINE
8
10000_FRONT
62
7
6
CONTINUOUS
10
131.7446371712
20
172.6560018470
11
159.1446371712
21
172.6560018466
0
LINE
8
10000_FRONT
62
7
6
CONTINUOUS
10
140.6355815152
20
176.7007504817
11
151.0155815152
21
176.7007504817
0
LINE
8
11000_LEFT
62
7
6
CONTINUOUS
10
251.6190723279
20
178.4807504817
11
249.8190723279
21
178.4807504817
0
LINE
8
10000_FRONT
62
7
6
CONTINUOUS
10
148.1474548893
20
178.6201252152
11
147.5701936197
21
178.6201252152
0
LINE
8
10000_FRONT
62
7
6
CONTINUOUS
10
142.6446371712
20
165.5620290789
11
143.2899702110
21
165.5613928908
0
LINE
8
10000_FRONT
62
7
6
CONTINUOUS
10
153.6446371712
20
165.5620290789
11
153.7576755853
21
165.5616273764
0
LINE
8
10000_FRONT
62
7
6
CONTINUOUS
10
145.4028381410
20
197.2086889500
11
142.8233123607
21
198.3193990941
0
LINE
8
10000_FRONT
62
7
6
CONTINUOUS
10
145.3049482601
20
198.4427342240
11
148.2795054316
21
197.1619287170
0
LINE
8
11000_LEFT
62
7
6
CONTINUOUS
10
245.0571898903
20
162.2335975786
11
243.9728535211
21
162.7215489447
0
LINE
8
11000_LEFT
62
7
6
CONTINUOUS
10
245.6597369349
20
160.9328714999
11
252.9509411925
21
157.4551454651
0
LINE
8
10000_FRONT
62
7
6
CONTINUOUS
10
132.7557464641
20
226.1728996950
11
132.5931158802
21
226.2802834486
0
LINE
8
10000_FRONT
62
7
6
CONTINUOUS
10
134.2331961910
20
220.9700831030
11
134.3336174556
21
220.9034276266
0
LINE
8
10000_FRONT
62
7
6
CONTINUOUS
10
132.5910839068
20
226.5239750158
11
132.7532958068
21
226.4155920968
0
LINE
8
10000_FRONT
62
7
6
CONTINUOUS
10
153.7275034019
20
223.5636201315
11
153.5977602438
21
223.6503081088
0
LINE
8
10000_FRONT
62
7
6
CONTINUOUS
10
143.3343350561
20
229.1941221766
11
143.7696194871
21
228.9021759176
0
LINE
8
10000_FRONT
62
7
6
CONTINUOUS
10
134.2321529611
20
220.9690639894
11
134.3293045415
21
220.9038355444
0
LINE
8
10000_FRONT
62
7
6
CONTINUOUS
10
151.6699859377
20
223.7989515488
11
151.7918438525
21
223.7170684966
0
LINE
8
10000_FRONT
62
7
6
CONTINUOUS
10
133.1612005310
20
226.2929752920
11
133.0650494251
21
226.3601412446
0
LINE
8
10000_FRONT
62
7
6
CONTINUOUS
10
152.8192871688
20
232.8714851067
11
152.4648277256
21
233.1715605821
0
LINE
8
10000_FRONT
62
7
6
CONTINUOUS
10
142.9822330152
20
229.4930633164
11
143.3343350561
21
229.1941221766
0
LINE
8
11000_LEFT
62
7
6
CONTINUOUS
10
255.3269403090
20
131.0886184360
11
255.5390723299
21
130.8764864150
0
LINE
8
90000_FRAME
62
7
6
CONTINUOUS
10
308.8496008213
20
21.4969115175
11
310.5370113459
21
18.5498846858
0
LINE
8
90000_FRAME
62
7
6
CONTINUOUS
10
309.9666190559
20
16.7436424342
11
308.2554421859
21
19.7857346475
0
LINE
8
90000_FRAME
62
7
6
CONTINUOUS
10
298.2973434565
20
16.6961097434
11
296.9664281131
21
19.7857346475
0
LINE
8
90000_FRAME
62
7
6
CONTINUOUS
10
297.7269511665
20
21.4969115175
11
298.9628011281
21
18.5974173767
0
LINE
8
11000_LEFT
62
7
6
CONTINUOUS
10
255.0866109928
20
144.3081525483
11
253.9106667968
21
156.0895940563
0
LINE
8
11000_LEFT
62
7
6
CONTINUOUS
10
255.9108959354
20
143.0978260655
11
255.8526753576
21
143.6811210337
0
LINE
8
11000_LEFT
62
7
6
CONTINUOUS
10
256.5079292774
20
143.1574179154
11
255.2042390378
21
156.2187097309
0
LINE
8
11000_LEFT
62
7
6
CONTINUOUS
10
243.6190723279
20
163.2687018477
11
243.6190723279
21
207.6311872434
0
LINE
8
11000_LEFT
62
7
6
CONTINUOUS
10
248.8190723279
20
225.7807504817
11
248.8190723279
21
218.2594514479
0
LINE
8
91000_TIP
62
7
6
CONTINUOUS
10
249.0651746053
20
21.3746346567
11
249.0651746053
21
16.3746346567
0
LINE
8
11000_LEFT
62
7
6
CONTINUOUS
10
249.2190723279
20
177.8807504817
11
249.2190723279
21
163.6869694488
0
LINE
8
11000_LEFT
62
7
6
CONTINUOUS
10
249.7790723279
20
226.6366539444
11
249.7790723279
21
235.0179198171
0
LINE
8
11000_LEFT
62
7
6
CONTINUOUS
10
250.0190723279
20
160.2612205812
11
250.0190723279
21
161.1807504817
0
LINE
8
11000_LEFT
62
7
6
CONTINUOUS
10
252.2190723279
20
162.3008821039
11
252.2190723279
21
177.8807504817
0
LINE
8
11000_LEFT
62
7
6
CONTINUOUS
10
254.5390723279
20
129.3007504817
11
254.5390723279
21
132.1764864130
0
LINE
8
11000_LEFT
62
7
6
CONTINUOUS
10
255.5390723279
20
130.8764864130
11
255.5390723279
21
129.3007504817
0
LINE
8
11000_LEFT
62
7
6
CONTINUOUS
10
250.3790635617
20
226.1358370623
11
250.3790684258
21
226.1811403570
0
LINE
8
11000_LEFT
62
7
6
CONTINUOUS
10
255.6134869113
20
226.0807504817
11
255.6157196784
21
226.2406502569
0
LINE
8
11000_LEFT
62
7
6
CONTINUOUS
10
256.4059047429
20
226.6364353840
11
256.4115603412
21
226.7187219373
0
LINE
8
11000_LEFT
62
7
6
CONTINUOUS
10
252.7256419191
20
141.4661452954
11
252.9755462205
21
143.8445801265
0
LINE
8
11000_LEFT
62
7
6
CONTINUOUS
10
253.3223571235
20
141.4034478886
11
253.5722614249
21
143.7818827196
0
LINE
8
11000_LEFT
62
7
6
CONTINUOUS
10
273.8456553236
20
226.0359731974
11
273.8678048902
21
226.0971002603
0
LINE
8
11000_LEFT
62
7
6
CONTINUOUS
10
258.4115041515
20
157.9281187045
11
258.2035661168
21
157.3653027721
0
LINE
8
11000_LEFT
62
7
6
CONTINUOUS
10
255.3157176087
20
131.0773962978
11
255.3156752060
21
131.0773491038
0
LINE
8
11000_LEFT
62
7
6
CONTINUOUS
10
254.6269402935
20
132.3886184473
11
254.8512043622
21
132.6128825161
0
LINE
8
11000_LEFT
62
7
6
CONTINUOUS
10
255.3156704837
20
131.0773471229
11
256.2512043622
21
132.0128825160
0
LINE
8
11000_LEFT
62
7
6
CONTINUOUS
10
255.5390723279
20
130.8764864130
11
256.4633363966
21
131.8007504817
0
LINE
8
13000_TOP
62
7
6
CONTINUOUS
10
145.3620788280
20
53.6276247913
11
145.1231376506
21
53.4508955034
0
LINE
8
13000_TOP
62
7
6
CONTINUOUS
10
148.2195524274
20
53.8561184126
11
148.1872041531
21
53.8340103244
0
LINE
8
13000_TOP
62
7
6
CONTINUOUS
10
132.7532954550
20
53.1350528755
11
132.5910837806
21
53.0266770649
0
LINE
8
13000_TOP
62
7
6
CONTINUOUS
10
137.4233517415
20
55.3096710861
11
137.5196010701
21
55.3733049772
0
LINE
8
13000_TOP
62
7
6
CONTINUOUS
10
147.4616938530
20
65.2779421243
11
147.5772821293
21
65.3509132902
0
LINE
8
13000_TOP
62
7
6
CONTINUOUS
10
138.0428429681
20
65.5903994661
11
138.0429229370
21
65.5904481976
0
LINE
8
13000_TOP
62
7
6
CONTINUOUS
10
141.2728092659
20
54.4474023842
11
141.1304831263
21
54.3620963891
0
LINE
8
13000_TOP
62
7
6
CONTINUOUS
10
132.4446371721
20
66.7410303565
11
132.4749120036
21
66.7572329512
0
LINE
8
10000_FRONT
62
7
6
CONTINUOUS
10
158.8359788874
20
167.9676536554
11
158.9981905618
21
168.0101344803
0
LINE
8
10000_FRONT
62
7
6
CONTINUOUS
10
143.0397770006
20
182.5541133104
11
143.7930820155
21
182.5541133104
0
LINE
8
10000_FRONT
62
7
6
CONTINUOUS
10
148.2004088961
20
183.5715240247
11
142.9024088961
21
183.5715240247
0
LINE
8
10000_FRONT
62
7
6
CONTINUOUS
10
145.4898242453
20
184.6974585485
11
148.2004088961
21
184.6974585485
0
LINE
8
11000_LEFT
62
7
6
CONTINUOUS
10
262.7190723279
20
185.0307504817
11
262.6190723279
21
185.0307504817
0
LINE
8
10000_FRONT
62
7
6
CONTINUOUS
10
145.6919236941
20
187.6140359294
11
142.9024088961
21
187.6140359294
0
LINE
8
11000_LEFT
62
7
6
CONTINUOUS
10
262.6190723279
20
188.7307504817
11
262.7190723279
21
188.7307504817
0
LINE
8
10000_FRONT
62
7
6
CONTINUOUS
10
142.9024088961
20
188.7399704533
11
148.2004088961
21
188.7399704533
0
LINE
8
10000_FRONT
62
7
6
CONTINUOUS
10
148.2004088961
20
189.6895537866
11
147.6503255628
21
189.6895537866
0
LINE
8
10000_FRONT
62
7
6
CONTINUOUS
10
143.5469505628
20
189.6895537866
11
142.9024088961
21
189.6895537866
0
LINE
8
10000_FRONT
62
7
6
CONTINUOUS
10
145.8666469913
20
190.0558216437
11
145.4120219913
21
190.0558216437
0
LINE
8
10000_FRONT
62
7
6
CONTINUOUS
10
147.2503255628
20
192.3212561675
11
146.2666469913
21
192.3212561675
0
LINE
8
10000_FRONT
62
7
6
CONTINUOUS
10
145.0120219913
20
192.3212561675
11
143.9469505628
21
192.3212561675
0
LINE
8
10000_FRONT
62
7
6
CONTINUOUS
10
142.9024088961
20
193.9219823580
11
148.2004088961
21
193.9219823580
0
LINE
8
10000_FRONT
62
7
6
CONTINUOUS
10
143.7696194871
20
228.9021759176
11
144.2973900885
21
228.6244694315
0
LINE
8
10000_FRONT
62
7
6
CONTINUOUS
10
152.4648277256
20
233.1715605821
11
152.0267785052
21
233.4642674170
0
LINE
8
11000_LEFT
62
7
6
CONTINUOUS
10
255.1231812199
20
136.5805276113
11
252.8629089898
21
140.7710847873
0
LINE
8
11000_LEFT
62
7
6
CONTINUOUS
10
255.6512628890
20
136.8653604585
11
253.3909906589
21
141.0559176345
0
LINE
8
11000_LEFT
62
7
6
CONTINUOUS
10
260.6715412901
20
129.6863429669
11
259.9390723279
21
131.6007504817
0
LINE
8
11000_LEFT
62
7
6
CONTINUOUS
10
255.1703406896
20
136.4756974742
11
256.7165356044
21
132.2508564967
0
LINE
8
11000_LEFT
62
7
6
CONTINUOUS
10
257.0390723279
20
133.1153444550
11
255.7337919609
21
136.6819077186
0
LINE
8
11000_LEFT
62
7
6
CONTINUOUS
10
255.9147990676
20
226.2700986002
11
255.9150747662
21
226.2503544255
0
LINE
8
11000_LEFT
62
7
6
CONTINUOUS
10
256.4115603412
20
226.7187219373
11
256.3057992209
21
234.2928119974
0
LINE
8
11000_LEFT
62
7
6
CONTINUOUS
10
256.7179316879
20
233.4239445039
11
256.8148832654
21
226.4807504817
0
LINE
8
11000_LEFT
62
7
6
CONTINUOUS
10
262.1232609820
20
223.5017542823
11
262.1190723279
21
223.8017250395
0
LINE
8
11000_LEFT
62
7
6
CONTINUOUS
10
265.3800830910
20
226.4807504866
11
265.3817687783
21
225.6807504817
0
LINE
8
11000_LEFT
62
7
6
CONTINUOUS
10
257.0390723279
20
131.8007504817
11
257.0390723279
21
137.8007504817
0
LINE
8
11000_LEFT
62
7
6
CONTINUOUS
10
257.2190723279
20
150.1486050557
11
257.2190723279
21
140.4217826541
0
LINE
8
11000_LEFT
62
7
6
CONTINUOUS
10
258.0190723279
20
155.3007504817
11
258.0190723279
21
151.5007504817
0
LINE
8
11000_LEFT
62
7
6
CONTINUOUS
10
258.2035661168
20
157.3653027721
11
258.2035661168
21
156.9079837137
0
LINE
8
91000_TIP
62
7
6
CONTINUOUS
10
259.0651746053
20
23.8746346567
11
259.0651746053
21
13.8746346567
0
LINE
8
11000_LEFT
62
7
6
CONTINUOUS
10
259.2190723279
20
138.8217826544
11
259.2190723279
21
138.4007504817
0
LINE
8
11000_LEFT
62
7
6
CONTINUOUS
10
259.2190723279
20
150.4723723568
11
259.2190723279
21
151.2007504817
0
LINE
8
11000_LEFT
62
7
6
CONTINUOUS
10
259.6329536939
20
155.3007504817
11
259.6329536939
21
151.5007504817
0
LINE
8
11000_LEFT
62
7
6
CONTINUOUS
10
259.8190723279
20
150.7765906649
11
259.8190723279
21
156.1807504817
0
LINE
8
11000_LEFT
62
7
6
CONTINUOUS
10
260.3190723279
20
220.5849102985
11
260.3190723279
21
223.7765906649
0
LINE
8
11000_LEFT
62
7
6
CONTINUOUS
10
260.6190723279
20
223.4807504817
11
260.6190723279
21
220.8807504817
0
LINE
8
11000_LEFT
62
7
6
CONTINUOUS
10
260.9390723279
20
127.3007504817
11
260.9390723279
21
129.3007504817
0
LINE
8
11000_LEFT
62
7
6
CONTINUOUS
10
262.6190723279
20
159.9430951902
11
262.6190723279
21
220.6251637000
0
LINE
8
11000_LEFT
62
7
6
CONTINUOUS
10
262.6190723279
20
220.7173528343
11
262.6190723279
21
225.7807504817
0
LINE
8
11000_LEFT
62
7
6
CONTINUOUS
10
262.7190723279
20
160.4807504817
11
262.7190723279
21
225.2207504817
0
LINE
8
91000_TIP
62
7
6
CENTER
10
265.5651746053
20
13.1531536567
11
265.5651746053
21
24.4365396567
0
LINE
8
11000_LEFT
62
7
6
CONTINUOUS
10
267.4190723279
20
140.4040518469
11
267.4190723279
21
139.1217826544
0
LINE
8
11000_LEFT
62
7
6
CONTINUOUS
10
267.9390723279
20
138.4007504817
11
267.9390723279
21
139.7007504817
0
LINE
8
11000_LEFT
62
7
6
CONTINUOUS
10
268.8190723279
20
225.6807504817
11
268.8190723279
21
226.1807504829
0
LINE
8
11000_LEFT
62
7
6
CONTINUOUS
10
270.3390723279
20
140.8352231445
11
270.3390723279
21
130.5007504805
0
LINE
8
11000_LEFT
62
7
6
CONTINUOUS
10
270.4190723279
20
160.6806387394
11
270.4190723279
21
141.0376228507
0
LINE
8
11000_LEFT
62
7
6
CONTINUOUS
10
270.4436300020
20
155.7945401594
11
270.4436300020
21
156.0945401594
0
LINE
8
11000_LEFT
62
7
6
CONTINUOUS
10
268.5202130723
20
233.4239519844
11
268.4232613903
21
226.4807504817
0
LINE
8
11000_LEFT
62
7
6
CONTINUOUS
10
268.8190723279
20
226.1807504829
11
268.9323454327
21
234.2928118246
0
LINE
8
11000_LEFT
62
7
6
CONTINUOUS
10
269.3328382109
20
226.3763929206
11
269.3328545903
21
226.3775659315
0
LINE
8
11000_LEFT
62
7
6
CONTINUOUS
10
273.8371281123
20
225.9649643709
11
273.8456553236
21
226.0359731974
0
LINE
8
11000_LEFT
62
7
6
CONTINUOUS
10
268.5468591565
20
233.6391357182
11
268.5202045334
21
233.4233403728
0
LINE
8
11000_LEFT
62
7
6
CONTINUOUS
10
258.2035661167
20
156.9079837137
11
258.1520244379
21
156.6124444518
0
LINE
8
11000_LEFT
62
7
6
CONTINUOUS
10
275.4225296176
20
226.4490300255
11
275.4590723279
21
226.6366539444
0
LINE
8
11000_LEFT
62
7
6
CONTINUOUS
10
275.4590723279
20
226.9226105324
11
275.4213942644
21
226.7322065308
0
LINE
8
13000_TOP
62
7
6
CONTINUOUS
10
142.6792572303
20
54.4900422547
11
142.4360068792
21
54.3572080079
0
LINE
8
13000_TOP
62
7
6
CONTINUOUS
10
148.2803868009
20
64.9758084347
11
148.4064565774
21
65.0319021875
0
LINE
8
13000_TOP
62
7
6
CONTINUOUS
10
138.9627294044
20
57.4855385010
11
138.9434151938
21
57.4772719270
0
LINE
8
13000_TOP
62
7
6
CONTINUOUS
10
141.7442559312
20
64.7139185166
11
141.6116278092
21
64.6593934330
0
LINE
8
13000_TOP
62
7
6
CONTINUOUS
10
148.0377762048
20
73.2278605247
11
147.9739353902
21
73.2021888048
0
LINE
8
13000_TOP
62
7
6
CONTINUOUS
10
133.6328223272
20
55.2677245450
11
133.4914685212
21
55.2109564761
0
LINE
8
13000_TOP
62
7
6
CONTINUOUS
10
144.4026529572
20
65.6814959050
11
144.5393000412
21
65.7249789811
0
LINE
8
10000_FRONT
62
7
6
CONTINUOUS
10
148.2004088961
20
195.2242680723
11
142.9024088961
21
195.2242680723
0
LINE
8
10000_FRONT
62
7
6
CONTINUOUS
10
142.9024088961
20
196.8249942627
11
145.3237416060
21
196.8249942627
0
LINE
8
10000_FRONT
62
7
6
CONTINUOUS
10
145.4404730681
20
201.1523811675
11
142.9024088961
21
201.1523811675
0
LINE
8
10000_FRONT
62
7
6
CONTINUOUS
10
142.9024088961
20
202.2783156913
11
148.2004088961
21
202.2783156913
0
LINE
8
10000_FRONT
62
7
6
CONTINUOUS
10
148.2004088961
20
203.2278990247
11
147.6503255628
21
203.2278990247
0
LINE
8
10000_FRONT
62
7
6
CONTINUOUS
10
143.5469505628
20
203.2278990247
11
142.9024088961
21
203.2278990247
0
LINE
8
10000_FRONT
62
7
6
CONTINUOUS
10
145.8666469913
20
203.5941668818
11
145.4120219913
21
203.5941668818
0
LINE
8
10000_FRONT
62
7
6
CONTINUOUS
10
147.2503255628
20
205.8596014056
11
146.2666469913
21
205.8596014056
0
LINE
8
10000_FRONT
62
7
6
CONTINUOUS
10
145.0120219913
20
205.8596014056
11
143.9469505628
21
205.8596014056
0
LINE
8
10000_FRONT
62
7
6
CONTINUOUS
10
142.9024088961
20
207.4603275961
11
148.2004088961
21
207.4603275961
0
LINE
8
10000_FRONT
62
7
6
CONTINUOUS
10
148.1727779437
20
208.7626133104
11
142.9431053247
21
208.7626133104
0
LINE
8
10000_FRONT
62
7
6
CONTINUOUS
10
134.3336174556
20
220.9034276266
11
134.4230351732
21
220.8859800407
0
LINE
8
10000_FRONT
62
7
6
CONTINUOUS
10
134.3293045415
20
220.9038355444
11
134.4445914936
21
220.8807504956
0
LINE
8
10000_FRONT
62
7
6
CONTINUOUS
10
133.0650494251
20
226.3601412446
11
132.9446371712
21
226.3853661844
0
LINE
8
10000_FRONT
62
7
6
CONTINUOUS
10
144.9289275913
20
228.3699657183
11
145.6732054732
21
228.1519520694
0
LINE
8
10000_FRONT
62
7
6
CONTINUOUS
10
151.4957512225
20
233.7423782106
11
150.8601886042
21
233.9969372044
0
LINE
8
10000_FRONT
62
7
6
CONTINUOUS
10
144.2973900885
20
228.6244694315
11
144.9289275913
21
228.3699657183
0
LINE
8
10000_FRONT
62
7
6
CONTINUOUS
10
152.0267785052
20
233.4642674170
11
151.4957512225
21
233.7423782106
0
LINE
8
11000_LEFT
62
7
6
CONTINUOUS
10
249.8156150382
20
226.4490300255
11
249.7790723279
21
226.6366539444
0
LINE
8
11000_LEFT
62
7
6
CONTINUOUS
10
256.7179401227
20
233.4233403700
11
256.6912861255
21
233.6391330653
0
LINE
8
11000_LEFT
62
7
6
CONTINUOUS
10
273.8371281174
20
225.6807504817
11
273.8371281174
21
225.9648546718
0
LINE
8
11000_LEFT
62
7
6
CONTINUOUS
10
274.8590723279
20
226.1808480007
11
274.8590723279
21
226.1366699802
0
LINE
8
90000_FRAME
62
7
6
CONTINUOUS
10
275.0000000000
20
10.0000000000
11
275.0000000000
21
28.0000000000
0
LINE
8
11000_LEFT
62
7
6
CONTINUOUS
10
275.4590723279
20
226.6366539444
11
275.4590723279
21
235.0179198162
0
LINE
8
11000_LEFT
62
7
6
CONTINUOUS
10
275.6190723279
20
225.2207504817
11
275.6190723279
21
172.6560018470
0
LINE
8
90000_FRAME
62
7
6
CONTINUOUS
10
284.7029938783
20
16.8387078159
11
284.7029938783
21
17.7893616325
0
LINE
8
13000_TOP
62
7
6
CONTINUOUS
10
145.1231376506
20
53.4508955034
11
144.9558360711
21
53.3926977520
0
LINE
8
13000_TOP
62
7
6
CONTINUOUS
10
144.3077689508
20
63.1420467638
11
144.1020222380
21
63.0773269317
0
LINE
8
11000_LEFT
62
7
6
CONTINUOUS
10
274.9630765167
20
226.1367026824
11
275.1541072963
21
226.1762914426
0
LINE
8
11000_LEFT
62
7
6
CONTINUOUS
10
275.1531850538
20
226.4618584575
11
274.9630765167
21
226.4226592704
0
LINE
8
11000_LEFT
62
7
6
CONTINUOUS
10
255.9697410066
20
226.2547193161
11
256.0229953602
21
226.2648957924
0
LINE
8
11000_LEFT
62
7
6
CONTINUOUS
10
255.6265001497
20
226.2420564017
11
255.6157196784
21
226.2406502569
0
LINE
8
11000_LEFT
62
7
6
CONTINUOUS
10
255.9150747662
20
226.2503544255
11
255.9697410066
21
226.2547193161
0
LINE
8
11000_LEFT
62
7
6
CONTINUOUS
10
260.6190723279
20
223.4807504817
11
262.3232609846
21
223.5045469906
0
LINE
8
11000_LEFT
62
7
6
CONTINUOUS
10
262.1190723279
20
223.8017250395
11
260.3190723279
21
223.7765906649
0
LINE
8
11000_LEFT
62
7
6
CONTINUOUS
10
262.1190723279
20
223.8017250148
11
262.6190723279
21
223.8045177509
0
LINE
8
10000_FRONT
62
7
6
CONTINUOUS
10
148.9274436820
20
220.8807504817
11
144.8563421883
21
220.8728428191
0
LINE
8
10000_FRONT
62
7
6
CONTINUOUS
10
142.9431053247
20
210.3633395009
11
148.1727779437
21
210.3633395009
0
LINE
8
11000_LEFT
62
7
6
CONTINUOUS
10
262.7190723279
20
210.8767758691
11
262.6190723279
21
210.8767758691
0
LINE
8
10000_FRONT
62
7
6
CONTINUOUS
10
148.1474548893
20
212.0867623865
11
147.5701936197
21
212.0867623865
0
LINE
8
11000_LEFT
62
7
6
CONTINUOUS
10
262.6190723279
20
215.0097271834
11
262.7190723279
21
215.0097271834
0
LINE
8
10000_FRONT
62
7
6
CONTINUOUS
10
143.0397770007
20
216.0207504817
11
143.7222630141
21
216.0207504817
0
LINE
8
10000_FRONT
62
7
6
CONTINUOUS
10
151.0155815152
20
217.7007504817
11
140.6355815152
21
217.7007504817
0
LINE
8
10000_FRONT
62
7
6
CONTINUOUS
10
148.9274436820
20
220.8807504817
11
153.5446828626
21
220.8807504817
0
LINE
8
10000_FRONT
62
7
6
CONTINUOUS
10
134.4446359791
20
220.8807492881
11
139.4574670476
21
220.8807504883
0
LINE
8
10000_FRONT
62
7
6
CONTINUOUS
10
139.9478775850
20
220.8734216212
11
144.6423008175
21
220.8739164387
0
LINE
8
11000_LEFT
62
7
6
CONTINUOUS
10
262.6190723279
20
221.6765618279
11
262.7190723279
21
221.6765618279
0
LINE
8
10000_FRONT
62
7
6
CONTINUOUS
10
135.8336713840
20
223.6814331047
11
134.5438936262
21
223.6814331047
0
LINE
8
10000_FRONT
62
7
6
CONTINUOUS
10
153.4446980928
20
223.6807504814
11
153.0073216162
21
223.6807789672
0
LINE
8
10000_FRONT
62
7
6
CONTINUOUS
10
152.5635018253
20
223.6807537287
11
152.2373191037
21
223.6815953066
0
LINE
8
10000_FRONT
62
7
6
CONTINUOUS
10
144.8563421883
20
220.8728428191
11
144.6423008175
21
220.8739164387
0
LINE
8
11000_LEFT
62
7
6
CONTINUOUS
10
262.6190723279
20
220.5569832080
11
262.1190723279
21
220.5597759239
0
LINE
8
10000_FRONT
62
7
6
CONTINUOUS
10
153.0073216162
20
223.6807789672
11
152.9238650446
21
223.6814469473
0
LINE
8
10000_FRONT
62
7
6
CONTINUOUS
10
152.2373191037
20
223.6815953066
11
151.9446371712
21
223.6842414947
0
LINE
8
10000_FRONT
62
7
6
CONTINUOUS
10
152.9238650446
20
223.6814469473
11
152.8875357529
21
223.6818087399
0
LINE
8
11000_LEFT
62
7
6
CONTINUOUS
10
260.3190723279
20
220.5849102985
11
262.1190723279
21
220.5597759239
0
LINE
8
11000_LEFT
62
7
6
CONTINUOUS
10
260.6190723279
20
220.8807504817
11
262.3232609820
21
220.8569539728
0
LINE
8
10000_FRONT
62
7
6
CONTINUOUS
10
139.9478775850
20
220.8734216212
11
139.4574670476
21
220.8807504883
0
LINE
8
10000_FRONT
62
7
6
CONTINUOUS
10
146.5221507730
20
227.9899725622
11
147.4388881575
21
227.9040505535
0
LINE
8
10000_FRONT
62
7
6
CONTINUOUS
10
150.1115541057
20
234.2143495423
11
149.2595032804
21
234.3747774660
0
LINE
8
10000_FRONT
62
7
6
CONTINUOUS
10
132.9503557455
20
226.1358696963
11
132.7557464641
21
226.1728996950
0
LINE
8
10000_FRONT
62
7
6
CONTINUOUS
10
145.6732054732
20
228.1519520694
11
146.5221507730
21
227.9899725622
0
LINE
8
10000_FRONT
62
7
6
CONTINUOUS
10
153.5977602438
20
223.6503081088
11
153.4446980929
21
223.6807504815
0
LINE
8
10000_FRONT
62
7
6
CONTINUOUS
10
132.7532958068
20
226.4155920968
11
132.9389185969
21
226.3775659315
0
LINE
8
10000_FRONT
62
7
6
CONTINUOUS
10
151.7918438525
20
223.7170684966
11
151.9446371712
21
223.6842414947
0
LINE
8
10000_FRONT
62
7
6
CONTINUOUS
10
150.8601886042
20
233.9969372044
11
150.1115541057
21
234.2143495423
0
LINE
8
11000_LEFT
62
7
6
CONTINUOUS
10
270.4223760871
20
156.2150771005
11
270.4436300020
21
156.0945401594
0
LINE
8
11000_LEFT
62
7
6
CONTINUOUS
10
270.4190723279
20
157.9614447949
11
270.7390723279
21
156.1466346127
0
LINE
8
11000_LEFT
62
7
6
CONTINUOUS
10
268.8574067473
20
226.6997118700
11
268.8286914820
21
226.8696268775
0
LINE
8
90000_FRAME
62
7
6
CONTINUOUS
10
288.0302822366
20
20.4987250100
11
288.0302822366
21
21.4493788266
0
LINE
8
90000_FRAME
62
7
6
CONTINUOUS
10
289.1235341257
20
21.4969115175
11
289.1235341257
21
16.7436424342
0
LINE
8
90000_FRAME
62
7
6
CONTINUOUS
10
290.5495148507
20
21.4969115175
11
290.5495148507
21
16.7436424342
0
LINE
8
90000_FRAME
62
7
6
CONTINUOUS
10
291.6427667399
20
21.4969115175
11
291.6427667399
21
16.7436424342
0
LINE
8
90000_FRAME
62
7
6
CONTINUOUS
10
293.0212147740
20
20.6175567371
11
293.0212147740
21
19.5480711933
0
LINE
8
90000_FRAME
62
7
6
CONTINUOUS
10
293.0212147740
20
18.7637817946
11
293.0212147740
21
17.6467635600
0
LINE
8
90000_FRAME
62
7
6
CONTINUOUS
10
294.8749897165
20
19.5480711933
11
294.8749897165
21
18.7637817946
0
LINE
8
90000_FRAME
62
7
6
CONTINUOUS
10
295.1601858615
20
21.4969115175
11
295.1601858615
21
20.6175567371
0
LINE
8
90000_FRAME
62
7
6
CONTINUOUS
10
295.2077185523
20
17.6467635600
11
295.2077185523
21
16.7436424342
0
LINE
8
90000_FRAME
62
7
6
CONTINUOUS
10
296.0157742965
20
16.7436424342
11
296.0157742965
21
21.4969115175
0
LINE
8
90000_FRAME
62
7
6
CONTINUOUS
10
296.9664281131
20
16.7436424342
11
296.9664281131
21
19.7857346475
0
LINE
8
10000_FRONT
62
7
6
CONTINUOUS
10
153.6594794775
20
220.9035822622
11
153.5446828625
21
220.8807504819
0
LINE
8
10000_FRONT
62
7
6
CONTINUOUS
10
149.2948150777
20
227.9917247519
11
150.1384826928
21
228.1536453834
0
LINE
8
10000_FRONT
62
7
6
CONTINUOUS
10
157.9389185969
20
226.1358696963
11
158.1335278783
21
226.1728996950
0
LINE
8
10000_FRONT
62
7
6
CONTINUOUS
10
158.1306830987
20
226.1725708727
11
157.9389185969
21
226.1367026824
0
LINE
8
10000_FRONT
62
7
6
CONTINUOUS
10
134.4567919473
20
223.6718661856
11
134.5000781010
21
223.6790589979
0
LINE
8
10000_FRONT
62
7
6
CONTINUOUS
10
135.8710988478
20
223.6831711270
11
135.9081977652
21
223.6884222084
0
LINE
8
11000_LEFT
62
7
6
CONTINUOUS
10
254.1564069903
20
236.0374768618
11
250.2007828390
21
235.5120091603
0
LINE
8
10000_FRONT
62
7
6
CONTINUOUS
10
148.3789609360
20
227.9046706117
11
149.2948150777
21
227.9917247519
0
LINE
8
10000_FRONT
62
7
6
CONTINUOUS
10
134.5000781010
20
223.6790589979
11
134.5438936262
21
223.6814331047
0
LINE
8
11000_LEFT
62
7
6
CONTINUOUS
10
254.2631112714
20
236.0431860611
11
254.1564069903
21
236.0374768618
0
LINE
8
10000_FRONT
62
7
6
CONTINUOUS
10
132.9618379912
20
226.3862126433
11
132.9428656485
21
226.3853127165
0
LINE
8
11000_LEFT
62
7
6
CONTINUOUS
10
255.6588056163
20
226.2435621466
11
255.6265001497
21
226.2420564017
0
LINE
8
10000_FRONT
62
7
6
CONTINUOUS
10
135.8336713840
20
223.6814331047
11
135.8710988478
21
223.6831711270
0
LINE
8
11000_LEFT
62
7
6
CONTINUOUS
10
255.6588056163
20
226.2435621466
11
255.9150747662
21
226.2503544255
0
LINE
8
11000_LEFT
62
7
6
CONTINUOUS
10
274.8617422949
20
226.1810104427
11
274.8564040077
21
226.1808804837
0
LINE
8
11000_LEFT
62
7
6
CONTINUOUS
10
254.7146958734
20
226.2081913272
11
253.4606218538
21
226.1811403570
0
LINE
8
10000_FRONT
62
7
6
CONTINUOUS
10
148.1069023748
20
228.3954948958
11
148.1052913808
21
228.3954603793
0
LINE
8
11000_LEFT
62
7
6
CONTINUOUS
10
253.4499126531
20
226.1809671140
11
253.4606219369
21
226.1811403570
0
LINE
8
10000_FRONT
62
7
6
CONTINUOUS
10
145.4446371712
20
236.0431860606
11
142.2269100642
21
235.9912733819
0
LINE
8
11000_LEFT
62
7
6
CONTINUOUS
10
254.7146958734
20
226.2081913272
11
254.9154934431
21
226.2113976546
0
LINE
8
10000_FRONT
62
7
6
CONTINUOUS
10
133.0025212113
20
226.3867240395
11
132.9618379912
21
226.3862126433
0
LINE
8
10000_FRONT
62
7
6
CONTINUOUS
10
133.2440140143
20
226.1392654356
11
132.9503557455
21
226.1358696963
0
LINE
8
11000_LEFT
62
7
6
CONTINUOUS
10
254.9154934431
20
226.2113976546
11
255.3947247583
21
226.2156856412
0
LINE
8
11000_LEFT
62
7
6
CONTINUOUS
10
274.8590810941
20
226.1358370623
11
274.9630767786
21
226.1366699802
0
LINE
8
11000_LEFT
62
7
6
CONTINUOUS
10
269.3328548522
20
226.3775332294
11
274.9630765167
21
226.4226592704
0
LINE
8
10000_FRONT
62
7
6
CONTINUOUS
10
152.8875357529
20
223.6818087399
11
152.5635018253
21
223.6807537287
0
LINE
8
10000_FRONT
62
7
6
CONTINUOUS
10
148.3418324954
20
234.4585366916
11
147.4021412048
21
234.4556732980
0
LINE
8
11000_LEFT
62
7
6
CONTINUOUS
10
255.3947247583
20
226.2156856412
11
255.6153789974
21
226.2162523574
0
LINE
8
10000_FRONT
62
7
6
CONTINUOUS
10
147.4388881575
20
227.9040505535
11
148.3789609360
21
227.9046706117
0
LINE
8
10000_FRONT
62
7
6
CONTINUOUS
10
132.2046371712
20
225.6807504817
11
136.4240089050
21
225.6807504817
0
LINE
8
10000_FRONT
62
7
6
CONTINUOUS
10
152.0446371712
20
225.6807504817
11
158.6446371712
21
225.6807504817
0
LINE
8
11000_LEFT
62
7
6
CONTINUOUS
10
263.1790723279
20
225.6807504817
11
275.1590735149
21
225.6807504817
0
LINE
8
10000_FRONT
62
7
6
CONTINUOUS
10
132.0446371712
20
226.0807504817
11
133.2446371712
21
226.0807504817
0
LINE
8
10000_FRONT
62
7
6
CONTINUOUS
10
156.3446371595
20
226.0807504817
11
158.8446371712
21
226.0807504817
0
LINE
8
11000_LEFT
62
7
6
CONTINUOUS
10
249.1190723279
20
226.0807504817
11
262.3190723279
21
226.0807504817
0
LINE
8
10000_FRONT
62
7
6
CONTINUOUS
10
151.8610653924
20
226.1809671140
11
153.9810880890
21
226.1809454527
0
LINE
8
11000_LEFT
62
7
6
CONTINUOUS
10
253.4499126531
20
226.1809671140
11
250.3764032739
21
226.1809454527
0
LINE
8
11000_LEFT
62
7
6
CONTINUOUS
10
274.8617413818
20
226.1809454527
11
273.9307491161
21
226.1809454527
0
LINE
8
11000_LEFT
62
7
6
CONTINUOUS
10
250.3790684258
20
226.1811403570
11
253.4606218538
21
226.1811403570
0
LINE
8
11000_LEFT
62
7
6
CONTINUOUS
10
273.9309367224
20
226.1811404047
11
274.8590723279
21
226.1811404047
0
LINE
8
11000_LEFT
62
7
6
CONTINUOUS
10
256.3550537253
20
226.4807504817
11
268.8232613903
21
226.4807504817
0
LINE
8
10000_FRONT
62
7
6
CONTINUOUS
10
153.8005982277
20
236.0431860611
11
145.4446371711
21
236.0431860611
0
LINE
8
11000_LEFT
62
7
6
CONTINUOUS
10
254.2631112714
20
236.0431860611
11
270.9750333844
21
236.0431860611
0
LINE
8
10000_FRONT
62
7
6
CONTINUOUS
10
133.4736634036
20
226.3862862631
11
133.0025212113
21
226.3867240395
0
LINE
8
10000_FRONT
62
7
6
CONTINUOUS
10
134.3716919787
20
226.3835306575
11
133.4736634036
21
226.3862862631
0
LINE
8
10000_FRONT
62
7
6
CONTINUOUS
10
134.7282076963
20
226.3807167681
11
134.3716919787
21
226.3835306575
0
LINE
8
11000_LEFT
62
7
6
CONTINUOUS
10
250.3790635617
20
226.1358370623
11
250.2750678771
21
226.1366699802
0
LINE
8
10000_FRONT
62
7
6
CONTINUOUS
10
141.0995789163
20
226.3083472989
11
136.8835898957
21
226.3460620997
0
LINE
8
10000_FRONT
62
7
6
CONTINUOUS
10
144.2781568092
20
226.2676580676
11
148.9007176255
21
226.2208275758
0
LINE
8
10000_FRONT
62
7
6
CONTINUOUS
10
153.9810880890
20
226.1809454527
11
157.9389185969
21
226.1358696963
0
LINE
8
10000_FRONT
62
7
6
CONTINUOUS
10
132.9389177740
20
226.3775499061
11
132.9844339959
21
226.3770292213
0
LINE
8
10000_FRONT
62
7
6
CONTINUOUS
10
144.2781568092
20
226.2676580676
11
141.0995789163
21
226.3083472989
0
LINE
8
10000_FRONT
62
7
6
CONTINUOUS
10
135.1064523034
20
226.3756327305
11
134.7282076963
21
226.3807167681
0
LINE
8
10000_FRONT
62
7
6
CONTINUOUS
10
151.8457925550
20
226.1811404047
11
148.9090586528
21
226.2264164907
0
LINE
8
11000_LEFT
62
7
6
CONTINUOUS
10
253.4285903886
20
226.1811404047
11
253.4392345894
21
226.1809671140
0
LINE
8
10000_FRONT
62
7
6
CONTINUOUS
10
136.8835898957
20
226.3460620997
11
135.1064523034
21
226.3756327305
0
LINE
8
10000_FRONT
62
7
6
CONTINUOUS
10
148.1053066650
20
233.9660402551
11
148.1069435847
21
233.9660051697
0
LINE
8
11000_LEFT
62
7
6
CONTINUOUS
10
274.8590734988
20
226.1807505102
11
274.8614111686
21
226.1806855692
0
LINE
8
11000_LEFT
62
7
6
CONTINUOUS
10
274.8564040077
20
226.1808804837
11
274.8590734988
21
226.1807505102
0
LINE
8
10000_FRONT
62
7
6
CONTINUOUS
10
153.8005982277
20
236.0431860611
11
153.9073025087
21
236.0374768618
0
LINE
8
11000_LEFT
62
7
6
CONTINUOUS
10
269.3328382109
20
226.3763929206
11
269.2469449529
21
226.3823877379
0
LINE
8
10000_FRONT
62
7
6
CONTINUOUS
10
149.2595032804
20
234.3747774660
11
148.3418324954
21
234.4585366916
0
LINE
8
11000_LEFT
62
7
6
CONTINUOUS
10
250.2750681391
20
226.1367026823
11
250.0840373595
21
226.1762914426
0
LINE
8
11000_LEFT
62
7
6
CONTINUOUS
10
269.2469449529
20
226.3823877379
11
269.1613830877
21
226.4035233508
0
LINE
8
11000_LEFT
62
7
6
CONTINUOUS
10
250.0840373595
20
226.1762914426
11
249.9226988858
21
226.2859662206
0
LINE
8
11000_LEFT
62
7
6
CONTINUOUS
10
260.6190723279
20
223.4807504817
11
260.3190723279
21
223.7765906649
0
LINE
8
11000_LEFT
62
7
6
CONTINUOUS
10
249.9226988858
20
226.2859662206
11
249.8156150382
21
226.4490300255
0
LINE
8
90000_FRAME
62
7
6
CONTINUOUS
10
300.4838472348
20
19.8332673383
11
300.4838472348
21
16.7436424342
0
LINE
8
90000_FRAME
62
7
6
CONTINUOUS
10
301.8622952689
20
21.4969115175
11
301.8622952689
21
16.7436424342
0
LINE
8
90000_FRAME
62
7
6
CONTINUOUS
10
302.9555471581
20
21.4969115175
11
302.9555471581
21
16.7436424342
0
LINE
8
90000_FRAME
62
7
6
CONTINUOUS
10
304.3339951922
20
20.6175567371
11
304.3339951922
21
19.5480711933
0
LINE
8
90000_FRAME
62
7
6
CONTINUOUS
10
304.3339951922
20
18.7637817946
11
304.3339951922
21
17.6467635600
0
LINE
8
90000_FRAME
62
7
6
CONTINUOUS
10
306.1877701347
20
19.5480711933
11
306.1877701347
21
18.7637817946
0
LINE
8
90000_FRAME
62
7
6
CONTINUOUS
10
306.4729662797
20
21.4969115175
11
306.4729662797
21
20.6175567371
0
LINE
8
90000_FRAME
62
7
6
CONTINUOUS
10
306.5204989705
20
17.6467635600
11
306.5204989705
21
16.7436424342
0
LINE
8
90000_FRAME
62
7
6
CONTINUOUS
10
307.3047883693
20
16.7436424342
11
307.3047883693
21
21.4969115175
0
LINE
8
90000_FRAME
62
7
6
CONTINUOUS
10
308.2554421859
20
16.7436424342
11
308.2554421859
21
19.7857346475
0
LINE
8
90000_FRAME
62
7
6
CONTINUOUS
10
310.5370113459
20
21.4969115175
11
310.5370113459
21
18.5498846858
0
LINE
8
90000_FRAME
62
7
6
CONTINUOUS
10
311.4876651625
20
21.4969115175
11
311.4876651625
21
16.7436424342
0
LINE
8
90000_FRAME
62
7
6
CONTINUOUS
10
312.2957209067
20
16.8387078159
11
312.2957209067
21
17.7893616325
0
LINE
8
10000_FRONT
62
7
6
CONTINUOUS
10
134.4145635788
20
223.6599424739
11
134.4567919473
21
223.6718661856
0
LINE
8
10000_FRONT
62
7
6
CONTINUOUS
10
135.9081977652
20
223.6884222084
11
135.9446371697
21
223.6971395031
0
LINE
8
10000_FRONT
62
7
6
CONTINUOUS
10
146.4877924650
20
234.3665773012
11
145.6472833908
21
234.2032331490
0
LINE
8
10000_FRONT
62
7
6
CONTINUOUS
10
132.8653320296
20
235.1354190989
11
133.4160323342
21
235.2221753950
0
LINE
8
10000_FRONT
62
7
6
CONTINUOUS
10
133.4160323342
20
235.2221753950
11
133.6868474031
21
235.2633809258
0
LINE
8
10000_FRONT
62
7
6
CONTINUOUS
10
138.2382502326
20
235.7680952830
11
133.6960475001
21
235.2691356865
0
LINE
8
10000_FRONT
62
7
6
CONTINUOUS
10
135.8186622670
20
235.5316512649
11
137.7704268989
21
235.7241715999
0
LINE
8
10000_FRONT
62
7
6
CONTINUOUS
10
147.4021412048
20
234.4556732980
11
146.4877924650
21
234.3665773012
0
LINE
8
10000_FRONT
62
7
6
CONTINUOUS
10
142.2435754002
20
235.9918199839
11
138.2308183356
21
235.7672788914
0
LINE
8
11000_LEFT
62
7
6
CONTINUOUS
10
270.9749736043
20
236.0431860593
11
271.0817376654
21
236.0374768618
0
LINE
8
11000_LEFT
62
7
6
CONTINUOUS
10
271.0817376654
20
236.0374768618
11
275.0373628695
21
235.5120089934
0
LINE
8
11000_LEFT
62
7
6
CONTINUOUS
10
273.8334312925
20
225.9659783548
11
273.8371281174
21
225.9649955912
0
LINE
8
11000_LEFT
62
7
6
CONTINUOUS
10
269.1613830877
20
226.4035233508
11
269.0795083163
21
226.4400073272
0
LINE
8
11000_LEFT
62
7
6
CONTINUOUS
10
269.0795083163
20
226.4400073272
11
268.9432102775
21
226.5519767651
0
LINE
8
11000_LEFT
62
7
6
CONTINUOUS
10
268.9432102775
20
226.5519767651
11
268.8574067473
21
226.6997118700
0
LINE
8
90000_FRAME
62
7
6
CONTINUOUS
10
315.6230092650
20
20.4987250100
11
315.6230092650
21
21.4493788266
0
LINE
8
90000_FRAME
62
7
6
CONTINUOUS
10
325.0000000000
20
10.0000000000
11
325.0000000000
21
28.0000000000
0
LINE
8
90000_FRAME
62
7
6
CONTINUOUS
10
300.1511183989
20
21.4969115175
11
298.9628011281
21
18.5974173767
0
LINE
8
90000_FRAME
62
7
6
CONTINUOUS
10
300.4838472348
20
19.8332673383
11
299.1529318914
21
16.6961097434
0
LINE
8
90000_FRAME
62
7
6
CONTINUOUS
10
284.8948224676
20
20.9161059766
11
285.1688882922
21
21.1901790542
0
LINE
8
90000_FRAME
62
7
6
CONTINUOUS
10
415.0000000000
20
292.0000000000
11
5.0000000000
21
292.0000000000
0
LINE
8
90000_FRAME
62
7
6
CONTINUOUS
10
420.0000000000
20
297.0000000000
11
0.0000000000
21
297.0000000000
0
LINE
8
90000_FRAME
62
7
6
CONTINUOUS
10
367.5000000000
20
10.0000000000
11
367.5000000000
21
16.0000000000
0
LINE
8
90000_FRAME
62
7
6
CONTINUOUS
10
410.0000000000
20
10.0000000000
11
410.0000000000
21
28.0000000000
0
LINE
8
90000_FRAME
62
7
6
CONTINUOUS
10
415.0000000000
20
5.0000000000
11
415.0000000000
21
292.0000000000
0
LINE
8
90000_FRAME
62
7
6
CONTINUOUS
10
420.0000000000
20
0.0000000000
11
420.0000000000
21
297.0000000000
0
ARC
8
90000_FRAME
62
7
6
CONTINUOUS
10
314.0003608039
20
18.7008050724
40
1.1116235815
50
277.7100301034
51
295.6884583519
0
ARC
8
90000_FRAME
62
7
6
CONTINUOUS
10
314.2846720609
20
17.9759752229
40
0.3401689055
50
305.5032141708
51
72.4652969400
0
ARC
8
90000_FRAME
62
7
6
CONTINUOUS
10
313.7186787675
20
21.3776921234
40
4.7568043493
50
252.5939496302
51
280.9816308490
0
ARC
8
90000_FRAME
62
7
6
CONTINUOUS
10
314.1735133747
20
18.7596687689
40
2.1007270084
50
282.4058388107
51
311.8644404278
0
ARC
8
90000_FRAME
62
7
6
CONTINUOUS
10
313.8999488635
20
20.3680100590
40
0.3029623460
50
154.4399968134
51
221.8202079190
0
ARC
8
90000_FRAME
62
7
6
CONTINUOUS
10
313.9791700232
20
20.2887894406
40
0.4103084261
50
102.8287500922
51
149.2259966650
0
ARC
8
90000_FRAME
62
7
6
CONTINUOUS
10
314.3961970383
20
18.5464562788
40
2.2018339392
50
84.0399945988
51
103.3427773691
0
ARC
8
90000_FRAME
62
7
6
CONTINUOUS
10
314.0552237815
20
16.1290493707
40
4.6424149443
50
70.2626424094
51
82.9523620903
0
ARC
8
90000_FRAME
62
7
6
CONTINUOUS
10
313.5412144849
20
20.8007057940
40
3.2587494400
50
247.5299862484
51
280.7579865828
0
ARC
8
90000_FRAME
62
7
6
CONTINUOUS
10
307.1560078422
20
2.5486420763
40
17.3322092586
50
65.3415031488
51
67.3997413952
0
ARC
8
90000_FRAME
62
7
6
CONTINUOUS
10
317.9521529319
20
28.3417086013
40
10.6292630172
50
242.8620298482
51
247.1041831868
0
ARC
8
90000_FRAME
62
7
6
CONTINUOUS
10
314.0972076920
20
20.8076843619
40
2.1662878325
50
227.3119145152
51
242.7040451006
0
ARC
8
90000_FRAME
62
7
6
CONTINUOUS
10
313.4931817233
20
20.1020114017
40
1.2385246838
50
194.7952571656
51
225.7176171564
0
ARC
8
90000_FRAME
62
7
6
CONTINUOUS
10
313.5553355887
20
20.1422298287
40
1.3090905092
50
164.1974666764
51
195.8025333236
0
ARC
8
90000_FRAME
62
7
6
CONTINUOUS
10
314.1123595820
20
19.2539683791
40
2.3669192065
50
86.2217605144
51
120.4273020065
0
ARC
8
90000_FRAME
62
7
6
CONTINUOUS
10
313.8434963521
20
12.5577313337
40
9.0679689757
50
78.6827353519
51
87.3147295340
0
ARC
8
90000_FRAME
62
7
6
CONTINUOUS
10
313.3874371387
20
20.2497365809
40
1.1197497796
50
142.8139436741
51
167.1522693697
0
ARC
8
90000_FRAME
62
7
6
CONTINUOUS
10
313.7327429847
20
19.9431574051
40
1.5805447032
50
121.2140819859
51
141.5254896910
0
ARC
8
90000_FRAME
62
7
6
CONTINUOUS
10
314.3099172352
20
20.7542114436
40
0.8661253356
50
222.7760172878
51
239.0362648967
0
ARC
8
90000_FRAME
62
7
6
CONTINUOUS
10
311.8032500914
20
13.4240252617
40
6.8586801419
50
59.9019706110
51
68.2037047720
0
ARC
8
90000_FRAME
62
7
6
CONTINUOUS
10
315.2116979321
20
22.3498149798
40
2.6987273135
50
240.0481709249
51
251.3779962368
0
ARC
8
90000_FRAME
62
7
6
CONTINUOUS
10
314.5462414384
20
18.1929324493
40
1.4334535307
50
315.8904927901
51
333.5228889821
0
ARC
8
90000_FRAME
62
7
6
CONTINUOUS
10
314.5508858061
20
18.1395217642
40
1.4062276810
50
335.3867781220
51
24.3915310819
0
ARC
8
90000_FRAME
62
7
6
CONTINUOUS
10
314.4786831264
20
18.0616681742
40
1.5046981399
50
25.9562414820
51
59.4835331468
0
ARC
8
90000_FRAME
62
7
6
CONTINUOUS
10
286.4076337755
20
18.7008050724
40
1.1116235815
50
277.7100301035
51
295.6884583519
0
ARC
8
90000_FRAME
62
7
6
CONTINUOUS
10
286.6919450325
20
17.9759752229
40
0.3401689055
50
305.5032141708
51
72.4652969400
0
ARC
8
90000_FRAME
62
7
6
CONTINUOUS
10
286.1259517391
20
21.3776921234
40
4.7568043493
50
252.5939496302
51
280.9816308490
0
ARC
8
90000_FRAME
62
7
6
CONTINUOUS
10
286.5807863462
20
18.7596687687
40
2.1007270082
50
282.4058388132
51
311.8644404303
0
ARC
8
90000_FRAME
62
7
6
CONTINUOUS
10
286.3072218350
20
20.3680100589
40
0.3029623460
50
154.4399967965
51
221.8202079021
0
ARC
8
90000_FRAME
62
7
6
CONTINUOUS
10
286.3864429948
20
20.2887894406
40
0.4103084261
50
102.8287500922
51
149.2259966650
0
ARC
8
90000_FRAME
62
7
6
CONTINUOUS
10
286.8034700099
20
18.5464562788
40
2.2018339392
50
84.0399945988
51
103.3427773691
0
ARC
8
90000_FRAME
62
7
6
CONTINUOUS
10
286.4624967531
20
16.1290493707
40
4.6424149443
50
70.2626424094
51
82.9523620903
0
ARC
8
90000_FRAME
62
7
6
CONTINUOUS
10
285.9484874565
20
20.8007057940
40
3.2587494400
50
247.5299862484
51
280.7579865828
0
ARC
8
90000_FRAME
62
7
6
CONTINUOUS
10
279.5632808137
20
2.5486420735
40
17.3322092612
50
65.3415031525
51
67.3997413989
0
ARC
8
90000_FRAME
62
7
6
CONTINUOUS
10
290.3594259034
20
28.3417086013
40
10.6292630172
50
242.8620298482
51
247.1041831868
0
ARC
8
90000_FRAME
62
7
6
CONTINUOUS
10
286.5044806636
20
20.8076843615
40
2.1662878322
50
227.3119145096
51
242.7040450949
0
ARC
8
90000_FRAME
62
7
6
CONTINUOUS
10
285.9004546949
20
20.1020114017
40
1.2385246838
50
194.7952571656
51
225.7176171564
0
ARC
8
90000_FRAME
62
7
6
CONTINUOUS
10
286.5196325535
20
19.2539683793
40
2.3669192063
50
86.2217605153
51
120.4273020074
0
ARC
8
90000_FRAME
62
7
6
CONTINUOUS
10
286.2507693236
20
12.5577313331
40
9.0679689764
50
78.6827353524
51
87.3147295345
0
ARC
8
90000_FRAME
62
7
6
CONTINUOUS
10
286.1400159563
20
19.9431574051
40
1.5805447032
50
121.2140819859
51
141.5254896910
0
ARC
8
90000_FRAME
62
7
6
CONTINUOUS
10
286.7171902068
20
20.7542114439
40
0.8661253358
50
222.7760173025
51
239.0362649114
0
ARC
8
90000_FRAME
62
7
6
CONTINUOUS
10
284.2105230629
20
13.4240252610
40
6.8586801425
50
59.9019706136
51
68.2037047745
0
ARC
8
90000_FRAME
62
7
6
CONTINUOUS
10
287.6189709036
20
22.3498149793
40
2.6987273130
50
240.0481709205
51
251.3779962323
0
ARC
8
90000_FRAME
62
7
6
CONTINUOUS
10
286.9535144099
20
18.1929324496
40
1.4334535309
50
315.8904927794
51
333.5228889715
0
ARC
8
90000_FRAME
62
7
6
CONTINUOUS
10
286.9581587777
20
18.1395217641
40
1.4062276810
50
335.3867781270
51
24.3915310868
0
ARC
8
90000_FRAME
62
7
6
CONTINUOUS
10
286.8859560980
20
18.0616681742
40
1.5046981399
50
25.9562414820
51
59.4835331468
0
ARC
8
90000_FRAME
62
7
6
CONTINUOUS
10
285.9626085603
20
20.1422298287
40
1.3090905092
50
164.1974666764
51
195.8025333236
0
ARC
8
90000_FRAME
62
7
6
CONTINUOUS
10
285.7947101103
20
20.2497365809
40
1.1197497796
50
142.8139436741
51
167.1522693697
0
CIRCLE
8
91000_TIP
62
7
6
CONTINUOUS
10
265.5651746053
20
18.8746346567
40
5.0000000000
0
CIRCLE
8
91000_TIP
62
7
6
CONTINUOUS
10
265.5651746053
20
18.8746346567
40
2.5000000000
0
ARC
8
10000_FRONT
62
7
6
CONTINUOUS
10
157.9446371716
20
234.9926421164
40
0.5000000000
50
0.0000000000
51
80.8736981209
0
ARC
8
10000_FRONT
62
7
6
CONTINUOUS
10
145.4446371712
20
157.1807504817
40
79.3095202356
50
80.8326435025
51
83.8746336176
0
ARC
8
10000_FRONT
62
7
6
CONTINUOUS
10
132.2446371712
20
157.9807504817
40
0.5000000000
50
180.0000000000
51
270.0000000000
0
ARC
8
10000_FRONT
62
7
6
CONTINUOUS
10
158.6446371712
20
157.9807504817
40
0.5000000000
50
270.0000000000
51
359.9999025605
0
ARC
8
10000_FRONT
62
7
6
CONTINUOUS
10
136.4239905580
20
225.2207504817
40
0.4600000000
50
0.8000849756
51
90.0000000000
0
ARC
8
10000_FRONT
62
7
6
CONTINUOUS
10
156.5246371712
20
129.9007504817
40
0.6000000000
50
270.0000000000
51
359.9999947580
0
ARC
8
10000_FRONT
62
7
6
CONTINUOUS
10
133.1646365529
20
156.8807491321
40
0.6000013638
50
0.0001289235
51
82.4632565674
0
ARC
8
10000_FRONT
62
7
6
CONTINUOUS
10
157.7246363343
20
156.8807499036
40
0.6000005913
50
97.2075480085
51
179.9996278862
0
ARC
8
10000_FRONT
62
7
6
CONTINUOUS
10
132.0446371712
20
225.7807504817
40
0.3000000000
50
90.0000000000
51
180.0000000000
0
ARC
8
10000_FRONT
62
7
6
CONTINUOUS
10
158.8446371712
20
225.7807504817
40
0.3000000000
50
0.0000000014
51
89.9999955421
0
ARC
8
10000_FRONT
62
7
6
CONTINUOUS
10
156.6986074703
20
225.7807504817
40
0.3000000000
50
90.0000000000
51
180.0000000000
0
ARC
8
10000_FRONT
62
7
6
CONTINUOUS
10
132.2046371712
20
225.2207504817
40
0.4600000000
50
89.9999999995
51
179.9999999995
0
ARC
8
10000_FRONT
62
7
6
CONTINUOUS
10
143.7930820155
20
182.3541133104
40
0.2000000000
50
343.2088448147
51
90.0000000000
0
ARC
8
10000_FRONT
62
7
6
CONTINUOUS
10
144.1143904752
20
180.1123275961
40
0.3662678571
50
194.0210312822
51
331.5368415064
0
ARC
8
10000_FRONT
62
7
6
CONTINUOUS
10
146.9082968514
20
180.9395251910
40
1.6956845238
50
119.7586875508
51
151.5368415355
0
ARC
8
10000_FRONT
62
7
6
CONTINUOUS
10
146.8072988682
20
181.1161728342
40
1.4922023810
50
28.3593500379
51
119.7586875452
0
ARC
8
10000_FRONT
62
7
6
CONTINUOUS
10
145.3748077057
20
180.3429406913
40
3.1200595238
50
0.0000000000
51
28.3593500328
0
ARC
8
10000_FRONT
62
7
6
CONTINUOUS
10
140.3555815152
20
180.3429406913
40
8.1392857143
50
348.9417064927
51
359.9999999979
0
ARC
8
10000_FRONT
62
7
6
CONTINUOUS
10
148.1474548893
20
178.8201252152
40
0.2000000000
50
270.0000000000
51
348.9417064927
0
ARC
8
10000_FRONT
62
7
6
CONTINUOUS
10
147.5701936197
20
178.8201252152
40
0.2000000000
50
166.5855847567
51
270.0000010602
0
ARC
8
10000_FRONT
62
7
6
CONTINUOUS
10
140.8439386580
20
180.4243335485
40
6.7149107143
50
346.5855852688
51
358.2893825601
0
ARC
8
10000_FRONT
62
7
6
CONTINUOUS
10
146.1999137748
20
180.2643785267
40
1.3565476190
50
358.2893824970
51
28.4631584580
0
ARC
8
10000_FRONT
62
7
6
CONTINUOUS
10
147.0704922295
20
180.7363395009
40
0.3662678571
50
28.4631585783
51
151.5368415359
0
ARC
8
10000_FRONT
62
7
6
CONTINUOUS
10
144.3498361409
20
179.7596252152
40
1.5600297619
50
204.2173765952
51
331.5368415502
0
ARC
8
10000_FRONT
62
7
6
CONTINUOUS
10
145.5251891242
20
180.2882783068
40
2.8488000000
50
184.2687810051
51
204.2173766337
0
ARC
8
10000_FRONT
62
7
6
CONTINUOUS
10
150.8009981818
20
180.6820775962
40
8.1392857143
50
167.8423204493
51
184.2687810060
0
ARC
8
10000_FRONT
62
7
6
CONTINUOUS
10
143.0397770006
20
182.3541133104
40
0.2000000000
50
90.0000000000
51
167.8423204493
0
ARC
8
10000_FRONT
62
7
6
CONTINUOUS
10
145.6674260058
20
180.5001484019
40
1.9669940476
50
178.2663238707
51
194.0210313015
0
ARC
8
10000_FRONT
62
7
6
CONTINUOUS
10
150.4131693177
20
180.3565061675
40
6.7149107143
50
163.2088448147
51
178.2663238706
0
ARC
8
10000_FRONT
62
7
6
CONTINUOUS
10
142.9024088961
20
187.8140359294
40
0.2000000000
50
179.9999999943
51
270.0000000000
0
ARC
8
10000_FRONT
62
7
6
CONTINUOUS
10
145.6919236950
20
187.4140359294
40
0.2000000000
50
301.3020186568
51
90.0000002497
0
ARC
8
10000_FRONT
62
7
6
CONTINUOUS
10
142.9024088961
20
185.2497071448
40
0.2000000000
50
121.3020186229
51
180.0000000000
0
ARC
8
10000_FRONT
62
7
6
CONTINUOUS
10
142.9024088961
20
183.7715240247
40
0.2000000000
50
180.0000000000
51
270.0000000000
0
ARC
8
10000_FRONT
62
7
6
CONTINUOUS
10
148.2004088961
20
183.7715240247
40
0.2000000000
50
270.0000000000
51
360.0000000000
0
ARC
8
10000_FRONT
62
7
6
CONTINUOUS
10
148.2004088961
20
184.4974585485
40
0.2000000000
50
0.0000000000
51
90.0000000000
0
ARC
8
10000_FRONT
62
7
6
CONTINUOUS
10
145.4898242444
20
184.8974585485
40
0.2000000000
50
121.9630782413
51
270.0000002470
0
ARC
8
10000_FRONT
62
7
6
CONTINUOUS
10
148.2004088961
20
187.0602736621
40
0.2000000000
50
301.9630782122
51
360.0000000000
0
ARC
8
10000_FRONT
62
7
6
CONTINUOUS
10
148.2004088961
20
188.5399704533
40
0.2000000000
50
0.0000000000
51
90.0000000000
0
ARC
8
10000_FRONT
62
7
6
CONTINUOUS
10
142.9024088961
20
188.5399704533
40
0.2000000000
50
90.0000000000
51
180.0000000000
0
ARC
8
10000_FRONT
62
7
6
CONTINUOUS
10
142.9024088961
20
193.7219823580
40
0.2000000000
50
90.0000000000
51
180.0000000000
0
ARC
8
10000_FRONT
62
7
6
CONTINUOUS
10
142.9024088961
20
189.8895537866
40
0.2000000000
50
180.0000000000
51
270.0000000000
0
ARC
8
10000_FRONT
62
7
6
CONTINUOUS
10
148.2004088961
20
193.7219823580
40
0.2000000000
50
0.0000000000
51
90.0000000000
0
ARC
8
10000_FRONT
62
7
6
CONTINUOUS
10
148.2004088961
20
189.8895537866
40
0.2000000000
50
270.0000000000
51
360.0000000000
0
ARC
8
10000_FRONT
62
7
6
CONTINUOUS
10
147.6503255628
20
189.8895537866
40
0.2000000000
50
180.0000000000
51
270.0000000000
0
ARC
8
10000_FRONT
62
7
6
CONTINUOUS
10
147.2503255628
20
192.1212561675
40
0.2000000000
50
0.0000000000
51
89.9999999996
0
ARC
8
10000_FRONT
62
7
6
CONTINUOUS
10
146.2666469913
20
192.1212561675
40
0.2000000000
50
90.0000000000
51
179.9999999996
0
ARC
8
10000_FRONT
62
7
6
CONTINUOUS
10
145.8666469913
20
190.2558216437
40
0.2000000000
50
270.0000000000
51
360.0000000000
0
ARC
8
10000_FRONT
62
7
6
CONTINUOUS
10
145.4120219913
20
190.2558216437
40
0.2000000000
50
180.0000000000
51
270.0000000000
0
ARC
8
10000_FRONT
62
7
6
CONTINUOUS
10
145.0120219913
20
192.1212561675
40
0.2000000000
50
0.0000000000
51
89.9999999996
0
ARC
8
10000_FRONT
62
7
6
CONTINUOUS
10
143.9469505628
20
192.1212561675
40
0.2000000000
50
90.0000000000
51
179.9999999996
0
ARC
8
10000_FRONT
62
7
6
CONTINUOUS
10
143.5469505628
20
189.8895537866
40
0.2000000000
50
270.0000000000
51
360.0000000000
0
ARC
8
10000_FRONT
62
7
6
CONTINUOUS
10
142.9024088961
20
202.0783156913
40
0.2000000000
50
90.0000000000
51
180.0000000000
0
ARC
8
10000_FRONT
62
7
6
CONTINUOUS
10
142.9024088961
20
201.3523811675
40
0.2000000000
50
179.9999999943
51
270.0000000000
0
ARC
8
10000_FRONT
62
7
6
CONTINUOUS
10
145.4404730683
20
200.9523811675
40
0.2000000000
50
295.8685246972
51
90.0000000676
0
ARC
8
10000_FRONT
62
7
6
CONTINUOUS
10
142.9024088961
20
199.2771415734
40
0.2000000000
50
115.8685246562
51
180.0000000000
0
ARC
8
10000_FRONT
62
7
6
CONTINUOUS
10
142.9024088961
20
198.5030937813
40
0.2000000000
50
180.0000000000
51
246.7039191878
0
ARC
8
10000_FRONT
62
7
6
CONTINUOUS
10
145.3237416059
20
197.0249942627
40
0.2000000000
50
270.0000000602
51
66.7039193146
0
ARC
8
10000_FRONT
62
7
6
CONTINUOUS
10
142.9024088961
20
196.6249942627
40
0.2000000000
50
90.0000000000
51
180.0000000000
0
ARC
8
10000_FRONT
62
7
6
CONTINUOUS
10
142.9024088961
20
195.4242680723
40
0.2000000000
50
180.0000000000
51
270.0000000000
0
ARC
8
10000_FRONT
62
7
6
CONTINUOUS
10
148.2004088961
20
195.4242680723
40
0.2000000000
50
270.0000000000
51
360.0000000000
0
ARC
8
10000_FRONT
62
7
6
CONTINUOUS
10
148.2004088961
20
202.0783156913
40
0.2000000000
50
0.0000000000
51
90.0000000000
0
ARC
8
10000_FRONT
62
7
6
CONTINUOUS
10
148.2004088961
20
200.4366148093
40
0.2000000000
50
295.8685246557
51
360.0000000000
0
ARC
8
10000_FRONT
62
7
6
CONTINUOUS
10
145.3840447955
20
198.6264289111
40
0.2000000000
50
115.8685246569
51
246.7039191867
0
ARC
8
10000_FRONT
62
7
6
CONTINUOUS
10
148.2004088961
20
196.9782340299
40
0.2000000000
50
0.0000000000
51
66.7039191878
0
ARC
8
10000_FRONT
62
7
6
CONTINUOUS
10
142.9024088961
20
207.2603275961
40
0.2000000000
50
90.0000000000
51
180.0000000000
0
ARC
8
10000_FRONT
62
7
6
CONTINUOUS
10
142.9024088961
20
203.4278990247
40
0.2000000000
50
180.0000000000
51
270.0000000000
0
ARC
8
10000_FRONT
62
7
6
CONTINUOUS
10
148.2004088961
20
207.2603275961
40
0.2000000000
50
0.0000000000
51
90.0000000000
0
ARC
8
10000_FRONT
62
7
6
CONTINUOUS
10
148.2004088961
20
203.4278990247
40
0.2000000000
50
270.0000000000
51
360.0000000000
0
ARC
8
10000_FRONT
62
7
6
CONTINUOUS
10
147.6503255628
20
203.4278990247
40
0.2000000000
50
180.0000000000
51
270.0000000000
0
ARC
8
10000_FRONT
62
7
6
CONTINUOUS
10
147.2503255628
20
205.6596014056
40
0.2000000000
50
0.0000000000
51
89.9999999996
0
ARC
8
10000_FRONT
62
7
6
CONTINUOUS
10
146.2666469913
20
205.6596014056
40
0.2000000000
50
90.0000000000
51
179.9999999996
0
ARC
8
10000_FRONT
62
7
6
CONTINUOUS
10
145.8666469913
20
203.7941668818
40
0.2000000000
50
270.0000000000
51
360.0000000000
0
ARC
8
10000_FRONT
62
7
6
CONTINUOUS
10
145.4120219913
20
203.7941668818
40
0.2000000000
50
180.0000000000
51
270.0000000000
0
ARC
8
10000_FRONT
62
7
6
CONTINUOUS
10
145.0120219913
20
205.6596014056
40
0.2000000000
50
0.0000000000
51
89.9999999996
0
ARC
8
10000_FRONT
62
7
6
CONTINUOUS
10
143.9469505628
20
205.6596014056
40
0.2000000000
50
90.0000000000
51
179.9999999996
0
ARC
8
10000_FRONT
62
7
6
CONTINUOUS
10
143.5469505628
20
203.4278990247
40
0.2000000000
50
270.0000000000
51
360.0000000000
0
ARC
8
10000_FRONT
62
7
6
CONTINUOUS
10
148.1727779437
20
210.1633395009
40
0.2000000000
50
0.0000000000
51
90.0000000000
0
ARC
8
10000_FRONT
62
7
6
CONTINUOUS
10
142.9431053247
20
210.1633395009
40
0.2000000000
50
90.0000000000
51
180.0000000000
0
ARC
8
10000_FRONT
62
7
6
CONTINUOUS
10
142.9431053247
20
208.9626133104
40
0.2000000000
50
180.0000000000
51
270.0000000000
0
ARC
8
10000_FRONT
62
7
6
CONTINUOUS
10
148.1727779437
20
208.9626133104
40
0.2000000000
50
270.0000000000
51
360.0000000000
0
ARC
8
10000_FRONT
62
7
6
CONTINUOUS
10
143.7222630141
20
215.8207504817
40
0.2000000000
50
345.1947751399
51
90.0000040445
0
ARC
8
10000_FRONT
62
7
6
CONTINUOUS
10
143.0397770007
20
215.8207504817
40
0.2000000000
50
90.0000000000
51
167.8423204489
0
ARC
8
10000_FRONT
62
7
6
CONTINUOUS
10
150.8009981818
20
214.1487147674
40
8.1392857143
50
167.8423204490
51
184.2687810060
0
ARC
8
10000_FRONT
62
7
6
CONTINUOUS
10
145.5251891242
20
213.7549154780
40
2.8488000000
50
184.2687810051
51
204.2173766316
0
ARC
8
10000_FRONT
62
7
6
CONTINUOUS
10
144.3498361409
20
213.2262623865
40
1.5600297619
50
204.2173765929
51
331.5368415502
0
ARC
8
10000_FRONT
62
7
6
CONTINUOUS
10
147.0704922295
20
214.2029766722
40
0.3662678571
50
28.4631585778
51
151.5368415356
0
ARC
8
10000_FRONT
62
7
6
CONTINUOUS
10
146.1999137748
20
213.7310156981
40
1.3565476190
50
358.2893824837
51
28.4631584586
0
ARC
8
10000_FRONT
62
7
6
CONTINUOUS
10
140.8439386580
20
213.8909707198
40
6.7149107143
50
346.5855852685
51
358.2893825601
0
ARC
8
10000_FRONT
62
7
6
CONTINUOUS
10
147.5701936197
20
212.2867623865
40
0.2000000000
50
166.5855852694
51
270.0000000000
0
ARC
8
10000_FRONT
62
7
6
CONTINUOUS
10
148.1474548893
20
212.2867623865
40
0.2000000000
50
269.9999999734
51
348.9417064475
0
ARC
8
10000_FRONT
62
7
6
CONTINUOUS
10
140.3555815152
20
213.8095778627
40
8.1392857143
50
348.9417064927
51
359.9999999979
0
ARC
8
10000_FRONT
62
7
6
CONTINUOUS
10
145.3748077057
20
213.8095778627
40
3.1200595238
50
0.0000000000
51
28.3593500326
0
ARC
8
10000_FRONT
62
7
6
CONTINUOUS
10
146.8072988682
20
214.5828100055
40
1.4922023810
50
28.3593500379
51
119.7586875151
0
ARC
8
10000_FRONT
62
7
6
CONTINUOUS
10
146.9082968514
20
214.4061623623
40
1.6956845238
50
119.7586875242
51
155.0865826652
0
ARC
8
10000_FRONT
62
7
6
CONTINUOUS
10
144.2510779835
20
213.5789647674
40
0.3662678571
50
207.7711230049
51
332.2288772753
0
ARC
8
10000_FRONT
62
7
6
CONTINUOUS
10
145.6674260058
20
214.3248083279
40
1.9669940476
50
176.7272850778
51
207.7711227657
0
ARC
8
10000_FRONT
62
7
6
CONTINUOUS
10
150.4075993723
20
214.0537564341
40
6.7149107143
50
165.1947769463
51
176.7272850865
0
ARC
8
10000_FRONT
62
7
6
CONTINUOUS
10
151.0155815152
20
217.4207504817
40
0.2800000000
50
0.0000000000
51
90.0000000000
0
ARC
8
10000_FRONT
62
7
6
CONTINUOUS
10
140.6355815152
20
217.4207504817
40
0.2800000000
50
90.0000000000
51
180.0000000000
0
ARC
8
10000_FRONT
62
7
6
CONTINUOUS
10
140.6355815152
20
176.9807504817
40
0.2800000000
50
180.0000000000
51
270.0000000000
0
ARC
8
10000_FRONT
62
7
6
CONTINUOUS
10
151.0155815152
20
176.9807504817
40
0.2800000000
50
270.0000000000
51
360.0000000000
0
ARC
8
10000_FRONT
62
7
6
CONTINUOUS
10
134.7646371712
20
139.8217826544
40
1.0000000000
50
180.0000000000
51
183.9248550372
0
ARC
8
10000_FRONT
62
7
6
CONTINUOUS
10
152.0446371712
20
225.1807504817
40
0.5000000000
50
90.0000000000
51
179.9999761853
0
ARC
8
10000_FRONT
62
7
6
CONTINUOUS
10
158.6446371712
20
225.1807504817
40
0.5000000000
50
0.0000000000
51
90.0000000000
0
ARC
8
10000_FRONT
62
7
6
CONTINUOUS
10
146.6446371712
20
156.0945401594
40
0.3000000000
50
270.0000000000
51
360.0000000000
0
ARC
8
10000_FRONT
62
7
6
CONTINUOUS
10
146.6446371712
20
158.0945401594
40
0.3000000000
50
0.0000000000
51
90.0000000000
0
ARC
8
10000_FRONT
62
7
6
CONTINUOUS
10
144.2446371712
20
158.0945401594
40
0.3000000000
50
90.0000000000
51
180.0000000000
0
ARC
8
10000_FRONT
62
7
6
CONTINUOUS
10
144.2446371712
20
156.0945401594
40
0.3000000000
50
180.0000000000
51
270.0000000000
0
ARC
8
10000_FRONT
62
7
6
CONTINUOUS
10
147.2446371712
20
149.8007504817
40
0.3000000000
50
180.0000000003
51
270.0000000000
0
ARC
8
10000_FRONT
62
7
6
CONTINUOUS
10
147.6446371712
20
149.8007504817
40
0.3000000000
50
270.0000000004
51
360.0000000000
0
ARC
8
10000_FRONT
62
7
6
CONTINUOUS
10
143.2446371712
20
149.8007504817
40
0.3000000000
50
180.0000000000
51
269.9999999992
0
ARC
8
10000_FRONT
62
7
6
CONTINUOUS
10
143.6446371712
20
149.8007504817
40
0.3000000000
50
270.0000004087
51
359.9999999999
0
ARC
8
10000_FRONT
62
7
6
CONTINUOUS
10
150.5646371712
20
128.3007504817
40
1.0000000000
50
270.0000000000
51
360.0000000000
0
ARC
8
10000_FRONT
62
7
6
CONTINUOUS
10
140.3246371712
20
128.3007504817
40
1.0000000000
50
180.0000000000
51
270.0000000000
0
ARC
8
10000_FRONT
62
7
6
CONTINUOUS
10
154.2446371712
20
158.6007504817
40
0.3000000000
50
180.0000000004
51
270.0000000000
0
ARC
8
10000_FRONT
62
7
6
CONTINUOUS
10
154.5446371712
20
158.0007504817
40
0.3000000000
50
0.0000000000
51
90.0000000000
0
ARC
8
10000_FRONT
62
7
6
CONTINUOUS
10
134.3646371712
20
129.9007504817
40
0.6000000000
50
180.0000028700
51
270.0000000000
0
ARC
8
10000_FRONT
62
7
6
CONTINUOUS
10
137.4446371712
20
129.6007504817
40
0.3000000000
50
270.0000000000
51
360.0000000000
0
ARC
8
10000_FRONT
62
7
6
CONTINUOUS
10
138.0446371712
20
145.0007504817
40
0.3000000000
50
90.0000000000
51
180.0000000000
0
ARC
8
10000_FRONT
62
7
6
CONTINUOUS
10
138.5646371712
20
145.0007504817
40
0.3000000000
50
0.0000000000
51
90.0000000000
0
ARC
8
10000_FRONT
62
7
6
CONTINUOUS
10
139.1646371712
20
129.6007504817
40
0.3000000000
50
180.0000000000
51
270.0000000000
0
ARC
8
10000_FRONT
62
7
6
CONTINUOUS
10
139.4846371712
20
129.6007504817
40
0.3000000000
50
270.0000000000
51
360.0000000000
0
ARC
8
10000_FRONT
62
7
6
CONTINUOUS
10
140.0846371712
20
145.0007504817
40
0.3000000000
50
90.0000000000
51
180.0000000000
0
ARC
8
10000_FRONT
62
7
6
CONTINUOUS
10
140.6046371712
20
145.0007504817
40
0.3000000000
50
0.0000000000
51
90.0000000000
0
ARC
8
10000_FRONT
62
7
6
CONTINUOUS
10
141.2046371712
20
129.6007504817
40
0.3000000000
50
180.0000000000
51
270.0000000000
0
ARC
8
10000_FRONT
62
7
6
CONTINUOUS
10
136.6446371712
20
158.6007504817
40
0.3000000000
50
270.0000000000
51
360.0000000000
0
ARC
8
10000_FRONT
62
7
6
CONTINUOUS
10
136.3446371712
20
158.0007504817
40
0.3000000000
50
90.0000000000
51
180.0000000000
0
ARC
8
10000_FRONT
62
7
6
CONTINUOUS
10
141.5246371712
20
129.6007504817
40
0.3000000000
50
270.0000000000
51
360.0000000000
0
ARC
8
10000_FRONT
62
7
6
CONTINUOUS
10
142.1246371712
20
145.0007504817
40
0.3000000000
50
90.0000000000
51
180.0000000000
0
ARC
8
10000_FRONT
62
7
6
CONTINUOUS
10
142.6446371712
20
145.0007504817
40
0.3000000000
50
0.0000000000
51
90.0000000000
0
ARC
8
10000_FRONT
62
7
6
CONTINUOUS
10
143.2446371712
20
129.6007504817
40
0.3000000000
50
180.0000000000
51
270.0000000000
0
ARC
8
10000_FRONT
62
7
6
CONTINUOUS
10
153.4446371712
20
129.6007504817
40
0.3000000000
50
180.0000000000
51
270.0000000000
0
ARC
8
10000_FRONT
62
7
6
CONTINUOUS
10
152.8446371712
20
145.0007504817
40
0.3000000000
50
0.0000000000
51
90.0000000000
0
ARC
8
10000_FRONT
62
7
6
CONTINUOUS
10
152.3246371712
20
145.0007504817
40
0.3000000000
50
90.0000000000
51
180.0000000000
0
ARC
8
10000_FRONT
62
7
6
CONTINUOUS
10
151.7246371712
20
129.6007504817
40
0.3000000000
50
270.0000000000
51
360.0000000000
0
ARC
8
10000_FRONT
62
7
6
CONTINUOUS
10
151.4046371712
20
129.6007504817
40
0.3000000000
50
180.0000000000
51
270.0000000000
0
ARC
8
10000_FRONT
62
7
6
CONTINUOUS
10
143.5646371712
20
129.6007504817
40
0.3000000000
50
270.0000000000
51
360.0000000000
0
ARC
8
10000_FRONT
62
7
6
CONTINUOUS
10
144.1646371712
20
145.0007504817
40
0.3000000000
50
90.0000000000
51
180.0000000000
0
ARC
8
10000_FRONT
62
7
6
CONTINUOUS
10
150.8046371712
20
145.0007504817
40
0.3000000000
50
0.0000000000
51
90.0000000000
0
ARC
8
10000_FRONT
62
7
6
CONTINUOUS
10
144.6846371712
20
145.0007504817
40
0.3000000000
50
0.0000000000
51
90.0000000000
0
ARC
8
10000_FRONT
62
7
6
CONTINUOUS
10
145.2846371712
20
129.6007504817
40
0.3000000000
50
180.0000000000
51
270.0000000000
0
ARC
8
10000_FRONT
62
7
6
CONTINUOUS
10
150.2846371712
20
145.0007504817
40
0.3000000000
50
90.0000000000
51
180.0000000000
0
ARC
8
10000_FRONT
62
7
6
CONTINUOUS
10
149.6846371712
20
129.6007504817
40
0.3000000000
50
270.0000000000
51
360.0000000000
0
ARC
8
10000_FRONT
62
7
6
CONTINUOUS
10
145.6046371712
20
129.6007504817
40
0.3000000000
50
270.0000000000
51
360.0000000000
0
ARC
8
10000_FRONT
62
7
6
CONTINUOUS
10
146.2046371712
20
145.0007504817
40
0.3000000000
50
90.0000000000
51
180.0000000000
0
ARC
8
10000_FRONT
62
7
6
CONTINUOUS
10
146.7246371712
20
145.0007504817
40
0.3000000000
50
0.0000000000
51
90.0000000000
0
ARC
8
10000_FRONT
62
7
6
CONTINUOUS
10
147.3246371712
20
129.6007504817
40
0.3000000000
50
180.0000000000
51
270.0000000000
0
ARC
8
10000_FRONT
62
7
6
CONTINUOUS
10
149.3646371712
20
129.6007504817
40
0.3000000000
50
180.0000000000
51
270.0000000000
0
ARC
8
10000_FRONT
62
7
6
CONTINUOUS
10
148.7646371712
20
145.0007504817
40
0.3000000000
50
0.0000000000
51
90.0000000000
0
ARC
8
10000_FRONT
62
7
6
CONTINUOUS
10
148.2446371712
20
145.0007504817
40
0.3000000000
50
90.0000000000
51
180.0000000000
0
ARC
8
10000_FRONT
62
7
6
CONTINUOUS
10
147.6446371712
20
129.6007504817
40
0.3000000000
50
270.0000000000
51
360.0000000000
0
ARC
8
11000_LEFT
62
7
6
CONTINUOUS
10
254.2631112714
20
235.0431860611
40
1.0000000000
50
70.0833850515
51
90.0036159896
0
ARC
8
11000_LEFT
62
7
6
CONTINUOUS
10
250.2790723271
20
235.0181764396
40
0.5000000000
50
99.0083760737
51
179.9999827649
0
ARC
8
11000_LEFT
62
7
6
CONTINUOUS
10
274.9590723260
20
235.0181764398
40
0.5000000000
50
0.0000001460
51
80.9914879405
0
ARC
8
11000_LEFT
62
7
6
CONTINUOUS
10
262.3190731473
20
223.8045178466
40
0.2999999958
50
270.7998432858
51
359.9999811230
0
ARC
8
11000_LEFT
62
7
6
CONTINUOUS
10
259.3329536939
20
155.3007504817
40
0.3000000000
50
0.0000000000
51
90.0000000000
0
ARC
8
11000_LEFT
62
7
6
CONTINUOUS
10
259.3329536939
20
151.5007504817
40
0.3000000000
50
270.0000000000
51
360.0000000000
0
ARC
8
11000_LEFT
62
7
6
CONTINUOUS
10
245.3034086967
20
162.7807504817
40
0.6000000000
50
245.7722546820
51
270.0000000000
0
ARC
8
11000_LEFT
62
7
6
CONTINUOUS
10
262.3190731591
20
220.5569831040
40
0.3000000184
50
0.0000213128
51
89.2001590046
0
ARC
8
11000_LEFT
62
7
6
CONTINUOUS
10
263.1790723279
20
225.2207504817
40
0.4600000000
50
90.0000000000
51
180.0000000000
0
ARC
8
11000_LEFT
62
7
6
CONTINUOUS
10
267.1190723279
20
139.1217826544
40
0.3000000000
50
270.0000000000
51
359.9999981467
0
ARC
8
11000_LEFT
62
7
6
CONTINUOUS
10
255.7831515328
20
144.3776599327
40
0.7000000000
50
185.7000000001
51
275.7000000000
0
ARC
8
11000_LEFT
62
7
6
CONTINUOUS
10
255.0806107894
20
207.6311872434
40
11.4615384615
50
127.8585572928
51
180.0000000000
0
ARC
8
11000_LEFT
62
7
6
CONTINUOUS
10
252.8190723279
20
162.3008821039
40
0.6000000000
50
179.9999999998
51
223.6797910015
0
ARC
8
11000_LEFT
62
7
6
CONTINUOUS
10
251.6190723279
20
177.8807504817
40
0.6000000000
50
0.0000000000
51
90.0000000003
0
ARC
8
11000_LEFT
62
7
6
CONTINUOUS
10
249.8190723279
20
177.8807504817
40
0.6000000000
50
90.0000000000
51
180.0000000003
0
ARC
8
11000_LEFT
62
7
6
CONTINUOUS
10
244.2190723279
20
163.2687018477
40
0.6000000000
50
180.0000000000
51
245.7722546821
0
ARC
8
11000_LEFT
62
7
6
CONTINUOUS
10
246.8190723279
20
218.2594514479
40
2.0000000000
50
307.8585572927
51
360.0000000000
0
ARC
8
11000_LEFT
62
7
6
CONTINUOUS
10
262.3190723279
20
225.7807504817
40
0.3000000000
50
0.0000000013
51
89.9999955425
0
ARC
8
11000_LEFT
62
7
6
CONTINUOUS
10
249.1190723279
20
225.7807504817
40
0.3000000000
50
90.0000000002
51
180.0000000002
0
ARC
8
11000_LEFT
62
7
6
CONTINUOUS
10
275.1590723279
20
225.2207504817
40
0.4600000000
50
0.0000004001
51
89.9998776330
0
ARC
8
11000_LEFT
62
7
6
CONTINUOUS
10
249.0190723279
20
161.1807504817
40
1.0000000000
50
359.9999721086
51
90.0000000000
0
ARC
8
11000_LEFT
62
7
6
CONTINUOUS
10
247.7128533608
20
163.6869694488
40
1.5062189671
50
270.0000000000
51
360.0000000000
0
ARC
8
11000_LEFT
62
7
6
CONTINUOUS
10
263.9565184097
20
172.9365435678
40
16.0000000000
50
223.6797910012
51
253.6990226912
0
ARC
8
11000_LEFT
62
7
6
CONTINUOUS
10
260.1567276335
20
159.9430951898
40
2.4623446938
50
253.6990223733
51
360.0000000000
0
ARC
8
11000_LEFT
62
7
6
CONTINUOUS
10
259.5190723279
20
156.1807504817
40
0.3000000000
50
0.0000000000
51
90.0000000000
0
ARC
8
11000_LEFT
62
7
6
CONTINUOUS
10
259.5190723279
20
150.7765906649
40
0.3000000000
50
270.8000000000
51
360.0000000000
0
ARC
8
11000_LEFT
62
7
6
CONTINUOUS
10
257.5190679427
20
150.1486050391
40
0.2999999989
50
90.7991624990
51
179.9999901479
0
ARC
8
11000_LEFT
62
7
6
CONTINUOUS
10
258.2190723279
20
132.8007504817
40
1.6000000000
50
200.1014670984
51
206.3834526648
0
ARC
8
11000_LEFT
62
7
6
CONTINUOUS
10
254.4190723279
20
136.2007504817
40
1.4000000000
50
20.1014670979
51
28.3412127411
0
ARC
8
11000_LEFT
62
7
6
CONTINUOUS
10
254.4190723279
20
136.2007504817
40
0.8000000000
50
20.1014670978
51
28.3412127413
0
ARC
8
11000_LEFT
62
7
6
CONTINUOUS
10
253.9190723279
20
141.3407504817
40
1.2000000000
50
174.0018887952
51
208.3412127410
0
ARC
8
11000_LEFT
62
7
6
CONTINUOUS
10
253.9190723279
20
141.3407504817
40
0.6000000000
50
86.8844094399
51
208.3412127409
0
ARC
8
11000_LEFT
62
7
6
CONTINUOUS
10
253.9190723279
20
141.3407504817
40
1.2000000000
50
86.8844094399
51
114.3619602113
0
ARC
8
11000_LEFT
62
7
6
CONTINUOUS
10
255.3390723279
20
143.0407504817
40
1.1746649984
50
266.8844094400
51
5.7000000000
0
ARC
8
11000_LEFT
62
7
6
CONTINUOUS
10
255.3390723279
20
143.0407504817
40
0.5746649984
50
266.8844094400
51
5.7000000000
0
ARC
8
11000_LEFT
62
7
6
CONTINUOUS
10
269.9322479567
20
234.2788496442
40
1.0000000000
50
142.5644087045
51
179.2000000000
0
ARC
8
11000_LEFT
62
7
6
CONTINUOUS
10
271.7585334578
20
232.8807504817
40
3.3000000000
50
109.9166149471
51
166.7125239410
0
ARC
8
11000_LEFT
62
7
6
CONTINUOUS
10
270.9750333844
20
235.0431860611
40
1.0000000000
50
90.0034251489
51
109.9166149485
0
ARC
8
11000_LEFT
62
7
6
CONTINUOUS
10
253.4796111979
20
232.8807504817
40
3.3000000000
50
13.2873261807
51
70.0833850531
0
ARC
8
11000_LEFT
62
7
6
CONTINUOUS
10
255.3058966991
20
234.2788496442
40
1.0000000000
50
0.8000099032
51
37.4355912943
0
ARC
8
11000_LEFT
62
7
6
CONTINUOUS
10
252.2190723279
20
155.9207504817
40
3.0000000000
50
5.7000000000
51
32.6358165424
0
ARC
8
11000_LEFT
62
7
6
CONTINUOUS
10
252.2190723279
20
155.9207504817
40
1.7000000000
50
5.6999999998
51
64.5000000002
0
ARC
8
11000_LEFT
62
7
6
CONTINUOUS
10
247.2095766015
20
164.1821786580
40
3.6000000000
50
202.9878311390
51
244.5000049712
0
ARC
8
11000_LEFT
62
7
6
CONTINUOUS
10
263.2190723279
20
213.8113717417
40
0.6000000000
50
147.9739316552
51
180.0000000000
0
ARC
8
11000_LEFT
62
7
6
CONTINUOUS
10
262.9190723279
20
212.7765906649
40
0.3000000000
50
180.0000000000
51
227.6171118652
0
ARC
8
11000_LEFT
62
7
6
CONTINUOUS
10
267.7190723279
20
140.4040518469
40
0.3000000000
50
90.8000000000
51
179.9999999998
0
ARC
8
11000_LEFT
62
7
6
CONTINUOUS
10
270.1190671361
20
141.0376228423
40
0.3000067958
50
270.8009914817
51
359.9999991024
0
ARC
8
11000_LEFT
62
7
6
CONTINUOUS
10
259.4406198423
20
162.4807504817
40
6.0000000000
50
261.1763324898
51
269.9987487558
0
ARC
8
11000_LEFT
62
7
6
CONTINUOUS
10
258.3190723279
20
155.3007504817
40
0.3000000000
50
89.9999999992
51
180.0000000002
0
ARC
8
11000_LEFT
62
7
6
CONTINUOUS
10
258.3190723279
20
151.5007504817
40
0.3000000000
50
180.0000000001
51
270.0000000001
0
ARC
8
11000_LEFT
62
7
6
CONTINUOUS
10
261.5881363550
20
176.3150619148
40
20.0000000000
50
235.4138809133
51
261.1763324898
0
ARC
8
11000_LEFT
62
7
6
CONTINUOUS
10
258.8190723279
20
140.4217826544
40
1.6000000000
50
180.0000000003
51
269.9999999997
0
ARC
8
11000_LEFT
62
7
6
CONTINUOUS
10
250.5190723279
20
160.2612205812
40
0.5000000000
50
179.9999999998
51
235.4138809134
0
ARC
8
11000_LEFT
62
7
6
CONTINUOUS
10
268.5390723279
20
139.7007504817
40
0.6000000000
50
90.0000000000
51
180.0000000000
0
ARC
8
11000_LEFT
62
7
6
CONTINUOUS
10
269.7390723279
20
139.7007504817
40
0.6000000000
50
0.0000000000
51
90.0000000000
0
ARC
8
11000_LEFT
62
7
6
CONTINUOUS
10
263.6190723279
20
172.6560018482
40
12.0000000000
50
336.9248095448
51
360.0000000000
0
ARC
8
11000_LEFT
62
7
6
CONTINUOUS
10
265.7190723279
20
160.4807504817
40
3.0000000000
50
179.9999999998
51
270.0000000002
0
ARC
8
11000_LEFT
62
7
6
CONTINUOUS
10
265.9190723279
20
161.4807504817
40
4.0000000000
50
269.9999999993
51
318.7054535479
0
ARC
8
11000_LEFT
62
7
6
CONTINUOUS
10
258.2390723279
20
132.8007504817
40
1.2000000000
50
180.0000000006
51
269.9999999996
0
ARC
8
11000_LEFT
62
7
6
CONTINUOUS
10
243.3792638095
20
181.2786552182
40
34.0000000000
50
318.7054535473
51
336.9248095447
0
ARC
8
11000_LEFT
62
7
6
CONTINUOUS
10
257.6390723279
20
137.8007504817
40
0.6000000000
50
90.0000000000
51
180.0000000000
0
ARC
8
11000_LEFT
62
7
6
CONTINUOUS
10
270.4436300020
20
156.0945401594
40
0.3000000000
50
270.0000000000
51
10.0000000001
0
ARC
8
11000_LEFT
62
7
6
CONTINUOUS
10
254.8390723279
20
132.1764864130
40
0.3000000000
50
135.0000000000
51
180.0000000000
0
ARC
8
11000_LEFT
62
7
6
CONTINUOUS
10
255.0633363966
20
132.4007504817
40
0.3000000000
50
90.0000000000
51
135.0000000000
0
ARC
8
11000_LEFT
62
7
6
CONTINUOUS
10
256.4633363966
20
131.8007504817
40
0.3000000000
50
90.0000000000
51
135.0000000022
0
ARC
8
11000_LEFT
62
7
6
CONTINUOUS
10
254.9390723279
20
130.7007504817
40
0.4000000000
50
90.0000000000
51
180.0008363675
0
ARC
8
11000_LEFT
62
7
6
CONTINUOUS
10
256.5390723279
20
129.3007504817
40
2.0000000000
50
179.9999999999
51
270.0000000001
0
ARC
8
11000_LEFT
62
7
6
CONTINUOUS
10
261.2319245675
20
129.9007504817
40
0.6000000000
50
200.9372852734
51
270.0000000000
0
ARC
8
11000_LEFT
62
7
6
CONTINUOUS
10
269.1390723279
20
130.5007504817
40
1.2000000000
50
270.0000000000
51
360.0000000000
0
ARC
8
11000_LEFT
62
7
6
CONTINUOUS
10
256.5390723279
20
129.3007504817
40
1.0000000000
50
180.0000000009
51
269.9999999999
0
ARC
8
13000_TOP
62
7
6
CONTINUOUS
10
141.0628567111
20
66.7829362109
40
1.5958109376
50
267.4906737366
51
300.6311537019
0
ARC
8
13000_TOP
62
7
6
CONTINUOUS
10
145.4446371712
20
59.3829362109
40
7.0041890624
50
239.3688462945
51
120.6311537065
0
ARC
8
13000_TOP
62
7
6
CONTINUOUS
10
141.0628567111
20
51.9829362109
40
1.5958109376
50
59.3688462936
51
105.0901851797
0
ARC
8
13000_TOP
62
7
6
CONTINUOUS
10
138.0429229370
20
63.1829362109
40
10.0041890624
50
270.0000000061
51
285.0901851794
0
ARC
8
13000_TOP
62
7
6
CONTINUOUS
10
134.1691656589
20
57.8829362109
40
0.6000000000
50
181.0000000000
51
269.9999998645
0
ARC
8
13000_TOP
62
7
6
CONTINUOUS
10
139.0945180658
20
61.3829362109
40
2.0000000000
50
270.0000000000
51
320.0000000000
0
ARC
8
13000_TOP
62
7
6
CONTINUOUS
10
146.8919303446
20
55.6490535450
40
0.1400000000
50
40.0000000047
51
173.9999999952
0
ARC
8
13000_TOP
62
7
6
CONTINUOUS
10
144.1465068022
20
56.1369430944
40
0.1400000000
50
3.0000000009
51
142.9999999991
0
ARC
8
13000_TOP
62
7
6
CONTINUOUS
10
146.1392061960
20
55.9975999786
40
0.1400000000
50
29.0000000024
51
168.9999999976
0
ARC
8
13000_TOP
62
7
6
CONTINUOUS
10
145.4446371712
20
59.3829362109
40
11.2000000000
50
146.3212603520
51
178.5051579109
0
ARC
8
13000_TOP
62
7
6
CONTINUOUS
10
158.6446371712
20
72.6829362109
40
0.5000000000
50
0.0000000000
51
90.0000000000
0
ARC
8
13000_TOP
62
7
6
CONTINUOUS
10
132.2446371712
20
72.6829362109
40
0.5000000000
50
89.9999999997
51
180.0000000000
0
ARC
8
13000_TOP
62
7
6
CONTINUOUS
10
145.4446371712
20
75.8829362109
40
2.7000000000
50
132.8334269247
51
179.2000000000
0
ARC
8
13000_TOP
62
7
6
CONTINUOUS
10
146.8626399391
20
63.3210142773
40
0.1500000000
50
181.9999999998
51
324.0000000002
0
ARC
8
13000_TOP
62
7
6
CONTINUOUS
10
143.9055465262
20
62.9115530044
40
0.2000000000
50
222.0000000000
51
358.0000000000
0
ARC
8
13000_TOP
62
7
6
CONTINUOUS
10
146.0709161255
20
63.1391425202
40
0.2000000000
50
192.0000000004
51
331.9999999996
0
ARC
8
13000_TOP
62
7
6
CONTINUOUS
10
158.6446371712
20
77.8829362109
40
0.5000000000
50
0.0000001595
51
90.0000000000
0
ARC
8
13000_TOP
62
7
6
CONTINUOUS
10
132.2446371712
20
77.8829362109
40
0.5000000000
50
90.0000000000
51
179.9999998439
0
ARC
8
13000_TOP
62
7
6
CONTINUOUS
10
132.2446371712
20
59.8829362109
40
0.5000000000
50
180.0000000001
51
269.9999999999
0
ARC
8
13000_TOP
62
7
6
CONTINUOUS
10
158.6446371712
20
59.8829362109
40
0.5000000000
50
270.0000000000
51
360.0000000000
0
ARC
8
13000_TOP
62
7
6
CONTINUOUS
10
138.1125160593
20
59.6829362109
40
0.3000000000
50
270.0000095668
51
352.2335658315
0
ARC
8
13000_TOP
62
7
6
CONTINUOUS
10
145.4446371712
20
59.3829362109
40
9.0000000000
50
136.6950666227
51
180.0000000045
0
ARC
8
13000_TOP
62
7
6
CONTINUOUS
10
145.4446371712
20
58.6829362109
40
7.1000000000
50
87.0932350243
51
172.2335644797
0
ARC
8
13000_TOP
62
7
6
CONTINUOUS
10
145.4446371712
20
58.6829362109
40
7.1000000000
50
11.3298280184
51
76.9067691247
0
ARC
8
13000_TOP
62
7
6
CONTINUOUS
10
132.4487969880
20
59.0829362109
40
0.3000000000
50
42.1004649194
51
90.0000000000
0
ARC
8
13000_TOP
62
7
6
CONTINUOUS
10
137.2847381675
20
56.9829366913
40
0.2999998886
50
0.9999705901
51
89.9999949119
0
ARC
8
13000_TOP
62
7
6
CONTINUOUS
10
132.9446371712
20
71.7229362109
40
0.5000000000
50
90.0000000001
51
180.0000000000
0
ARC
8
13000_TOP
62
7
6
CONTINUOUS
10
157.9446371712
20
71.7229362109
40
0.5000000000
50
0.0000000000
51
89.9999999998
0
ARC
8
13000_TOP
62
7
6
CONTINUOUS
10
132.9446371712
20
47.0429362109
40
0.5000000000
50
180.0000000001
51
269.9999999999
0
ARC
8
13000_TOP
62
7
6
CONTINUOUS
10
157.9446371712
20
47.0429362109
40
0.5000000000
50
270.0000000000
51
360.0000000000
0
ARC
8
13000_TOP
62
7
6
CONTINUOUS
10
148.3810335205
20
53.3969485427
40
0.4000000000
50
326.7010101464
51
30.0000000000
0
ARC
8
13000_TOP
62
7
6
CONTINUOUS
10
137.4140159112
20
58.7829362109
40
0.6000000000
50
90.0000000000
51
121.9965004186
0
ARC
8
13000_TOP
62
7
6
CONTINUOUS
10
151.7947562766
20
61.3829362109
40
2.0000000000
50
220.0000000000
51
270.0000000000
0
ARC
8
13000_TOP
62
7
6
CONTINUOUS
10
145.4446371712
20
58.6829362109
40
4.6000000000
50
40.0000000035
51
69.8043734794
0
ARC
8
13000_TOP
62
7
6
CONTINUOUS
10
145.4446371712
20
58.6829362109
40
4.6000000000
50
113.0997940021
51
140.0000000069
0
ARC
8
13000_TOP
62
7
6
CONTINUOUS
10
133.9485508806
20
59.6829362109
40
0.3000000000
50
270.0000000000
51
358.5051579110
0
ARC
8
13000_TOP
62
7
6
CONTINUOUS
10
145.4446371712
20
75.8829362109
40
2.7000000000
50
0.8000000000
51
47.1665729655
0
ARC
8
13000_TOP
62
7
6
CONTINUOUS
10
147.4842449766
20
78.0829362109
40
0.3000000000
50
90.0000000000
51
227.1665626498
0
ARC
8
13000_TOP
62
7
6
CONTINUOUS
10
143.4050293657
20
78.0829362109
40
0.3000000000
50
312.8334383384
51
90.0000000000
0
ARC
8
13000_TOP
62
7
6
CONTINUOUS
10
158.6446371712
20
58.7829362109
40
0.5000000000
50
0.0000000000
51
90.0000000000
0
ARC
8
13000_TOP
62
7
6
CONTINUOUS
10
149.9863523790
20
57.3229362109
40
0.5600000000
50
90.0000000000
51
155.0000000000
0
ARC
8
13000_TOP
62
7
6
CONTINUOUS
10
145.4446371712
20
59.0829362109
40
4.3000000000
50
297.1003193268
51
335.0000000000
0
ARC
8
13000_TOP
62
7
6
CONTINUOUS
10
145.4446371712
20
59.0829362109
40
4.3000000000
50
255.1891001155
51
274.3409269322
0
ARC
8
13000_TOP
62
7
6
CONTINUOUS
10
145.4446371712
20
59.0829362109
40
4.3000000000
50
205.0000000001
51
240.9960460332
0
ARC
8
13000_TOP
62
7
6
CONTINUOUS
10
140.9029219634
20
57.3229362109
40
0.5600000000
50
25.0000000000
51
90.0000000000
0
ARC
8
13000_TOP
62
7
6
CONTINUOUS
10
137.9666695329
20
58.7229362109
40
0.5600000000
50
12.5158793320
51
90.0000000000
0
ARC
8
13000_TOP
62
7
6
CONTINUOUS
10
148.3417080588
20
53.4650622404
40
0.4000000000
50
29.9995826959
51
112.7229861234
0
ARC
8
13000_TOP
62
7
6
CONTINUOUS
10
145.4446371712
20
60.3829362109
40
7.1000000000
50
265.2715054153
51
292.7230023733
0
ARC
8
13000_TOP
62
7
6
CONTINUOUS
10
145.4446371712
20
60.3829362109
40
7.1000000000
50
237.3787056827
51
240.7285600535
0
ARC
8
13000_TOP
62
7
6
CONTINUOUS
10
145.4446371712
20
60.3829362109
40
7.1000000000
50
293.8545849273
51
347.4841206690
0
ARC
8
13000_TOP
62
7
6
CONTINUOUS
10
145.4446371712
20
60.3829362109
40
7.1000000000
50
192.5158793304
51
237.1137213061
0
ARC
8
13000_TOP
62
7
6
CONTINUOUS
10
152.9226048095
20
58.7229362109
40
0.5600000000
50
146.4703649210
51
167.4841206549
0
ARC
8
13000_TOP
62
7
6
CONTINUOUS
10
158.6446371712
20
46.8829362109
40
0.5000000000
50
270.0000000000
51
360.0000000000
0
ARC
8
13000_TOP
62
7
6
CONTINUOUS
10
132.2446371712
20
46.8829362109
40
0.5000000000
50
180.0000001016
51
269.9999999998
0
ARC
8
13000_TOP
62
7
6
CONTINUOUS
10
132.9550188133
20
58.6829362109
40
0.6000000000
50
1.0000002597
51
90.0000000001
0
ARC
8
13000_TOP
62
7
6
CONTINUOUS
10
132.2446371712
20
58.7829362109
40
0.5000000000
50
90.0000000000
51
179.9999999488
0
ARC
8
13000_TOP
62
7
6
CONTINUOUS
10
145.4446371712
20
59.3829362109
40
8.4626653375
50
270.0000000009
51
89.9999999985
0
ENDSEC
0
EOF
